<svg xmlns="http://www.w3.org/2000/svg" viewBox="0 0 300.22 451.22"><defs><style>.cls-1{fill:#263238;}.cls-2{fill:#fff;}.cls-3{fill:#e0e0e0;}.cls-4{fill:#f5f5f5;}.cls-5{fill:#ff725e;}.cls-6{opacity:0.3;}.cls-7{fill:#fafafa;}.cls-8{fill:#455a64;}.cls-9{fill:#ffbe9d;}</style></defs><title>add</title><g id="Device"><path class="cls-1" d="M319.77,373.76,204,373.69a25.22,25.22,0,0,1-25.21-25.23l.06-290.34A25.22,25.22,0,0,1,204.05,32.9L319.86,33A25.22,25.22,0,0,1,345.07,58.2L345,348.54A25.22,25.22,0,0,1,319.77,373.76Z" transform="translate(-44.85 -32.9)"/><path class="cls-2" d="M319.73,43.24l-22.45,0a5.58,5.58,0,0,0-5.45,5.7V53a5.59,5.59,0,0,1-5.46,5.7l-43.76,0a5.57,5.57,0,0,1-5.45-5.7V48.89a5.59,5.59,0,0,0-5.46-5.71H204.16a17.66,17.66,0,0,0-17.68,17.66l-.06,283.39a17.67,17.67,0,0,0,17.66,17.68l115.58.06a17.67,17.67,0,0,0,17.68-17.66l.05-283.39A17.66,17.66,0,0,0,319.73,43.24Z" transform="translate(-44.85 -32.9)"/><path class="cls-1" d="M251.17,349.6a2.22,2.22,0,1,1-2.23-2.2A2.21,2.21,0,0,1,251.17,349.6Z" transform="translate(-44.85 -32.9)"/><path class="cls-3" d="M263.61,349.49a2.22,2.22,0,1,1-2.24-2.2A2.22,2.22,0,0,1,263.61,349.49Z" transform="translate(-44.85 -32.9)"/><path class="cls-3" d="M276,349.39a2.22,2.22,0,1,1-2.24-2.2A2.22,2.22,0,0,1,276,349.39Z" transform="translate(-44.85 -32.9)"/><path class="cls-1" d="M201.76,82.34a1,1,0,0,1,.28,0l.75,0,2.79-.07-.09.08c0-.61,0-1.29,0-2,0-.38,0-.73,0-1.17a1.06,1.06,0,0,1,.94-.87c.46,0,.85,0,1.34,0a1.08,1.08,0,0,1,.92,1.09c0,.94,0,1.93,0,3l-.15-.15,3.52,0-.16.15c0-1.41,0-2.88,0-4.38,0-.37,0-.74,0-1.11a1.16,1.16,0,0,0-.49-.82c-.52-.51-1-1-1.54-1.51L208.36,73l-.72-.7c-.25-.24-.44-.49-.72-.54a.89.89,0,0,0-.79.15c-.21.17-.44.43-.65.64l-1.26,1.27c-.79.82-1.62,1.58-2.22,2.28a2.53,2.53,0,0,0-.18,1.31V78.6c0,.76,0,1.42,0,2s0,.92,0,1.27a2.61,2.61,0,0,1,0,.47s0-.14,0-.42,0-.77,0-1.26,0-1.25,0-2q0-.6,0-1.26c0-.23,0-.46,0-.7a1.52,1.52,0,0,1,.2-.74c.65-.8,1.42-1.5,2.22-2.35l1.25-1.28c.23-.23.41-.44.68-.68a1.2,1.2,0,0,1,1-.2,1.85,1.85,0,0,1,.85.61l.72.7,1.49,1.46,1.54,1.51a1.45,1.45,0,0,1,.58,1c0,.37,0,.75,0,1.12q0,2.25,0,4.38v.15h-.15l-3.51,0h-.15v-.15c0-1,0-2,0-3a.81.81,0,0,0-.69-.83c-.4,0-.88,0-1.27,0a.86.86,0,0,0-.75.67c0,.35,0,.77,0,1.12,0,.73,0,1.4,0,2v.09h-.08l-2.84,0-.73,0Z" transform="translate(-44.85 -32.9)"/><rect class="cls-4" x="283.26" y="63.71" width="3.75" height="250.7" rx="1.8"/><rect class="cls-3" x="283.85" y="75.17" width="2.56" height="20.21" rx="1.22"/><rect class="cls-2" x="153.51" y="62.38" width="126.05" height="54.18" rx="4.43"/><path class="cls-5" d="M157.5,62.47h60.07a0,0,0,0,1,0,0v54.09a0,0,0,0,1,0,0H157.5a4,4,0,0,1-4-4V66.47A4,4,0,0,1,157.5,62.47Z"/><g class="cls-6"><path d="M250.74,124.6c2-1.28,2.84-3.69,3.59-5.92.48-1.46.95-3.12.22-4.46a5.46,5.46,0,0,0-2.73-2.06A69.36,69.36,0,0,0,239.65,108l-30.47,10.85a4.6,4.6,0,0,0,6.85,5.09,33.06,33.06,0,0,1-1.4,17.92,3,3,0,0,0-.2,2.43c.48.85,1.64.95,2.61.95l30.55.09c1.49,0,3.19-.08,4.12-1.24s.63-3,.24-4.48l-3-11.4a3.13,3.13,0,0,1-.06-2.09C249.23,125.38,250.06,125,250.74,124.6Z" transform="translate(-44.85 -32.9)"/></g><path class="cls-2" d="M246.82,139.53c-.21-.45-2.92-10.18-2.92-10.18l.51-10.36.49-14.37-7-1.24c-5.06,2.93-13,4.16-18.18,1.78,0,0-2.78.13-4.14,1.38-.53.48.32,4.66,1.09,8.79.8,4.34,3.06,15.13,3.06,15.13s-3.83,9.25-4.65,11.91c0,0,23.45-4.25,31.3,0C246.39,142.37,248.05,142.14,246.82,139.53Z" transform="translate(-44.85 -32.9)"/><path class="cls-2" d="M207,111.81l8.75-5.39,2.35,12-4.51,3.82S206.75,118.74,207,111.81Z" transform="translate(-44.85 -32.9)"/><path class="cls-2" d="M244.9,104.62l8.88,3.84s-2.92,11.15-4.62,12.43l-4.51-1.9-1.11,3.49-.06-14Z" transform="translate(-44.85 -32.9)"/><path class="cls-3" d="M214.41,121.15a1.6,1.6,0,0,1-.45-.21,11.13,11.13,0,0,1-1.12-.73,12.4,12.4,0,0,1-3-3.23,12.05,12.05,0,0,1-1.08-2.2,10.31,10.31,0,0,1-.49-1.93,7.11,7.11,0,0,1-.09-1.34,1.72,1.72,0,0,1,0-.49c.06,0,.05.7.27,1.79a11.54,11.54,0,0,0,.53,1.87,12.56,12.56,0,0,0,1.08,2.13A14.32,14.32,0,0,0,213,120C213.84,120.74,214.44,121.1,214.41,121.15Z" transform="translate(-44.85 -32.9)"/><path class="cls-3" d="M216.9,116.75s-.13,0-.34-.17a7,7,0,0,1-.77-.67,21.54,21.54,0,0,1-2.08-2.61,27.89,27.89,0,0,1-1.74-2.85,3.9,3.9,0,0,1-.5-1.29s.25.46.69,1.18,1.07,1.72,1.8,2.78,1.44,2,2,2.64c.28.32.52.56.69.73S216.91,116.73,216.9,116.75Z" transform="translate(-44.85 -32.9)"/><path class="cls-3" d="M243.87,105.43a6.1,6.1,0,0,1-1.07.28c-.69.17-1.69.44-2.9.81l-4.28,1.34a34,34,0,0,1-5.36,1.25,21.57,21.57,0,0,1-9.89-1,20.6,20.6,0,0,1-2.79-1.2c-.32-.16-.55-.32-.71-.41l-.24-.16a9,9,0,0,1,1,.46,22.48,22.48,0,0,0,2.79,1.1,22.06,22.06,0,0,0,9.79.88,36.89,36.89,0,0,0,5.32-1.21c1.61-.47,3.06-.93,4.29-1.28s2.24-.58,2.94-.71c.35-.08.63-.11.82-.14A1,1,0,0,1,243.87,105.43Z" transform="translate(-44.85 -32.9)"/><path class="cls-3" d="M244.81,113.54s-.09,0-.28.07l-.82.14c-.71.11-1.74.24-3,.37a99.47,99.47,0,0,1-10,.48c-3.93,0-7.48-.14-10-.27l-3-.18-.83-.06a1,1,0,0,1-.29,0l.29,0h.83l3,.08c2.57.08,6.12.19,10,.19s7.46-.18,10-.4c1.28-.1,2.31-.2,3-.27l.82-.08A1.59,1.59,0,0,1,244.81,113.54Z" transform="translate(-44.85 -32.9)"/><path class="cls-3" d="M244.41,119a8.47,8.47,0,0,1-1,.32c-.33.1-.73.19-1.21.29s-1,.22-1.61.32a67.57,67.57,0,0,1-9.47.82c-3.72.11-7.08,0-9.51-.19-1.21-.09-2.19-.19-2.87-.28a6.91,6.91,0,0,1-1-.19,8.07,8.07,0,0,1,1.05.07c.68,0,1.66.12,2.87.18,2.43.11,5.78.21,9.49.1a77.86,77.86,0,0,0,9.44-.73q.92-.12,1.62-.27c.47-.08.88-.15,1.21-.24A5.37,5.37,0,0,1,244.41,119Z" transform="translate(-44.85 -32.9)"/><path class="cls-3" d="M243.64,126.38a6.07,6.07,0,0,1-1,.14c-.62.07-1.52.16-2.64.25-2.24.17-5.34.35-8.77.39s-6.53-.08-8.77-.28c-1.11-.11-2-.21-2.64-.32a6.89,6.89,0,0,1-1-.18,4.79,4.79,0,0,1,1,.06c.62.07,1.52.14,2.64.22,2.24.14,5.33.24,8.75.19s6.51-.18,8.75-.3l2.65-.15A5.22,5.22,0,0,1,243.64,126.38Z" transform="translate(-44.85 -32.9)"/><path class="cls-3" d="M245.09,133.66a6.39,6.39,0,0,1-1.05,0l-2.88-.2c-2.42-.16-5.77-.33-9.48-.33s-7.06.17-9.48.33l-2.87.2a6.51,6.51,0,0,1-1.06,0,8.69,8.69,0,0,1,1-.16c.67-.09,1.65-.19,2.86-.3,2.43-.21,5.79-.41,9.5-.41s7.08.19,9.5.41c1.21.11,2.19.21,2.87.3A8.7,8.7,0,0,1,245.09,133.66Z" transform="translate(-44.85 -32.9)"/><path class="cls-3" d="M247.9,107.7a8,8,0,0,1-1.17,2.52,7.52,7.52,0,0,1-1.75,2.16c-.07,0,.69-1,1.49-2.32S247.82,107.66,247.9,107.7Z" transform="translate(-44.85 -32.9)"/><path class="cls-1" d="M215.91,111a3.37,3.37,0,0,1,.19.75c.12.55.26,1.25.44,2.08.38,1.82.88,4.21,1.44,6.86s1,5.11,1.35,6.87c.15.88.27,1.6.34,2.1a3.47,3.47,0,0,1,.07.78,3.86,3.86,0,0,1-.19-.76c-.11-.55-.26-1.25-.44-2.08-.38-1.81-.88-4.21-1.44-6.85s-1-5.11-1.35-6.88c-.15-.88-.27-1.6-.34-2.09A3.49,3.49,0,0,1,215.91,111Z" transform="translate(-44.85 -32.9)"/><path class="cls-1" d="M245,114.2a2.2,2.2,0,0,1,0,.6c0,.39,0,.94-.07,1.63-.07,1.37-.18,3.27-.33,5.36s-.3,4-.43,5.35c-.06.68-.12,1.24-.16,1.62a1.88,1.88,0,0,1-.11.59,2.52,2.52,0,0,1,0-.6c0-.38,0-.94.06-1.62.07-1.38.19-3.27.34-5.36s.3-4,.43-5.36c.06-.68.12-1.24.16-1.62A2.73,2.73,0,0,1,245,114.2Z" transform="translate(-44.85 -32.9)"/><path class="cls-3" d="M251.39,107.58a13.42,13.42,0,0,1-.72,1.76c-.46,1.09-1.06,2.6-1.61,4.31s-.93,3.29-1.18,4.44a16.86,16.86,0,0,1-.43,1.86s0-.18,0-.51.09-.81.19-1.39a34,34,0,0,1,1.11-4.49,34.59,34.59,0,0,1,1.7-4.31c.26-.53.48-1,.64-1.24A2.25,2.25,0,0,1,251.39,107.58Z" transform="translate(-44.85 -32.9)"/><path class="cls-3" d="M246.79,139.89a1.31,1.31,0,0,1-.32-.06l-.92-.22c-.39-.1-.88-.22-1.45-.33s-1.2-.27-1.93-.38-1.5-.26-2.35-.35-1.76-.18-2.72-.26a47.06,47.06,0,0,0-12.46.83c-.94.21-1.84.39-2.66.62s-1.59.44-2.29.66-1.31.44-1.86.63-1,.37-1.39.53l-.88.33a1.1,1.1,0,0,1-.31.1s.09-.06.29-.15l.85-.4c.38-.17.83-.37,1.38-.57s1.15-.46,1.85-.68,1.46-.48,2.29-.7,1.73-.43,2.67-.65a45,45,0,0,1,12.54-.84c1,.09,1.88.16,2.73.3s1.65.25,2.36.39,1.37.29,1.93.42,1.05.27,1.44.39l.9.27A1.41,1.41,0,0,1,246.79,139.89Z" transform="translate(-44.85 -32.9)"/><path class="cls-5" d="M262.56,149.88c-.14,0-.26-12-.26-26.91s.12-26.92.26-26.92.26,12,.26,26.92S262.7,149.88,262.56,149.88Z" transform="translate(-44.85 -32.9)"/><path class="cls-5" d="M320,149.46s.31,0,.9-.12a4.62,4.62,0,0,0,2.27-1.29,4.71,4.71,0,0,0,1-1.66,7,7,0,0,0,.2-2.34c0-1.72,0-3.7,0-5.93,0-8.94-.05-21.85-.08-37.81a7,7,0,0,0-.09-1.46,4.28,4.28,0,0,0-2.81-3.16,10.35,10.35,0,0,0-3.08-.22H301.42l-30,0-68.66,0a4.18,4.18,0,0,0-3.58,2,4.24,4.24,0,0,0-.6,2v11.21c0,5.93,0,11.78,0,17.52v16.9a4.19,4.19,0,0,0,1.82,3.28,4.14,4.14,0,0,0,1.78.69,18.8,18.8,0,0,0,2,0h8l56.08.05,37.81.09,10.28,0,2.67,0,.91,0s-.31,0-.91,0l-2.67,0-10.28.05-37.81.08-56.08.06h-8a18,18,0,0,1-2.06,0,4.58,4.58,0,0,1-2-.76,4.67,4.67,0,0,1-2-3.67q0-8.29,0-16.92V99.55A4.7,4.7,0,0,1,202.8,95l68.66,0,30,0,13.58,0h4.83a4.88,4.88,0,0,1,1.61.25,4.65,4.65,0,0,1,3.05,3.44,7.38,7.38,0,0,1,.1,1.54c0,16-.07,28.87-.09,37.81,0,2.23,0,4.21,0,5.93a7,7,0,0,1-.24,2.38,4.61,4.61,0,0,1-1,1.69,4.45,4.45,0,0,1-2.33,1.27A3.91,3.91,0,0,1,320,149.46Z" transform="translate(-44.85 -32.9)"/><path class="cls-5" d="M290.43,107.7c0,.14-5.17.26-11.54.26s-11.54-.12-11.54-.26,5.17-.26,11.54-.26S290.43,107.55,290.43,107.7Z" transform="translate(-44.85 -32.9)"/><path class="cls-5" d="M312.68,114.81c0,.14-10.2.26-22.78.26s-22.79-.12-22.79-.26,10.2-.26,22.79-.26S312.68,114.66,312.68,114.81Z" transform="translate(-44.85 -32.9)"/><path class="cls-5" d="M312.68,119c0,.15-10.2.26-22.78.26s-22.79-.11-22.79-.26,10.2-.26,22.79-.26S312.68,118.84,312.68,119Z" transform="translate(-44.85 -32.9)"/><path class="cls-5" d="M307.89,139.53a2.33,2.33,0,0,0-.56-1.27,2.21,2.21,0,0,0-1.15-.75,1.8,1.8,0,0,0-2,.87,1.75,1.75,0,0,0-.52-.6,1.82,1.82,0,0,0-1.4-.31,2.25,2.25,0,0,0-1.18.68,2.41,2.41,0,0,0-.63,1.25,2.8,2.8,0,0,0,.3,1.75,4.15,4.15,0,0,0,1.34,1.33l2.06,1.28s1-.73,1.94-1.24a4.06,4.06,0,0,0,1.41-1.26A2.82,2.82,0,0,0,307.89,139.53Z" transform="translate(-44.85 -32.9)"/><path class="cls-1" d="M304.14,143.91l-.07,0s-1.18-.72-2.05-1.28a4,4,0,0,1-1.39-1.37,3,3,0,0,1-.32-1.83,2.5,2.5,0,0,1,.67-1.31,2.3,2.3,0,0,1,1.25-.72,2,2,0,0,1,1.5.33,2.18,2.18,0,0,1,.45.46,1.91,1.91,0,0,1,2-.75,2.31,2.31,0,0,1,1.21.79,2.38,2.38,0,0,1,.59,1.34,2.92,2.92,0,0,1-.41,1.81,4.26,4.26,0,0,1-1.46,1.3c-.9.5-1.92,1.22-1.93,1.23Zm-1.56-6.35a1.53,1.53,0,0,0-.3,0,2.31,2.31,0,0,0-1.72,1.83,2.71,2.71,0,0,0,.29,1.67,3.88,3.88,0,0,0,1.3,1.28c.75.48,1.72,1.08,2,1.24.25-.17,1.11-.76,1.88-1.2a3.93,3.93,0,0,0,1.37-1.21,2.59,2.59,0,0,0,.38-1.65h0a2.12,2.12,0,0,0-.53-1.21,2,2,0,0,0-1.08-.71,1.69,1.69,0,0,0-1.87.81l-.11.2-.1-.2a1.89,1.89,0,0,0-.49-.56A1.77,1.77,0,0,0,302.58,137.56Z" transform="translate(-44.85 -32.9)"/><path class="cls-1" d="M318.4,142.52h-1.49l-3.69,0h0v0l-.08-.61c-.23-1.79-.43-3.39-.56-4.43l0,0-1,0h-.26c-.06,0-.09,0-.09,0h1.35c.14,1,.35,2.64.59,4.43,0,.21.05.41.08.61l0,0,3.69.05,1.09,0h.4Z" transform="translate(-44.85 -32.9)"/><path class="cls-1" d="M316.9,142.61l-3.71,0s-.07,0-.07-.06l-.08-.64-.56-4.35-1.15,0c-.11,0-.17,0-.17-.09s.07-.07.17-.08h1.24s.09,0,.09.06v0l.6,4.56c0,.13,0,.26.05.38l5,.08c.12,0,.18,0,.18.08s-.06.08-.18.08h-1.4Z" transform="translate(-44.85 -32.9)"/><path class="cls-1" d="M313.09,141.4h1.5l3.82,0,0,0c.12-.64.25-1.33.38-2.05l.2-1.08,0,0-4.51,0-1.33,0h1.33l4.51,0h0v0c-.06.35-.13.71-.2,1.08-.14.72-.27,1.42-.39,2.06v0h0l-3.82,0-1.11,0h-.39Z" transform="translate(-44.85 -32.9)"/><path class="cls-1" d="M318.44,141.56h0l-5.3-.08s-.1,0-.1-.08a.08.08,0,0,1,0-.05.08.08,0,0,1,.08,0h1.48l3.73,0,.54-2.91-6.15-.09s-.11,0-.11-.08.08-.08.11-.08h1.78l4.55,0,.06,0a.06.06,0,0,1,0,.06l-.21,1.12c-.08.46-.17.92-.25,1.36l-.14.72A.07.07,0,0,1,318.44,141.56Z" transform="translate(-44.85 -32.9)"/><path class="cls-1" d="M314.51,143.89s0,0,0-.12a.5.5,0,0,0-.19-.27.46.46,0,0,0-.46-.07.49.49,0,0,0-.33.45.51.51,0,0,0,.32.46.49.49,0,0,0,.46-.06.45.45,0,0,0,.19-.27c0-.07,0-.12,0-.12a.32.32,0,0,1,0,.13.57.57,0,0,1-.19.3.53.53,0,0,1-.51.08.55.55,0,0,1,0-1,.53.53,0,0,1,.51.09.49.49,0,0,1,.18.3A.32.32,0,0,1,314.51,143.89Z" transform="translate(-44.85 -32.9)"/><path class="cls-1" d="M314,144.51a.52.52,0,0,1-.21,0,.62.62,0,0,1-.41-.59.62.62,0,0,1,1-.48.64.64,0,0,1,.21.35.66.66,0,0,1,0,.14.31.31,0,0,1,0,.14.56.56,0,0,1-.21.35A.62.62,0,0,1,314,144.51Zm0-1-.14,0a.41.41,0,0,0-.27.38.43.43,0,0,0,.26.39.44.44,0,0,0,.4-.05.45.45,0,0,0,.16-.23l0-.08v0a.15.15,0,0,0,0-.08.4.4,0,0,0-.16-.23A.36.36,0,0,0,314,143.47Z" transform="translate(-44.85 -32.9)"/><path class="cls-1" d="M317.84,143.92s0,0,0-.12a.5.5,0,0,0-.19-.27.49.49,0,0,0-.46-.07.49.49,0,0,0-.32.45.47.47,0,0,0,.31.46.46.46,0,0,0,.46-.06.55.55,0,0,0,.2-.26c0-.08,0-.13,0-.13a.32.32,0,0,1,0,.13.45.45,0,0,1-.19.3.54.54,0,0,1-.87-.44.54.54,0,0,1,.37-.51.52.52,0,0,1,.51.09.49.49,0,0,1,.18.3A.32.32,0,0,1,317.84,143.92Z" transform="translate(-44.85 -32.9)"/><path class="cls-1" d="M317.31,144.54a.52.52,0,0,1-.21,0,.62.62,0,0,1,0-1.17.6.6,0,0,1,.59.1.64.64,0,0,1,.21.35.33.33,0,0,1,0,.14.75.75,0,0,1,0,.15.63.63,0,0,1-.22.34A.6.6,0,0,1,317.31,144.54Zm0-1a.36.36,0,0,0-.14,0,.42.42,0,0,0-.27.38.43.43,0,0,0,.26.39.43.43,0,0,0,.4-.05.39.39,0,0,0,.16-.23.13.13,0,0,0,0-.08v0h0a.64.64,0,0,1,0-.09.53.53,0,0,0-.16-.23A.4.4,0,0,0,317.32,143.51Z" transform="translate(-44.85 -32.9)"/><path class="cls-1" d="M320.2,137.81a1.48,1.48,0,1,1-1.47-1.5A1.48,1.48,0,0,1,320.2,137.81Z" transform="translate(-44.85 -32.9)"/><path class="cls-2" d="M318.76,138.6s0,0,0,0h0a5.18,5.18,0,0,1,0-.75,4,4,0,0,1,.06-.78,2.78,2.78,0,0,1,0,.78,6.26,6.26,0,0,1-.05.75h0A.06.06,0,0,1,318.76,138.6Z" transform="translate(-44.85 -32.9)"/><path class="cls-2" d="M319.56,137.9a4.12,4.12,0,0,1-.78,0,2.75,2.75,0,0,1-.77-.07,4,4,0,0,1,.77,0A2.93,2.93,0,0,1,319.56,137.9Z" transform="translate(-44.85 -32.9)"/><path class="cls-5" d="M289.62,141.25c0,.14-4.7.26-10.5.26s-10.49-.12-10.49-.26,4.7-.26,10.49-.26S289.62,141.11,289.62,141.25Z" transform="translate(-44.85 -32.9)"/><rect class="cls-4" x="153.51" y="125.01" width="126.05" height="54.18" rx="4.43"/><path class="cls-2" d="M157.5,125.11h60.07a0,0,0,0,1,0,0v54.09a0,0,0,0,1,0,0H157.5a4,4,0,0,1-4-4V129.1A4,4,0,0,1,157.5,125.11Z"/><path class="cls-3" d="M262.56,212.51c-.14,0-.26-12-.26-26.91s.12-26.92.26-26.92.26,12,.26,26.92S262.7,212.51,262.56,212.51Z" transform="translate(-44.85 -32.9)"/><path class="cls-3" d="M320,212.09s.31,0,.9-.12a4.46,4.46,0,0,0,2.27-1.29,4.63,4.63,0,0,0,1-1.66,6.92,6.92,0,0,0,.2-2.33c0-1.73,0-3.71,0-5.94,0-8.94-.05-21.85-.08-37.81a7.08,7.08,0,0,0-.09-1.46,4.28,4.28,0,0,0-2.81-3.16,10.36,10.36,0,0,0-3.08-.21H301.42l-30,0-68.66,0a4.2,4.2,0,0,0-3.58,2,4.24,4.24,0,0,0-.6,2v11.21q0,8.91,0,17.52v16.9a4.19,4.19,0,0,0,3.6,4c.62.08,1.33,0,2,0h8l56.08.06,37.81.08,10.28,0,2.67,0,.91,0-.91,0-2.67,0-10.28.05-37.81.08-56.08.06h-8a20.51,20.51,0,0,1-2.06,0,4.66,4.66,0,0,1-4-4.44q0-8.29,0-16.92V162.19a4.7,4.7,0,0,1,4.7-4.54l68.66,0,30,0,13.58,0h4.83a4.88,4.88,0,0,1,1.61.25,4.64,4.64,0,0,1,3.05,3.45,7.29,7.29,0,0,1,.1,1.53c0,16-.07,28.87-.09,37.81,0,2.23,0,4.21,0,5.94a7,7,0,0,1-.24,2.37,4.61,4.61,0,0,1-1,1.69,4.45,4.45,0,0,1-2.33,1.27A3.3,3.3,0,0,1,320,212.09Z" transform="translate(-44.85 -32.9)"/><path class="cls-1" d="M290.43,170.33c0,.14-5.17.26-11.54.26s-11.54-.12-11.54-.26,5.17-.26,11.54-.26S290.43,170.18,290.43,170.33Z" transform="translate(-44.85 -32.9)"/><path class="cls-3" d="M312.68,177.44c0,.14-10.2.26-22.78.26s-22.79-.12-22.79-.26,10.2-.26,22.79-.26S312.68,177.3,312.68,177.44Z" transform="translate(-44.85 -32.9)"/><path class="cls-3" d="M312.68,181.61c0,.15-10.2.26-22.78.26s-22.79-.11-22.79-.26,10.2-.26,22.79-.26S312.68,181.47,312.68,181.61Z" transform="translate(-44.85 -32.9)"/><path class="cls-5" d="M307.89,202.17a2.36,2.36,0,0,0-.56-1.28,2.21,2.21,0,0,0-1.15-.75,1.8,1.8,0,0,0-1.41.24,1.9,1.9,0,0,0-.6.63,1.64,1.64,0,0,0-.52-.59,1.82,1.82,0,0,0-1.4-.32,2.32,2.32,0,0,0-1.18.68,2.41,2.41,0,0,0-.63,1.25,2.79,2.79,0,0,0,.3,1.75,4.15,4.15,0,0,0,1.34,1.33c.89.57,2.06,1.28,2.06,1.28s1-.72,1.94-1.24a4.14,4.14,0,0,0,1.41-1.25A2.83,2.83,0,0,0,307.89,202.17Z" transform="translate(-44.85 -32.9)"/><path class="cls-1" d="M304.14,206.54l-.07,0s-1.18-.71-2.05-1.28a4,4,0,0,1-1.39-1.37,3,3,0,0,1-.32-1.83,2.5,2.5,0,0,1,.67-1.31,2.36,2.36,0,0,1,1.25-.72,2,2,0,0,1,1.5.33,2.24,2.24,0,0,1,.45.47,1.8,1.8,0,0,1,.52-.51,2,2,0,0,1,1.51-.25,2.29,2.29,0,0,1,1.21.79,2.37,2.37,0,0,1,.59,1.35,2.9,2.9,0,0,1-.41,1.8,4.16,4.16,0,0,1-1.46,1.3c-.9.51-1.92,1.22-1.93,1.23Zm-1.56-6.35a1.53,1.53,0,0,0-.3,0,2.16,2.16,0,0,0-1.12.65,2.19,2.19,0,0,0-.6,1.18,2.7,2.7,0,0,0,.29,1.67,3.79,3.79,0,0,0,1.3,1.28c.75.48,1.72,1.08,2,1.24.25-.17,1.11-.76,1.88-1.2a3.74,3.74,0,0,0,1.37-1.21,2.59,2.59,0,0,0,.38-1.65h0a2.12,2.12,0,0,0-.53-1.21,2,2,0,0,0-1.08-.71,1.68,1.68,0,0,0-1.31.22,1.76,1.76,0,0,0-.56.59l-.11.2-.1-.2a1.73,1.73,0,0,0-.49-.55A1.71,1.71,0,0,0,302.58,200.19Z" transform="translate(-44.85 -32.9)"/><path class="cls-1" d="M318.4,205.15h-1.49l-3.69,0h0v0l-.08-.61c-.23-1.79-.43-3.38-.56-4.43l0,0-1,0h1v0l.59,4.42c0,.21.05.42.08.61l0,0,3.69.05,1.09,0h.4Z" transform="translate(-44.85 -32.9)"/><path class="cls-1" d="M316.9,205.24l-3.71,0a.07.07,0,0,1-.07-.06l-.64-5-1.15,0c-.1,0-.17,0-.17-.08s.07-.08.17-.08h1.24s.09,0,.09.07v0l.6,4.54c0,.13,0,.27.05.4l5,.07c.12,0,.18,0,.18.09s-.06.07-.18.08h-1.4Z" transform="translate(-44.85 -32.9)"/><path class="cls-1" d="M313.09,204h1.5l3.82,0,0,0c.12-.65.25-1.34.38-2.06.07-.37.14-.73.2-1.08l0,0-4.51,0-1.33,0h1.33l4.51,0h0v0c-.06.34-.13.71-.2,1.07-.14.72-.27,1.42-.39,2.06v0h0l-3.82-.05-1.11,0h-.39Z" transform="translate(-44.85 -32.9)"/><path class="cls-1" d="M318.44,204.19h0l-5.3-.08c-.08,0-.1-.05-.1-.08a.08.08,0,0,1,0-.05s0,0,.08,0h1.48l3.73,0,.54-2.91-6.15-.09s-.11,0-.11-.08.08-.08.11-.08h1.78l4.55,0,.06,0a.07.07,0,0,1,0,.06l-.21,1.12c-.08.46-.17.91-.25,1.34l-.14.74S318.48,204.19,318.44,204.19Z" transform="translate(-44.85 -32.9)"/><path class="cls-1" d="M314.51,206.52s0,0,0-.12a.5.5,0,0,0-.19-.27.49.49,0,0,0-.79.38.5.5,0,0,0,.32.46.49.49,0,0,0,.46-.06.47.47,0,0,0,.19-.26c0-.08,0-.13,0-.13a.32.32,0,0,1,0,.13.54.54,0,0,1-.19.3.54.54,0,0,1-.87-.44.54.54,0,0,1,.37-.51.53.53,0,0,1,.51.09.49.49,0,0,1,.18.3A.32.32,0,0,1,314.51,206.52Z" transform="translate(-44.85 -32.9)"/><path class="cls-1" d="M314,207.14a.52.52,0,0,1-.21,0,.61.61,0,0,1-.41-.59.62.62,0,0,1,.42-.58.6.6,0,0,1,.59.1.64.64,0,0,1,.21.35.66.66,0,0,1,0,.14.35.35,0,0,1,0,.15.54.54,0,0,1-.21.34A.62.62,0,0,1,314,207.14Zm0-1a.36.36,0,0,0-.14,0,.42.42,0,0,0-.27.38.42.42,0,0,0,.26.39.44.44,0,0,0,.4-.05.39.39,0,0,0,.16-.23.31.31,0,0,0,0-.08v0h0a.18.18,0,0,0,0-.09.4.4,0,0,0-.16-.23A.36.36,0,0,0,314,206.11Z" transform="translate(-44.85 -32.9)"/><path class="cls-1" d="M317.84,206.55s0,0,0-.12a.58.58,0,0,0-.19-.27.52.52,0,0,0-.46-.07.49.49,0,0,0-.32.45.47.47,0,0,0,.31.46.46.46,0,0,0,.46-.06.55.55,0,0,0,.2-.26c0-.08,0-.13,0-.13a.32.32,0,0,1,0,.13.43.43,0,0,1-.19.3.5.5,0,0,1-.51.08.53.53,0,0,1-.36-.52.54.54,0,0,1,.37-.51.52.52,0,0,1,.51.09.49.49,0,0,1,.18.3A.31.31,0,0,1,317.84,206.55Z" transform="translate(-44.85 -32.9)"/><path class="cls-1" d="M317.31,207.17a.52.52,0,0,1-.21,0,.62.62,0,0,1,0-1.17.6.6,0,0,1,.59.1.64.64,0,0,1,.21.35.38.38,0,0,1,0,.15.65.65,0,0,1,0,.14.63.63,0,0,1-.22.34A.6.6,0,0,1,317.31,207.17Zm0-1a.36.36,0,0,0-.14,0,.44.44,0,0,0-.27.39.4.4,0,0,0,.26.38.38.38,0,0,0,.4-.05.4.4,0,0,0,.16-.22.18.18,0,0,0,0-.09v0h0a.64.64,0,0,1,0-.09.53.53,0,0,0-.16-.23A.47.47,0,0,0,317.32,206.14Z" transform="translate(-44.85 -32.9)"/><path class="cls-1" d="M320.2,200.44a1.48,1.48,0,1,1-1.47-1.49A1.48,1.48,0,0,1,320.2,200.44Z" transform="translate(-44.85 -32.9)"/><path class="cls-2" d="M318.76,201.23s0,0,0,0h0a5.18,5.18,0,0,1,0-.75,4,4,0,0,1,.06-.78,2.78,2.78,0,0,1,0,.78,6.26,6.26,0,0,1-.05.75h0A.1.1,0,0,1,318.76,201.23Z" transform="translate(-44.85 -32.9)"/><path class="cls-2" d="M319.56,200.53a4.12,4.12,0,0,1-.78,0,3.7,3.7,0,0,1-.77-.06,2.9,2.9,0,0,1,.77,0A3.53,3.53,0,0,1,319.56,200.53Z" transform="translate(-44.85 -32.9)"/><path class="cls-1" d="M289.62,203.88a103.91,103.91,0,0,1-10.5.26,103.78,103.78,0,0,1-10.49-.26c0-.14,4.7-.26,10.49-.26S289.62,203.74,289.62,203.88Z" transform="translate(-44.85 -32.9)"/><rect class="cls-4" x="153.51" y="186.87" width="126.05" height="54.18" rx="4.43"/><path class="cls-2" d="M157.5,187h60.07a0,0,0,0,1,0,0V241a0,0,0,0,1,0,0H157.5a4,4,0,0,1-4-4V191A4,4,0,0,1,157.5,187Z"/><path class="cls-3" d="M262.56,274.37c-.14,0-.26-12.05-.26-26.91s.12-26.92.26-26.92.26,12.05.26,26.92S262.7,274.37,262.56,274.37Z" transform="translate(-44.85 -32.9)"/><path class="cls-3" d="M320,274s.31,0,.9-.12a4.46,4.46,0,0,0,3.25-2.95,7,7,0,0,0,.2-2.34c0-1.72,0-3.7,0-5.93,0-8.94-.05-21.85-.08-37.81a7,7,0,0,0-.09-1.46,4.28,4.28,0,0,0-2.81-3.16,10.35,10.35,0,0,0-3.08-.22H301.42l-30,0-68.66,0a4.17,4.17,0,0,0-4.18,4v11.21c0,5.93,0,11.78,0,17.52v16.9a4.19,4.19,0,0,0,1.82,3.28,4.14,4.14,0,0,0,1.78.69c.62.07,1.33,0,2,0h8l56.08.05,37.81.09,10.28,0,2.67,0,.91,0-.91,0-2.67,0-10.28.05-37.81.08-56.08.06h-8a18,18,0,0,1-2.06-.05,4.63,4.63,0,0,1-4-4.43q0-8.29,0-16.92V224a4.7,4.7,0,0,1,4.7-4.53l68.66,0,30,0h18.41a4.88,4.88,0,0,1,1.61.25,4.65,4.65,0,0,1,3.05,3.44,7.38,7.38,0,0,1,.1,1.54c0,16-.07,28.87-.09,37.81,0,2.23,0,4.21,0,5.93a7,7,0,0,1-.24,2.38,4.7,4.7,0,0,1-1,1.69,4.53,4.53,0,0,1-2.33,1.27A3.91,3.91,0,0,1,320,274Z" transform="translate(-44.85 -32.9)"/><path class="cls-1" d="M290.43,232.18c0,.15-5.17.27-11.54.27s-11.54-.12-11.54-.27,5.17-.26,11.54-.26S290.43,232,290.43,232.18Z" transform="translate(-44.85 -32.9)"/><path class="cls-3" d="M312.68,239.3c0,.14-10.2.26-22.78.26s-22.79-.12-22.79-.26,10.2-.26,22.79-.26S312.68,239.15,312.68,239.3Z" transform="translate(-44.85 -32.9)"/><path class="cls-3" d="M312.68,243.47c0,.14-10.2.26-22.78.26s-22.79-.12-22.79-.26,10.2-.26,22.79-.26S312.68,243.33,312.68,243.47Z" transform="translate(-44.85 -32.9)"/><path class="cls-5" d="M307.89,264a2.39,2.39,0,0,0-.56-1.28,2.26,2.26,0,0,0-1.15-.74,1.8,1.8,0,0,0-2,.87,1.67,1.67,0,0,0-.52-.6,1.82,1.82,0,0,0-1.4-.31,2.18,2.18,0,0,0-1.18.68,2.37,2.37,0,0,0-.63,1.25,2.8,2.8,0,0,0,.3,1.75,4.15,4.15,0,0,0,1.34,1.33l2.06,1.28s1-.73,1.94-1.24a4.06,4.06,0,0,0,1.41-1.26A2.83,2.83,0,0,0,307.89,264Z" transform="translate(-44.85 -32.9)"/><path class="cls-1" d="M304.14,268.39l-.07,0s-1.18-.72-2.05-1.28a4.14,4.14,0,0,1-1.39-1.37,3,3,0,0,1-.32-1.83,2.47,2.47,0,0,1,.67-1.31,2.37,2.37,0,0,1,1.25-.73,2,2,0,0,1,1.5.34,2.18,2.18,0,0,1,.45.46,1.9,1.9,0,0,1,.52-.5,2,2,0,0,1,1.51-.26,2.37,2.37,0,0,1,1.21.79A2.43,2.43,0,0,1,308,264a2.92,2.92,0,0,1-.41,1.81,4.14,4.14,0,0,1-1.46,1.29c-.9.51-1.92,1.23-1.93,1.24Zm-1.56-6.34-.3,0a2.09,2.09,0,0,0-1.12.65,2.17,2.17,0,0,0-.6,1.17,2.69,2.69,0,0,0,.29,1.67,3.81,3.81,0,0,0,1.3,1.29c.75.48,1.72,1.07,2,1.24.25-.17,1.11-.76,1.88-1.2a3.93,3.93,0,0,0,1.37-1.21,2.6,2.6,0,0,0,.38-1.66h0a2.12,2.12,0,0,0-.53-1.2,2,2,0,0,0-1.08-.71,1.69,1.69,0,0,0-1.87.81l-.11.19-.1-.19a1.77,1.77,0,0,0-.49-.56A1.7,1.7,0,0,0,302.58,262.05Z" transform="translate(-44.85 -32.9)"/><path class="cls-1" d="M318.4,267h-1.49l-3.69,0h0v0l-.08-.61c-.23-1.79-.43-3.39-.56-4.43l0,0-1,0h1v0c.14,1.05.35,2.64.59,4.43,0,.21.05.41.08.61l0,0,3.69,0,1.09,0h.4Z" transform="translate(-44.85 -32.9)"/><path class="cls-1" d="M316.9,267.1l-3.71,0s-.07,0-.07-.06l-.64-5-1.15,0c-.1,0-.17,0-.17-.09s.07-.07.17-.08h1.24s.09,0,.09.06v0l.6,4.55c0,.14,0,.27.05.39l5,.08c.12,0,.18,0,.18.08s-.06.08-.18.08h-1.4Z" transform="translate(-44.85 -32.9)"/><path class="cls-1" d="M313.09,265.89h1.5l3.82,0,0,0c.12-.64.25-1.33.38-2.05l.2-1.08,0,0-4.51,0-1.33,0h1.33l4.51,0h0v0c-.06.35-.13.71-.2,1.08-.14.72-.27,1.41-.39,2.06v0h0l-3.82-.05-1.11,0h-.39Z" transform="translate(-44.85 -32.9)"/><path class="cls-1" d="M318.44,266.05h0l-3.82-.05-1.11,0h-.37c-.07,0-.1,0-.1-.08a.08.08,0,0,1,0-.05.08.08,0,0,1,.08,0h1.48l3.73,0,.54-2.92-5-.06h-.7l-.45,0c-.07,0-.11,0-.11-.07s.08-.08.1-.08h.46l2.65,0,3.23,0,.06,0a.06.06,0,0,1,0,.06l-.21,1.12-.39,2.08A.07.07,0,0,1,318.44,266.05Z" transform="translate(-44.85 -32.9)"/><path class="cls-1" d="M314.51,268.38s0-.05,0-.12a.5.5,0,0,0-.19-.27.46.46,0,0,0-.46-.07.49.49,0,0,0-.33.45.51.51,0,0,0,.32.46.49.49,0,0,0,.46-.06.45.45,0,0,0,.19-.27c0-.07,0-.12,0-.12a.32.32,0,0,1,0,.13.57.57,0,0,1-.19.3.56.56,0,0,1-.51.08.55.55,0,0,1-.36-.52.54.54,0,0,1,.88-.42.47.47,0,0,1,.18.3A.32.32,0,0,1,314.51,268.38Z" transform="translate(-44.85 -32.9)"/><path class="cls-1" d="M314,269a.52.52,0,0,1-.21,0,.62.62,0,0,1,0-1.17.6.6,0,0,1,.59.1.61.61,0,0,1,.21.35.33.33,0,0,1,0,.14.31.31,0,0,1,0,.14.56.56,0,0,1-.21.35A.62.62,0,0,1,314,269Zm0-1-.14,0a.41.41,0,0,0-.27.38.43.43,0,0,0,.26.39.44.44,0,0,0,.4-.05.45.45,0,0,0,.16-.23.51.51,0,0,0,0-.09h0v0a.13.13,0,0,0,0-.08.35.35,0,0,0-.16-.23A.36.36,0,0,0,314,268Z" transform="translate(-44.85 -32.9)"/><path class="cls-1" d="M317.84,268.41s0,0,0-.12a.5.5,0,0,0-.19-.27.49.49,0,0,0-.46-.07.49.49,0,0,0-.32.45.48.48,0,0,0,.77.4.53.53,0,0,0,.2-.27c0-.07,0-.12,0-.12a.32.32,0,0,1,0,.13.47.47,0,0,1-.19.3.53.53,0,0,1-.51.08.54.54,0,0,1-.36-.52.54.54,0,0,1,.37-.51.52.52,0,0,1,.51.09.49.49,0,0,1,.18.3A.32.32,0,0,1,317.84,268.41Z" transform="translate(-44.85 -32.9)"/><path class="cls-1" d="M317.31,269a.52.52,0,0,1-.21,0,.63.63,0,0,1-.41-.59.62.62,0,0,1,.42-.58.61.61,0,0,1,.59.1.64.64,0,0,1,.21.35.65.65,0,0,1,0,.14.75.75,0,0,1,0,.15.63.63,0,0,1-.22.34A.6.6,0,0,1,317.31,269Zm0-1-.14,0a.41.41,0,0,0-.27.38.43.43,0,0,0,.26.39.44.44,0,0,0,.4-.05.42.42,0,0,0,.16-.23.17.17,0,0,0,0-.08v0h0a.64.64,0,0,1,0-.09.48.48,0,0,0-.16-.23A.41.41,0,0,0,317.32,268Z" transform="translate(-44.85 -32.9)"/><path class="cls-1" d="M320.2,262.29a1.48,1.48,0,1,1-1.47-1.49A1.49,1.49,0,0,1,320.2,262.29Z" transform="translate(-44.85 -32.9)"/><path class="cls-2" d="M318.76,263.09s0,0,0,0h0a5.28,5.28,0,0,1,0-.75,4,4,0,0,1,.06-.78,2.78,2.78,0,0,1,0,.78,6.26,6.26,0,0,1-.05.75h0A.06.06,0,0,1,318.76,263.09Z" transform="translate(-44.85 -32.9)"/><path class="cls-2" d="M319.56,262.38a3,3,0,0,1-.78,0,3.3,3.3,0,0,1-.77-.07,7.56,7.56,0,0,1,1.55,0Z" transform="translate(-44.85 -32.9)"/><path class="cls-1" d="M289.62,265.74c0,.14-4.7.26-10.5.26s-10.49-.12-10.49-.26,4.7-.26,10.49-.26S289.62,265.6,289.62,265.74Z" transform="translate(-44.85 -32.9)"/><rect class="cls-4" x="153.51" y="249.11" width="126.05" height="54.18" rx="4.43"/><path class="cls-2" d="M157.5,249.21h60.07a0,0,0,0,1,0,0v54.09a0,0,0,0,1,0,0H157.5a4,4,0,0,1-4-4V253.2A4,4,0,0,1,157.5,249.21Z"/><path class="cls-3" d="M262.56,336.61c-.14,0-.26-12.05-.26-26.91s.12-26.91.26-26.91.26,12,.26,26.91S262.7,336.61,262.56,336.61Z" transform="translate(-44.85 -32.9)"/><path class="cls-3" d="M320,336.19s.31,0,.9-.12a4.46,4.46,0,0,0,2.27-1.29,4.63,4.63,0,0,0,1-1.66,6.92,6.92,0,0,0,.2-2.33c0-1.72,0-3.71,0-5.94,0-8.94-.05-21.85-.08-37.8a7.13,7.13,0,0,0-.09-1.47,4.1,4.1,0,0,0-.54-1.34,4.16,4.16,0,0,0-2.27-1.81,10,10,0,0,0-3.08-.22H315l-13.58,0-30,0-68.66,0a4.2,4.2,0,0,0-3.58,2,4.24,4.24,0,0,0-.6,2v11.22q0,8.89,0,17.51v16.9a4.21,4.21,0,0,0,1.82,3.29,4.26,4.26,0,0,0,1.78.68c.62.08,1.33,0,2,.05h8l56.08.06,37.81.08,10.28.05,2.67,0,.91,0-.91,0-2.67,0-10.28.05-37.81.09-56.08.05h-8c-.68,0-1.33,0-2.06-.05a4.66,4.66,0,0,1-4-4.44c0-5.52,0-11.17,0-16.92V286.29a4.7,4.7,0,0,1,4.7-4.54l68.66,0,30,0,13.58,0h4.83a4.61,4.61,0,0,1,4.08,2.22,4.56,4.56,0,0,1,.58,1.47,7.38,7.38,0,0,1,.1,1.54c0,15.95-.07,28.86-.09,37.8,0,2.23,0,4.22,0,5.94a7,7,0,0,1-.24,2.37,4.53,4.53,0,0,1-1,1.69,4.38,4.38,0,0,1-2.33,1.27A3.3,3.3,0,0,1,320,336.19Z" transform="translate(-44.85 -32.9)"/><path class="cls-1" d="M290.43,294.43c0,.14-5.17.26-11.54.26s-11.54-.12-11.54-.26,5.17-.26,11.54-.26S290.43,294.29,290.43,294.43Z" transform="translate(-44.85 -32.9)"/><path class="cls-3" d="M312.68,301.54c0,.15-10.2.26-22.78.26s-22.79-.11-22.79-.26,10.2-.26,22.79-.26S312.68,301.4,312.68,301.54Z" transform="translate(-44.85 -32.9)"/><path class="cls-3" d="M312.68,305.72c0,.14-10.2.26-22.78.26s-22.79-.12-22.79-.26,10.2-.27,22.79-.27S312.68,305.57,312.68,305.72Z" transform="translate(-44.85 -32.9)"/><path class="cls-5" d="M307.89,326.27a2.36,2.36,0,0,0-.56-1.28,2.21,2.21,0,0,0-1.15-.75,1.8,1.8,0,0,0-1.41.24,1.9,1.9,0,0,0-.6.63,1.64,1.64,0,0,0-.52-.59,1.82,1.82,0,0,0-1.4-.32,2.27,2.27,0,0,0-1.18.69,2.34,2.34,0,0,0-.63,1.24,2.79,2.79,0,0,0,.3,1.75,4.06,4.06,0,0,0,1.34,1.33c.89.57,2.06,1.28,2.06,1.28s1-.72,1.94-1.24a4.14,4.14,0,0,0,1.41-1.25A2.83,2.83,0,0,0,307.89,326.27Z" transform="translate(-44.85 -32.9)"/><path class="cls-1" d="M304.14,330.64l-.07,0s-1.18-.72-2.05-1.28a4.07,4.07,0,0,1-1.39-1.38,3,3,0,0,1-.32-1.83,2.5,2.5,0,0,1,.67-1.31,2.36,2.36,0,0,1,1.25-.72,1.94,1.94,0,0,1,1.95.8,1.89,1.89,0,0,1,2-.76,2.29,2.29,0,0,1,1.21.79,2.37,2.37,0,0,1,.59,1.35h0a2.9,2.9,0,0,1-.41,1.8,4.16,4.16,0,0,1-1.46,1.3c-.9.51-1.92,1.22-1.93,1.23Zm-1.56-6.34-.3,0a2.16,2.16,0,0,0-1.12.65,2.19,2.19,0,0,0-.6,1.18,2.69,2.69,0,0,0,.29,1.67,3.79,3.79,0,0,0,1.3,1.28c.75.49,1.72,1.08,2,1.24.25-.17,1.11-.76,1.88-1.2a3.74,3.74,0,0,0,1.37-1.21,2.59,2.59,0,0,0,.38-1.65h0a2.3,2.3,0,0,0-1.61-1.92,1.72,1.72,0,0,0-1.31.22,1.76,1.76,0,0,0-.56.59l-.11.2-.1-.2a1.73,1.73,0,0,0-.49-.55A1.7,1.7,0,0,0,302.58,324.3Z" transform="translate(-44.85 -32.9)"/><path class="cls-1" d="M318.4,329.26h-1.49l-3.69,0h0v0l-.08-.61c-.23-1.79-.43-3.38-.56-4.43l0,0-1,0h1v0l.59,4.42c0,.21.05.42.08.61l0,0,3.69.05,1.09,0h.4Z" transform="translate(-44.85 -32.9)"/><path class="cls-1" d="M316.9,329.34l-3.71,0a.08.08,0,0,1-.07-.07l-.64-5-.89,0h-.26c-.1,0-.17,0-.17-.08s.06-.08.17-.08h1.24s.09,0,.09.07v0l.6,4.53c0,.14,0,.27.05.41l5,.07c.12,0,.18,0,.18.09s-.06.07-.18.08h-1.4Z" transform="translate(-44.85 -32.9)"/><path class="cls-1" d="M313.09,328.13h1.5l3.82,0,0,0c.12-.64.25-1.34.38-2.06L319,325l0,0-4.51-.06-1.33,0h1.33l4.51,0h0v0c-.06.34-.13.71-.2,1.08-.14.71-.27,1.41-.39,2.05v0h0l-3.82-.05-1.11,0h-.39Z" transform="translate(-44.85 -32.9)"/><path class="cls-1" d="M318.44,328.29h0l-5.3-.08s-.1,0-.1-.08a.08.08,0,0,1,0-.05.12.12,0,0,1,.08,0h1.48l3.73,0,.54-2.92-5.77-.08h-.38s-.11,0-.11-.08,0-.08.11-.08h1.78l4.55,0,.06,0a.07.07,0,0,1,0,.06l-.21,1.12c-.08.46-.17.91-.25,1.35l-.14.73S318.48,328.29,318.44,328.29Z" transform="translate(-44.85 -32.9)"/><path class="cls-1" d="M314.51,330.62s0,0,0-.12a.5.5,0,0,0-.19-.27.49.49,0,0,0-.79.38.5.5,0,0,0,.32.46.5.5,0,0,0,.65-.32c0-.08,0-.13,0-.13a.32.32,0,0,1,0,.13.54.54,0,0,1-.19.3.5.5,0,0,1-.51.08.53.53,0,0,1-.36-.52.54.54,0,0,1,.37-.51.53.53,0,0,1,.51.09.49.49,0,0,1,.18.3A.32.32,0,0,1,314.51,330.62Z" transform="translate(-44.85 -32.9)"/><path class="cls-1" d="M314,331.24a.52.52,0,0,1-.21,0,.61.61,0,0,1-.41-.59.62.62,0,0,1,1-.48.64.64,0,0,1,.21.35.33.33,0,0,1,0,.14.35.35,0,0,1,0,.15.54.54,0,0,1-.21.34A.62.62,0,0,1,314,331.24Zm0-1a.36.36,0,0,0-.14,0,.42.42,0,0,0-.27.38.42.42,0,0,0,.26.39.44.44,0,0,0,.4-.05.39.39,0,0,0,.16-.23.31.31,0,0,0,0-.08v0h0a.18.18,0,0,0,0-.09.4.4,0,0,0-.16-.23A.41.41,0,0,0,314,330.21Z" transform="translate(-44.85 -32.9)"/><path class="cls-1" d="M317.84,330.66s0-.05,0-.13a.58.58,0,0,0-.19-.27.52.52,0,0,0-.46-.07.49.49,0,0,0,0,.92.51.51,0,0,0,.46-.06.62.62,0,0,0,.2-.27c0-.08,0-.12,0-.12a.32.32,0,0,1,0,.13.47.47,0,0,1-.19.3.56.56,0,0,1-.51.08.55.55,0,0,1-.36-.52.56.56,0,0,1,.37-.52.52.52,0,0,1,.51.09.48.48,0,0,1,.18.31A.32.32,0,0,1,317.84,330.66Z" transform="translate(-44.85 -32.9)"/><path class="cls-1" d="M317.31,331.27l-.21,0a.63.63,0,0,1-.41-.6.63.63,0,0,1,.42-.58.6.6,0,0,1,.59.11.59.59,0,0,1,.21.34.38.38,0,0,1,0,.15.65.65,0,0,1,0,.14.63.63,0,0,1-.22.34A.6.6,0,0,1,317.31,331.27Zm0-1-.14,0a.44.44,0,0,0-.27.39.43.43,0,0,0,.26.39.44.44,0,0,0,.56-.28.18.18,0,0,0,0-.09v0h0a.64.64,0,0,1,0-.09.53.53,0,0,0-.16-.23A.47.47,0,0,0,317.32,330.24Z" transform="translate(-44.85 -32.9)"/><path class="cls-1" d="M320.2,324.54a1.48,1.48,0,1,1-1.47-1.49A1.48,1.48,0,0,1,320.2,324.54Z" transform="translate(-44.85 -32.9)"/><path class="cls-2" d="M318.76,325.34s0,0,0,0h0a5.18,5.18,0,0,1,0-.75,3.8,3.8,0,0,1,.06-.77,2.78,2.78,0,0,1,0,.78,6.22,6.22,0,0,1-.05.74h0A0,0,0,0,1,318.76,325.34Z" transform="translate(-44.85 -32.9)"/><path class="cls-2" d="M319.56,324.63a4.12,4.12,0,0,1-.78,0,3.7,3.7,0,0,1-.77-.06,2.69,2.69,0,0,1,.77,0A4,4,0,0,1,319.56,324.63Z" transform="translate(-44.85 -32.9)"/><path class="cls-1" d="M289.62,328a103.91,103.91,0,0,1-10.5.26,103.78,103.78,0,0,1-10.49-.26c0-.14,4.7-.26,10.49-.26S289.62,327.84,289.62,328Z" transform="translate(-44.85 -32.9)"/><path class="cls-1" d="M214.78,171.51s-8,18.39-7.57,28.38l20.73,6.24,3.54-6.73,3,6.73s16-3.91,20.36-7.82c0,0-4.24-21.5-7.55-26.72,0,0,2.06-4.34.46-4.56s-4.2.22-6.16,0-2.61.31-5-.06-2.18,2.67-5.11,2-2.94-1.28-6-2.05-4.76,1.65-6.7,1a29.91,29.91,0,0,0-4.23-.91,2.12,2.12,0,0,0-2.43,1.62.75.75,0,0,0,.55,1A3.38,3.38,0,0,1,214.78,171.51Z" transform="translate(-44.85 -32.9)"/><path class="cls-1" d="M243,167.32a3.88,3.88,0,0,1-.44,2.36,4,4,0,0,1-1.52,1.86,20.88,20.88,0,0,0,1.25-2A19,19,0,0,0,243,167.32Z" transform="translate(-44.85 -32.9)"/><path class="cls-7" d="M231.24,181.24a2.29,2.29,0,0,1-.33-.35l-.86-1-3-3.55h.2l-4,5v-.19l.11.14,3.92,5.09h-.2l3-3.71c.35-.43.63-.78.86-1a2.39,2.39,0,0,1,.33-.38,4,4,0,0,1-.25.38l-.79,1.07-2.9,3.84-.1.14-.1-.14-4-5.06-.1-.14-.07-.09.07-.09,4.06-5,.1-.13.1.13,2.9,3.69.79,1A4.31,4.31,0,0,1,231.24,181.24Z" transform="translate(-44.85 -32.9)"/><path class="cls-7" d="M246.37,178.06a4.1,4.1,0,0,1-.33-.36l-.85-1-3-3.56h.2l-4,5V178l.11.13,3.92,5.09h-.2l3-3.71.86-1a3.59,3.59,0,0,1,.33-.37,2.13,2.13,0,0,1-.25.37l-.79,1.07-2.9,3.85-.1.13-.1-.13-4-5.07-.1-.13-.07-.1.07-.09,4.06-5,.1-.12.1.12,2.9,3.69.79,1A2.89,2.89,0,0,1,246.37,178.06Z" transform="translate(-44.85 -32.9)"/><path class="cls-7" d="M235.21,167.32a26.44,26.44,0,0,1,2.56,3.06h-.21v0l0,0,.07-.08.12-.16.25-.31.46-.59.8-1a4.53,4.53,0,0,1,.8-.86,4.41,4.41,0,0,1-.63,1l-.75,1q-.22.28-.45.6l-.25.31-.12.16-.06.08,0,0,0,0h-.25A27.92,27.92,0,0,1,235.21,167.32Z" transform="translate(-44.85 -32.9)"/><path class="cls-7" d="M220.42,171.54a5.24,5.24,0,0,1-.86-.92c-.5-.59-1.18-1.41-1.91-2.33l-.17-.22.24,0c-.57,1-1.09,1.81-1.48,2.42a5.25,5.25,0,0,1-.67.94,4.18,4.18,0,0,1,.5-1c.34-.64.83-1.5,1.4-2.47l.11-.18.13.17.17.21c.73.93,1.38,1.77,1.84,2.39A5.27,5.27,0,0,1,220.42,171.54Z" transform="translate(-44.85 -32.9)"/><path class="cls-7" d="M241.36,194a2.8,2.8,0,0,1-.33-.36l-.86-1-2.95-3.56h.19c-1.17,1.47-2.55,3.18-4,5v-.18l.11.13,3.92,5.09h-.21c1.21-1.51,2.22-2.77,3-3.71l.86-1a2.57,2.57,0,0,1,.33-.37,3.36,3.36,0,0,1-.25.37l-.79,1.08-2.9,3.84-.1.13-.11-.13c-1.15-1.49-2.51-3.22-4-5.07l-.1-.13-.07-.09.07-.09c1.48-1.83,2.87-3.53,4.06-5l.1-.12.09.12,2.91,3.69.79,1A2.89,2.89,0,0,1,241.36,194Z" transform="translate(-44.85 -32.9)"/><path class="cls-7" d="M223.62,198.18a2.14,2.14,0,0,1-.33-.36l-.86-1-3-3.56h.2l-4,5v-.18l.11.13,3.92,5.09h-.2l3-3.71.86-1a2.39,2.39,0,0,1,.33-.38,4,4,0,0,1-.25.38l-.79,1.07-2.9,3.84-.1.13-.1-.13-4-5.07-.1-.13-.07-.09.07-.09,4.06-5,.1-.12.1.12,2.9,3.69.79,1A4.31,4.31,0,0,1,223.62,198.18Z" transform="translate(-44.85 -32.9)"/><path class="cls-7" d="M208.69,189.28a2.36,2.36,0,0,1,.42-.39l1.19-1c1-.8,2.44-1.89,4-3.08l.58-.44,0,.19c-.86-1.59-1.62-3-2.15-4a11.26,11.26,0,0,1-.8-1.68,12.23,12.23,0,0,1,1,1.58c.58,1,1.37,2.4,2.24,4l.06.12-.1.07-.58.44c-1.58,1.19-3,2.26-4.07,3-.53.38-1,.68-1.25.88A2.1,2.1,0,0,1,208.69,189.28Z" transform="translate(-44.85 -32.9)"/><path class="cls-7" d="M253.76,193.36a2.07,2.07,0,0,1-.44-.35c-.28-.23-.66-.58-1.14-1-.94-.87-2.24-2.08-3.66-3.44l-.06-.06,0-.09h0c.65-1.85,1.25-3.52,1.7-4.72.22-.61.41-1.09.54-1.43a2,2,0,0,1,.24-.5,2.13,2.13,0,0,1-.13.54c-.1.35-.26.84-.46,1.45-.39,1.23-1,2.91-1.61,4.76h0l0-.15c1.42,1.35,2.69,2.59,3.6,3.5.45.45.82.82,1.06,1.08A2.09,2.09,0,0,1,253.76,193.36Z" transform="translate(-44.85 -32.9)"/><path class="cls-1" d="M247.43,171.42a1.13,1.13,0,0,1-.32.09c-.21,0-.52.12-.94.17a19.32,19.32,0,0,1-3.5.15c-1.49-.05-3.24-.25-5.18-.5a45.6,45.6,0,0,0-6.31-.48c-2.25,0-4.38.25-6.33.44s-3.7.35-5.18.39a27.87,27.87,0,0,1-3.51-.08c-.41,0-.73-.09-.94-.12a1.45,1.45,0,0,1-.33-.06h.33c.22,0,.54.05.95.06a33.73,33.73,0,0,0,3.49,0c1.47-.07,3.22-.24,5.16-.45s4.09-.44,6.36-.47a44.28,44.28,0,0,1,6.35.51c1.93.27,3.68.49,5.15.57a21.67,21.67,0,0,0,3.48-.07C247,171.48,247.43,171.39,247.43,171.42Z" transform="translate(-44.85 -32.9)"/><path class="cls-1" d="M217.27,186.41a2.11,2.11,0,0,1,0-.6c0-.38.08-.93.16-1.62a53.79,53.79,0,0,1,.92-5.3c.45-2,1-3.88,1.41-5.19.22-.65.4-1.17.54-1.53a2.15,2.15,0,0,1,.25-.55,2.2,2.2,0,0,1-.14.58c-.12.44-.27,1-.45,1.57-.38,1.32-.87,3.14-1.33,5.19s-.78,3.91-1,5.26c-.1.63-.18,1.16-.25,1.61A2.45,2.45,0,0,1,217.27,186.41Z" transform="translate(-44.85 -32.9)"/><path class="cls-1" d="M220.23,180.85a38.07,38.07,0,0,1,.64-4.63,36.79,36.79,0,0,1,.93-4.58,37.81,37.81,0,0,1-.64,4.63A36.79,36.79,0,0,1,220.23,180.85Z" transform="translate(-44.85 -32.9)"/><path class="cls-8" d="M244.8,194.46a5.91,5.91,0,0,1-.4-.84c-.24-.55-.55-1.35-.91-2.35A57.93,57.93,0,0,1,240.18,175c-.06-1.06-.08-1.92-.07-2.52a5.55,5.55,0,0,1,0-.92,5.34,5.34,0,0,1,.08.92c0,.59.09,1.45.17,2.51a67,67,0,0,0,1.15,8.2,68.89,68.89,0,0,0,2.14,8c.34,1,.62,1.82.83,2.38A6,6,0,0,1,244.8,194.46Z" transform="translate(-44.85 -32.9)"/><path class="cls-8" d="M244.15,180.1a4.53,4.53,0,0,1-.46-1.16c-.24-.74-.55-1.76-.84-2.9s-.52-2.19-.66-2.95a5,5,0,0,1-.16-1.24,5.16,5.16,0,0,1,.37,1.2c.22.86.46,1.84.74,2.92s.53,2.05.75,2.91A6.71,6.71,0,0,1,244.15,180.1Z" transform="translate(-44.85 -32.9)"/><path class="cls-8" d="M229.12,204.05s-.08,0-.24,0-.38-.05-.67-.11a21.08,21.08,0,0,1-2.4-.67,68.68,68.68,0,0,1-7.52-3.35,31.73,31.73,0,0,0-7.67-2.8,17.41,17.41,0,0,0-2.46-.3c-.58,0-.91,0-.91-.05l.24,0c.15,0,.38,0,.68,0a13.74,13.74,0,0,1,2.49.22,29.29,29.29,0,0,1,7.76,2.73c2.89,1.41,5.48,2.72,7.46,3.42a23.47,23.47,0,0,0,2.36.75A6.38,6.38,0,0,1,229.12,204.05Z" transform="translate(-44.85 -32.9)"/><path class="cls-8" d="M254.27,195.51a6.11,6.11,0,0,1-.73.49c-.47.3-1.18.72-2.06,1.21a66.44,66.44,0,0,1-7.11,3.41,65.11,65.11,0,0,1-7.48,2.52c-1,.26-1.77.46-2.32.57a4.5,4.5,0,0,1-.87.15,5.65,5.65,0,0,1,.84-.26c.54-.15,1.33-.37,2.29-.66,1.93-.57,4.58-1.44,7.42-2.6s5.35-2.38,7.13-3.31l2.1-1.13A4.61,4.61,0,0,1,254.27,195.51Z" transform="translate(-44.85 -32.9)"/><path class="cls-1" d="M244.78,169.13a3,3,0,0,1-.85,1.47,3.1,3.1,0,0,1-1.37,1c-.05-.07.55-.53,1.15-1.21S244.71,169.09,244.78,169.13Z" transform="translate(-44.85 -32.9)"/><path class="cls-1" d="M222.18,167.59c.08,0,.14.87.51,1.87s.88,1.7.81,1.76a3.4,3.4,0,0,1-1.09-1.66A3.33,3.33,0,0,1,222.18,167.59Z" transform="translate(-44.85 -32.9)"/><rect class="cls-1" x="218.24" y="304.17" width="30.98" height="20.69" rx="2.49" transform="translate(-45.37 -32.51) rotate(-0.1)"/><path class="cls-1" d="M240.78,308a2,2,0,0,1,0-.4l.06-1.13a24.14,24.14,0,0,0,0-4.14,9.29,9.29,0,0,0-2.37-5.47,6.09,6.09,0,0,0-3.06-1.7,17.21,17.21,0,0,0-3.85-.32c-2.64,0-5.25.54-7,2a6.75,6.75,0,0,0-1.91,2.56,9.83,9.83,0,0,0-.73,2.73,20.58,20.58,0,0,0,0,4.13c0,.45.07.83.09,1.13a1.66,1.66,0,0,1,0,.39,1.76,1.76,0,0,1-.08-.39c0-.25-.1-.63-.16-1.12a18.23,18.23,0,0,1-.12-4.17,9.7,9.7,0,0,1,.7-2.82,7,7,0,0,1,2-2.7,8.63,8.63,0,0,1,3.31-1.63,15.76,15.76,0,0,1,3.92-.47,17,17,0,0,1,3.93.34,6.32,6.32,0,0,1,3.22,1.81,9.49,9.49,0,0,1,2.39,5.68,21.51,21.51,0,0,1-.08,4.17c0,.49-.09.87-.13,1.13A1.67,1.67,0,0,1,240.78,308Z" transform="translate(-44.85 -32.9)"/><rect class="cls-8" x="214.33" y="304.06" width="30.98" height="20.69" rx="2.49" transform="translate(-45.38 -32.51) rotate(-0.1)"/><path class="cls-1" d="M242.83,324.74a3.32,3.32,0,0,0,1-.24,2.51,2.51,0,0,0,.94-.73,2.47,2.47,0,0,0,.52-1.51c0-2.53-.05-6.15-.08-10.61,0-1.12,0-2.3,0-3.52,0-.6,0-1.25,0-1.86a2.32,2.32,0,0,0-.86-1.56,2.46,2.46,0,0,0-1.78-.51h-2.08l-4.33,0-19.27,0a2.29,2.29,0,0,0-2,1.11,2.16,2.16,0,0,0-.34,1.1v6.17c0,3.22,0,6.33,0,9.3a3.2,3.2,0,0,0,.1,1,2.47,2.47,0,0,0,.51.87,2.32,2.32,0,0,0,1.79.76h11.41l10.62,0,2.88,0,.75,0a.76.76,0,0,1,.26,0h-.26l-.75,0-2.88,0-10.62.08-7.33,0-4.08,0a2.68,2.68,0,0,1-2.61-1.85,3.48,3.48,0,0,1-.13-1.14c0-3,0-6.08,0-9.3,0-1.61,0-3.25,0-4.92,0-.42,0-.83,0-1.26a2.53,2.53,0,0,1,.39-1.28,2.7,2.7,0,0,1,2.28-1.29h25.68a2.8,2.8,0,0,1,2,.59,2.62,2.62,0,0,1,1,1.76c0,.67,0,1.27,0,1.89v3.52c0,4.46,0,8.08,0,10.61a2.58,2.58,0,0,1-.58,1.58,2.71,2.71,0,0,1-1,.73A2,2,0,0,1,242.83,324.74Z" transform="translate(-44.85 -32.9)"/><path class="cls-1" d="M244.92,314.5c0,.15-6.82.26-15.22.26s-15.22-.11-15.22-.26,6.81-.26,15.22-.26S244.92,314.36,244.92,314.5Z" transform="translate(-44.85 -32.9)"/><path class="cls-3" d="M229.78,317.06a11.58,11.58,0,0,1,0-4.88,11.58,11.58,0,0,1,0,4.88Z" transform="translate(-44.85 -32.9)"/><path class="cls-5" d="M206.55,253.42s7.78-21.25,9.7-22.52,9.9-3.52,9.9-3.52L232.09,247l7.08-19.9s7.49,2.26,9.64,5.62,7.67,20.77,7.67,20.77L244.65,258l1.51,7.15-29.84-.39,1.8-6.13Z" transform="translate(-44.85 -32.9)"/><g class="cls-6"><path d="M222.75,240.54a20.91,20.91,0,0,1-3-11.16l-3,1.14a22.93,22.93,0,0,0,3.5,11.25,3.61,3.61,0,0,0,1.24,1.33,1.35,1.35,0,0,0,1.67-.24C223.66,242.2,223.19,241.26,222.75,240.54Z" transform="translate(-44.85 -32.9)"/></g><g class="cls-6"><path d="M226.5,252.1a1.31,1.31,0,0,0-1-.69h0a1.78,1.78,0,1,0,0,3.53,1.41,1.41,0,0,0,.87-.48,1.9,1.9,0,0,0,.34-.89A2.37,2.37,0,0,0,226.5,252.1Z" transform="translate(-44.85 -32.9)"/></g><g class="cls-6"><path d="M244.93,259.32a12.16,12.16,0,0,1-4,3,5.66,5.66,0,0,1-5,0c-.69-.38-1.37-1-2.15-.89-.57.07-1.13.5-1.67.3a1,1,0,0,1-.59-.76,1.64,1.64,0,0,1,.87-1.62,3.22,3.22,0,0,1,1.91-.27c.65.08,1.28.27,1.93.36,2.64.38,5.8-1.68,7.67-3.78l1.39-1.62-.69,3.87Z" transform="translate(-44.85 -32.9)"/></g><path class="cls-1" d="M246.76,247.86a45.23,45.23,0,0,1-.92,5.1,46.66,46.66,0,0,1-1.19,5,50.86,50.86,0,0,1,.92-5.1A48.86,48.86,0,0,1,246.76,247.86Z" transform="translate(-44.85 -32.9)"/><path class="cls-2" d="M246.36,230.59a1.69,1.69,0,0,1-.11.51,6.67,6.67,0,0,1-.54,1.32,8.2,8.2,0,0,1-3.31,3.3,8.06,8.06,0,0,1-4.58.85,7,7,0,0,1-1.4-.29,1.57,1.57,0,0,1-.48-.21s.71.22,1.89.31a8.46,8.46,0,0,0,4.44-.91,8.32,8.32,0,0,0,3.26-3.15C246.13,231.3,246.31,230.58,246.36,230.59Z" transform="translate(-44.85 -32.9)"/><path class="cls-2" d="M248.64,232.58a1.9,1.9,0,0,1-.24.57,8.58,8.58,0,0,1-.92,1.42,10.27,10.27,0,0,1-10,3.76,9.61,9.61,0,0,1-1.63-.45,2.08,2.08,0,0,1-.56-.27c0-.05.83.31,2.22.53a10.59,10.59,0,0,0,9.8-3.69A18.07,18.07,0,0,0,248.64,232.58Z" transform="translate(-44.85 -32.9)"/><path class="cls-2" d="M231,244.77a2.71,2.71,0,0,1-.62.26c-.4.14-1,.37-1.68.67a30.11,30.11,0,0,0-5.23,2.89,29.8,29.8,0,0,0-4.55,3.87c-.53.55-.95,1-1.23,1.34a4.3,4.3,0,0,1-.46.48,2.84,2.84,0,0,1,.37-.55c.26-.35.66-.83,1.17-1.4a26,26,0,0,1,4.54-4,26.56,26.56,0,0,1,5.31-2.84,17.06,17.06,0,0,1,1.73-.59A3,3,0,0,1,231,244.77Z" transform="translate(-44.85 -32.9)"/><path class="cls-2" d="M230.65,242.56a2.39,2.39,0,0,1-.61.22c-.4.12-1,.3-1.68.54a47.25,47.25,0,0,0-5.4,2.18,48.82,48.82,0,0,0-5.08,2.85c-.62.4-1.13.74-1.47,1a3.32,3.32,0,0,1-.56.34,3,3,0,0,1,.49-.43c.33-.27.82-.63,1.43-1.05a36.74,36.74,0,0,1,5.07-2.94,38.1,38.1,0,0,1,5.46-2.12c.72-.21,1.3-.37,1.71-.45A2.55,2.55,0,0,1,230.65,242.56Z" transform="translate(-44.85 -32.9)"/><path class="cls-2" d="M252,254.78a29.27,29.27,0,0,0-2.71-2.12,26.82,26.82,0,0,0-3.1-1.5,3,3,0,0,1,1,.21,9.91,9.91,0,0,1,2.25,1,10.2,10.2,0,0,1,1.93,1.56A3.38,3.38,0,0,1,252,254.78Z" transform="translate(-44.85 -32.9)"/><path class="cls-2" d="M210.85,254.82a13.48,13.48,0,0,1-1.46-3.16,13.22,13.22,0,0,1-.84-3.38c.08,0,.47,1.49,1.1,3.29S210.93,254.79,210.85,254.82Z" transform="translate(-44.85 -32.9)"/><path class="cls-2" d="M223.29,264.88a14.3,14.3,0,0,1-3.08-1.44,13.21,13.21,0,0,1-2.82-1.91c0-.06,1.33.75,3,1.67S223.33,264.81,223.29,264.88Z" transform="translate(-44.85 -32.9)"/><path class="cls-1" d="M231,251a5.57,5.57,0,0,1-.35-.87c-.22-.56-.51-1.39-.86-2.41-.71-2-1.66-4.88-2.66-8s-1.86-6-2.47-8.09c-.3-1-.53-1.88-.69-2.46a7.56,7.56,0,0,1-.22-.92,5.06,5.06,0,0,1,.32.89c.2.62.47,1.44.78,2.44.67,2.1,1.56,4.93,2.55,8.05s1.9,5.95,2.57,8c.32,1,.58,1.82.78,2.44A5.9,5.9,0,0,1,231,251Z" transform="translate(-44.85 -32.9)"/><path class="cls-1" d="M233.49,251.08a3.08,3.08,0,0,1-1.26.14,2.84,2.84,0,0,1-1.27-.13,5.59,5.59,0,0,1,2.53,0Z" transform="translate(-44.85 -32.9)"/><path class="cls-1" d="M241,227.71c.1-.43-1.45,4.94-3.53,11.51s-3.82,11.88-3.89,11.86,1.55-5.37,3.63-12S241,227.71,241,227.71Z" transform="translate(-44.85 -32.9)"/><path class="cls-1" d="M218.09,258.62c-.08,0-.74-2.54-1.48-5.71a57.78,57.78,0,0,1-1.21-5.78c.07,0,.74,2.54,1.48,5.72S218.16,258.61,218.09,258.62Z" transform="translate(-44.85 -32.9)"/><path d="M252.21,75.35l-2,6.05h-1.5l-1.33-4.1L246,81.4h-1.5l-2-6.05H244l1.36,4.25,1.43-4.25h1.29l1.38,4.28,1.41-4.28Z" transform="translate(-44.85 -32.9)"/><path d="M253,75.35h1.4V81.4H253Z" transform="translate(-44.85 -32.9)"/><path d="M255.34,80.8l.47-1a3.57,3.57,0,0,0,2,.63c.83,0,1.16-.28,1.16-.65,0-1.13-3.51-.35-3.51-2.6,0-1,.83-1.88,2.55-1.88a4.12,4.12,0,0,1,2.1.53l-.44,1.07a3.41,3.41,0,0,0-1.67-.48c-.83,0-1.15.31-1.15.69,0,1.12,3.51.35,3.51,2.57,0,1-.83,1.87-2.56,1.87A4.25,4.25,0,0,1,255.34,80.8Z" transform="translate(-44.85 -32.9)"/><path d="M266.86,75.35V81.4h-1.4V78.92h-2.74V81.4h-1.4V75.35h1.4v2.38h2.74V75.35Z" transform="translate(-44.85 -32.9)"/><path d="M269.32,75.35H270l-1.1,5.49h3.39l-.11.56h-4Z" transform="translate(-44.85 -32.9)"/><path d="M274.4,75.35H275l-1.2,6.05h-.64Z" transform="translate(-44.85 -32.9)"/><path d="M275.37,80.68l.31-.5a2.79,2.79,0,0,0,1.94.72c1.06,0,1.78-.43,1.78-1.19,0-1.39-3.14-.69-3.14-2.59,0-1.14,1-1.82,2.42-1.82a3.27,3.27,0,0,1,1.87.52l-.27.52a2.8,2.8,0,0,0-1.64-.5c-1.05,0-1.76.47-1.76,1.22,0,1.41,3.15.73,3.15,2.57,0,1.16-1,1.82-2.47,1.82A3.19,3.19,0,0,1,275.37,80.68Z" transform="translate(-44.85 -32.9)"/><path d="M283.29,75.9h-2.13l.11-.55h4.9l-.12.55h-2.13l-1.09,5.5h-.63Z" transform="translate(-44.85 -32.9)"/><path class="cls-1" d="M323.74,74c0,.09-2.92.18-6.52.21s-6.53,0-6.53-.1,2.92-.18,6.52-.21S323.74,73.89,323.74,74Z" transform="translate(-44.85 -32.9)"/><path class="cls-1" d="M323.76,77.32c0,.09-2.92.18-6.52.21s-6.52,0-6.52-.1,2.92-.18,6.52-.21S323.76,77.23,323.76,77.32Z" transform="translate(-44.85 -32.9)"/><path class="cls-1" d="M323.79,80.66c0,.08-2.92.18-6.52.21a65.06,65.06,0,0,1-6.52-.11c0-.08,2.91-.18,6.52-.21A65.06,65.06,0,0,1,323.79,80.66Z" transform="translate(-44.85 -32.9)"/></g><g id="Character"><polygon class="cls-5" points="55.63 415.41 51.15 448.75 33.11 446.69 37.53 413.28 55.63 415.41"/><path class="cls-1" d="M87.25,479.37c-.15,0,.8-7.32,2.13-16.31s2.51-16.25,2.66-16.23-.8,7.32-2.12,16.31S87.4,479.4,87.25,479.37Z" transform="translate(-44.85 -32.9)"/><polygon class="cls-1" points="51.46 446.45 33.42 444.33 33.11 446.69 51.15 448.75 51.46 446.45"/><path class="cls-1" d="M79.37,468.91a2.66,2.66,0,0,1,.56-.66,12.56,12.56,0,0,1,1.84-1.49A12.24,12.24,0,0,1,85,465.21a9.66,9.66,0,0,1,10.91,3.63,8.25,8.25,0,0,1,1,2.13,2.3,2.3,0,0,1,.18.86,19.68,19.68,0,0,0-1.54-2.77,9.68,9.68,0,0,0-6.35-3.7A11.17,11.17,0,0,0,82,467.08C80.31,468.1,79.44,469,79.37,468.91Z" transform="translate(-44.85 -32.9)"/><g class="cls-6"><polygon points="53.95 428.89 53.42 431.84 35.3 430.19 35.69 427.22 53.95 428.89"/></g><polygon class="cls-5" points="113.38 417.64 111.32 451.22 93.18 450.47 95.18 416.82 113.38 417.64"/><path class="cls-1" d="M147.29,482.48c-.16,0,.26-7.37.93-16.42s1.34-16.4,1.49-16.39-.27,7.37-.94,16.43S147.44,482.49,147.29,482.48Z" transform="translate(-44.85 -32.9)"/><polygon class="cls-1" points="111.46 448.9 93.32 448.09 93.18 450.47 111.32 451.22 111.46 448.9"/><path class="cls-1" d="M138.67,472.61s.14-.28.51-.7a12.43,12.43,0,0,1,1.73-1.62,12.08,12.08,0,0,1,3.05-1.77,9.42,9.42,0,0,1,4.28-.7,9.6,9.6,0,0,1,6.87,3.53,8.28,8.28,0,0,1,1.19,2,2.51,2.51,0,0,1,.24.84,18.82,18.82,0,0,0-1.73-2.64,9.7,9.7,0,0,0-6.61-3.24,11.1,11.1,0,0,0-7.06,2.24C139.54,471.74,138.74,472.68,138.67,472.61Z" transform="translate(-44.85 -32.9)"/><g class="cls-6"><polygon points="112.69 431.21 112.36 434.19 94.17 433.85 94.34 430.86 112.69 431.21"/></g><path class="cls-1" d="M90.38,293.74c-.52,0-2.17,22.15-1.74,29.46s.84,64.06.84,64.06-3.84,2.58-3.84,6-6.88,66.21-6.88,66.21l20.7,3.44s18.85-68.36,19.28-77.81,13.75-74.38,13.75-74.38,4.3,61.48,4.3,70.94-.18,82.24-.18,82.24,15.33,2.17,22.7.41c0,0,6.29-54.71,6.29-72.77V362.32s7.31-34,10.74-51.16,0-33.59,0-33.59l-61.9-8.11Z" transform="translate(-44.85 -32.9)"/><path class="cls-8" d="M106.26,392.17a25.85,25.85,0,0,0-7.88-.78,26,26,0,0,0-7.62,2.16,7,7,0,0,1,2-1.22,17.11,17.11,0,0,1,11.25-1A7.23,7.23,0,0,1,106.26,392.17Z" transform="translate(-44.85 -32.9)"/><path class="cls-8" d="M107.54,386.91a32.44,32.44,0,0,1-5.85.06,32.44,32.44,0,0,1-5.84-.46,33.58,33.58,0,0,1,5.85-.06A33.57,33.57,0,0,1,107.54,386.91Z" transform="translate(-44.85 -32.9)"/><path class="cls-8" d="M149.89,399.74s-.24-.16-.61-.51a17,17,0,0,1-1.45-1.58,23,23,0,0,1-5-13.09,16.17,16.17,0,0,1,0-2.15,2.7,2.7,0,0,1,.11-.78c.09,0,.06,1.12.24,2.91a26,26,0,0,0,4.92,12.88C149.18,398.87,150,399.68,149.89,399.74Z" transform="translate(-44.85 -32.9)"/><path class="cls-8" d="M133.19,308.24a3.32,3.32,0,0,1-.53.82l-.8.8c-.35.28-.75.6-1.2.93a26.57,26.57,0,0,1-7.94,3.49,21.12,21.12,0,0,1-8.64.72c-.28,0-.54-.07-.79-.13l-.69-.2a4.54,4.54,0,0,1-1.06-.4,3.39,3.39,0,0,1-.84-.48,19.13,19.13,0,0,0,3.43.85,22.73,22.73,0,0,0,8.45-.86,29.74,29.74,0,0,0,7.88-3.3c.45-.3.86-.59,1.21-.84l.85-.72A3.6,3.6,0,0,1,133.19,308.24Z" transform="translate(-44.85 -32.9)"/><path class="cls-9" d="M208.31,136.23a19.91,19.91,0,0,1,1.93-8.56c2.09-4.17,8.34-11.16,8.34-11.16s8.63-6.7,9.53-6.26,1.19,1.49,0,2.53-5.81,6.41-5.81,6.41,1.94.74,1.94,2.08a3.52,3.52,0,0,1-.45,2s1.79.87,2.23,1.91a5.41,5.41,0,0,1,.45,1.94,1.52,1.52,0,0,1,1.19,1.48,8,8,0,0,1-.15,2.53s-3.27,3.73-4.61,4.17-3.13,1-3.13,1l-1.17,1.56v4.3Z" transform="translate(-44.85 -32.9)"/><path class="cls-8" d="M76.19,169.28S45,224.36,44.85,233c-.23,15.36,43.39,27.75,43.39,27.75l6.15-17.53L72.15,227.82,88.33,192.7Z" transform="translate(-44.85 -32.9)"/><path class="cls-8" d="M76.19,169.28a28.63,28.63,0,0,1,14-5.77c8.5-1,23.68-1.29,23.68-1.29s41.19-9,44.27-7.21,7.21,12.87,8,18-3.49,54.16-3.49,54.16,18.42,57,17.14,58.84c-.63.87-22.88,8.7-45.35,10.43l-1.25-16.67-2.65,15.52c-20.89,1.56-44.6,2.33-44.6,2.33s16.27-56.52,15.76-58.07S74,174.79,76.19,169.28Z" transform="translate(-44.85 -32.9)"/><path class="cls-8" d="M158.16,155s15.14,8.55,16.93,8.35,3.57-3.18,5.95-.8l13.3-2.38L207.64,136a42.57,42.57,0,0,1,13.3,8.14s-7.35,25.2-11.91,29S186.93,190,162.44,190.2l-3-20.09Z" transform="translate(-44.85 -32.9)"/><path class="cls-1" d="M174,184.59c-.08-.05.65-1.11,1.5-3a23.8,23.8,0,0,0,1.21-3.39,26,26,0,0,0,.74-4.34,25.39,25.39,0,0,0-.09-4.4,23.15,23.15,0,0,0-.69-3.54c-.55-2-1.12-3.14-1-3.18a3.39,3.39,0,0,1,.46.78,15.33,15.33,0,0,1,.93,2.29,21.62,21.62,0,0,1,.81,3.59,23.6,23.6,0,0,1,.13,4.5,24.1,24.1,0,0,1-.8,4.43,20.69,20.69,0,0,1-1.34,3.42,14.53,14.53,0,0,1-1.26,2.12C174.21,184.36,174,184.61,174,184.59Z" transform="translate(-44.85 -32.9)"/><path class="cls-1" d="M199.83,165.38a13.38,13.38,0,0,1-5.75-5.16,33.41,33.41,0,0,1,2.84,2.61A33.66,33.66,0,0,1,199.83,165.38Z" transform="translate(-44.85 -32.9)"/><path class="cls-9" d="M88.61,259.7s.62,2.25,4.21-.28c0,0,5-1,7.58-3.47s3-4,4.8-4.11,7-.86,7.11-.81,1.42-2.95-.21-3.46-8.86.16-8.86.16l-2.11.13-.36-2.89.41-2.62s-4.42,1.69-4.35,2.9c0,0-3.14-.92-3.56,1.17Z" transform="translate(-44.85 -32.9)"/><path class="cls-1" d="M91.08,213.14a5.44,5.44,0,0,1-.57-1.06c-.33-.69-.8-1.71-1.35-3-1.1-2.53-2.54-6.07-4-10s-2.57-7.62-3.33-10.27c-.38-1.33-.67-2.41-.85-3.16a5,5,0,0,1-.23-1.18,6.18,6.18,0,0,1,.43,1.12l1,3.11c.84,2.62,2,6.24,3.46,10.2s2.8,7.51,3.81,10.07l1.2,3A4.69,4.69,0,0,1,91.08,213.14Z" transform="translate(-44.85 -32.9)"/><path class="cls-1" d="M142,241.8a7.52,7.52,0,0,1-.73,1.26c-.49.8-1.26,1.91-2.27,3.25a57.79,57.79,0,0,1-9.08,9.4,58.72,58.72,0,0,1-11,7.11c-1.51.73-2.75,1.28-3.63,1.61a8.76,8.76,0,0,1-1.37.47,8.13,8.13,0,0,1,1.29-.66c.85-.38,2.07-1,3.54-1.75a64,64,0,0,0,19.93-16.41c1-1.3,1.86-2.37,2.4-3.13A8.2,8.2,0,0,1,142,241.8Z" transform="translate(-44.85 -32.9)"/><path class="cls-1" d="M73.52,227.78c0,.15-2.36.62-5.14,1.67s-4.88,2.26-5,2.13A14.61,14.61,0,0,1,68.2,229,14.66,14.66,0,0,1,73.52,227.78Z" transform="translate(-44.85 -32.9)"/><g class="cls-6"><path d="M85.42,199.23c-3.38-1.39-6.4-5.47-7.09-9.06s.74-7.29,1.25-10.91a157.91,157.91,0,0,0,5.84,20" transform="translate(-44.85 -32.9)"/></g><g class="cls-6"><path d="M117.06,268.13A20.62,20.62,0,0,0,144,252.37C135.77,257.92,126.1,264,117.06,268.13Z" transform="translate(-44.85 -32.9)"/></g><path class="cls-1" d="M165.57,166.43a4.42,4.42,0,0,1,.27,1.07c.15.7.31,1.71.48,3a66.23,66.23,0,0,1-.46,19.74c-.22,1.25-.43,2.25-.61,2.94a4.06,4.06,0,0,1-.32,1c-.08,0,.22-1.55.57-4a82.75,82.75,0,0,0,.45-19.64C165.71,168,165.49,166.45,165.57,166.43Z" transform="translate(-44.85 -32.9)"/><g class="cls-6"><path d="M148.21,148.94l-48,74c11.72,5.88,26.5,8.81,37.58,1.79,3.07,3.78,9.65,2.41,12.64-1.45s3.32-9.08,3.36-14C154,189.08,151.08,169,148.21,148.94Z" transform="translate(-44.85 -32.9)"/></g><path class="cls-1" d="M128.9,96.54c-5.16-.84-10.48,1.39-14.32,4.93s-6.42,8.25-8.48,13.06c-4,9.36-6.35,19.34-8.66,29.26C94,158.41,90.6,173.11,89.69,188.1s3.57,23.83,10,37.38l22.85-3.17,0-4.33,3.09,4.33,8.87-1.37s2.66-23.2,2.66-23.13,4.23,22.1,4.23,22.1l7.4-.69c7.35-29.15-1-48.34,3.21-78.11,1-7.08,2.57-14.13,2.55-21.28s-1.88-14.63-6.81-19.8-13.44-7.3-19.5-3.5" transform="translate(-44.85 -32.9)"/><path class="cls-8" d="M134.5,220.94a1.3,1.3,0,0,1-.08-.33c0-.25-.11-.58-.19-1l-.68-3.81c-.56-3.31-1.34-8.11-2-14.07a154.46,154.46,0,0,1-1.16-21.07,119.51,119.51,0,0,1,.93-12.44,103.37,103.37,0,0,1,2.7-13.12c2.52-8.83,6.05-16.87,7.76-24.61a49.06,49.06,0,0,0,1.36-11.11,31.2,31.2,0,0,0-1.46-9.6,26.37,26.37,0,0,0-3.65-7.14,21.72,21.72,0,0,0-4.22-4.35,20.46,20.46,0,0,0-3.26-2l-.91-.41a1.49,1.49,0,0,1-.3-.16l.32.11.94.37a18,18,0,0,1,3.33,2,21.59,21.59,0,0,1,4.33,4.34,26.11,26.11,0,0,1,3.77,7.19,31,31,0,0,1,1.54,9.72,49.29,49.29,0,0,1-1.32,11.22c-1.7,7.8-5.22,15.86-7.73,24.64a104.06,104.06,0,0,0-2.69,13.05,118.27,118.27,0,0,0-1,12.38,160.63,160.63,0,0,0,1,21c.66,6,1.38,10.76,1.88,14.08.25,1.64.44,2.92.58,3.82.06.42.11.75.14,1A1.45,1.45,0,0,1,134.5,220.94Z" transform="translate(-44.85 -32.9)"/><path class="cls-8" d="M102.36,205.76a.87.87,0,0,1,0-.28c0-.21-.06-.48-.1-.81l-.33-3.15c-.07-.69-.14-1.45-.22-2.28s-.11-1.74-.17-2.71c-.1-1.95-.28-4.17-.29-6.63,0-1.23,0-2.52-.07-3.86s.05-2.73.07-4.18c0-2.89.23-6,.42-9.22a197.37,197.37,0,0,1,2.77-21,197.62,197.62,0,0,1,5.21-20.49c1-3.09,2-6,3-8.72.52-1.35,1-2.67,1.49-3.91l1.5-3.56c.92-2.28,1.91-4.27,2.72-6,.42-.89.8-1.71,1.17-2.46l1-2c.63-1.19,1.12-2.13,1.48-2.8l.39-.72q.13-.26.15-.24a1.42,1.42,0,0,1-.1.26c-.09.19-.21.44-.35.75-.34.68-.8,1.63-1.39,2.84-.3.62-.64,1.3-1,2s-.72,1.58-1.12,2.47c-.79,1.78-1.76,3.78-2.65,6.07-.47,1.13-.95,2.32-1.46,3.56s-1,2.56-1.46,3.91c-1.05,2.69-2,5.63-3,8.71a203.73,203.73,0,0,0-5.16,20.45,204.52,204.52,0,0,0-2.8,20.9c-.2,3.23-.44,6.31-.47,9.19,0,1.44-.1,2.84-.09,4.17s0,2.63,0,3.85c0,2.46.14,4.67.21,6.62,0,1,.08,1.88.12,2.72s.13,1.58.18,2.27c.1,1.34.18,2.4.23,3.16,0,.33,0,.6,0,.82A1,1,0,0,1,102.36,205.76Z" transform="translate(-44.85 -32.9)"/><path class="cls-8" d="M115,223.36s0-.09-.1-.27-.16-.49-.26-.83c-.24-.76-.56-1.82-1-3.17-.2-.69-.43-1.46-.68-2.3s-.44-1.77-.69-2.77c-.45-2-1.1-4.24-1.52-6.78-.23-1.27-.48-2.6-.74-4s-.41-2.84-.63-4.34-.47-3-.57-4.66-.28-3.26-.42-5a160.1,160.1,0,0,1,.16-22.16,174.68,174.68,0,0,1,3.31-21.92c.39-1.66.77-3.27,1.13-4.85s.82-3.07,1.21-4.53c.76-2.94,1.64-5.62,2.42-8.08s1.6-4.63,2.27-6.57,1.33-3.57,1.87-4.9l1.25-3.07.34-.79a1.53,1.53,0,0,1,.13-.27,1.19,1.19,0,0,1-.08.29l-.29.81c-.28.74-.67,1.78-1.16,3.1s-1.15,3-1.79,4.93-1.47,4.11-2.19,6.59-1.61,5.14-2.35,8.07c-.38,1.46-.83,3-1.18,4.53l-1.11,4.85a179.79,179.79,0,0,0-3.26,21.85,164.27,164.27,0,0,0-.21,22.09c.14,1.69.27,3.34.4,4.95s.38,3.14.55,4.65.33,2.95.6,4.33.48,2.7.7,4c.4,2.54,1,4.79,1.44,6.79.24,1,.42,1.92.65,2.77s.44,1.61.64,2.31l.87,3.19c.08.35.15.62.21.84A1.28,1.28,0,0,1,115,223.36Z" transform="translate(-44.85 -32.9)"/><path class="cls-8" d="M147.12,209.28A2.18,2.18,0,0,1,147,209c-.1-.22-.24-.5-.41-.86l-.66-1.41c-.24-.57-.51-1.23-.81-2a70.79,70.79,0,0,1-3.83-13,73.66,73.66,0,0,1,.69-31.73c.95-4,2.21-8.08,3.48-12.24s2.51-8.23,3.4-12.22a61,61,0,0,0,1.57-11.67,37.75,37.75,0,0,0-1.08-10.56,27.63,27.63,0,0,0-3.73-8.44,23.59,23.59,0,0,0-10-8.68,20.51,20.51,0,0,0-3.48-1.11l-.94-.19a1.31,1.31,0,0,1-.31-.09,1.29,1.29,0,0,1,.32,0l1,.14a19.84,19.84,0,0,1,3.54,1,23.29,23.29,0,0,1,10.23,8.66,27.38,27.38,0,0,1,3.84,8.53,37.86,37.86,0,0,1,1.15,10.68,60.89,60.89,0,0,1-1.55,11.77c-.89,4-2.12,8.1-3.4,12.27s-2.53,8.22-3.48,12.2a74.31,74.31,0,0,0-1.89,11.64,75.61,75.61,0,0,0,4.71,32.86c.29.74.55,1.4.77,2l.62,1.43.36.88A1.32,1.32,0,0,1,147.12,209.28Z" transform="translate(-44.85 -32.9)"/></g></svg>