<svg id="Illustration" xmlns="http://www.w3.org/2000/svg" xmlns:xlink="http://www.w3.org/1999/xlink" viewBox="0 0 2214.96 1430.7"><defs><style>.cls-1{fill:url(#linear-gradient);}.cls-2{fill:#bdd0fb;}.cls-3{fill:#dce5fe;}.cls-4{fill:url(#linear-gradient-2);}.cls-5{fill:#91b3fa;}.cls-6{fill:url(#linear-gradient-3);}.cls-7{fill:#7d97f4;}.cls-17,.cls-30,.cls-8{fill:#fff;}.cls-8{opacity:0.87;}.cls-9{fill:url(#linear-gradient-4);}.cls-10{fill:url(#linear-gradient-5);}.cls-11{fill:url(#linear-gradient-6);}.cls-12{fill:url(#linear-gradient-7);}.cls-13{fill:url(#linear-gradient-8);}.cls-14{fill:url(#linear-gradient-9);}.cls-15{fill:url(#linear-gradient-10);}.cls-16{fill:url(#linear-gradient-11);}.cls-18{fill:url(#linear-gradient-12);}.cls-19{fill:url(#linear-gradient-13);}.cls-20{fill:url(#linear-gradient-14);}.cls-21{fill:url(#linear-gradient-15);}.cls-22{fill:url(#linear-gradient-16);}.cls-23{fill:url(#linear-gradient-17);}.cls-24{fill:url(#linear-gradient-18);}.cls-25{fill:url(#linear-gradient-19);}.cls-26{fill:url(#linear-gradient-20);}.cls-27{fill:url(#linear-gradient-21);}.cls-28{fill:url(#linear-gradient-22);}.cls-29{fill:url(#linear-gradient-23);}.cls-30{opacity:0.6;}.cls-31{fill:url(#linear-gradient-24);}.cls-32{fill:url(#linear-gradient-25);}.cls-33{fill:url(#linear-gradient-26);}.cls-34{fill:url(#linear-gradient-27);}.cls-35{fill:url(#linear-gradient-28);}.cls-36{fill:url(#linear-gradient-29);}.cls-37{fill:url(#linear-gradient-30);}.cls-38{fill:url(#linear-gradient-31);}.cls-39{fill:url(#linear-gradient-32);}.cls-40{fill:url(#linear-gradient-33);}.cls-41{fill:url(#linear-gradient-34);}.cls-42{fill:url(#linear-gradient-35);}.cls-43{fill:url(#linear-gradient-36);}.cls-44{fill:url(#linear-gradient-37);}.cls-45{fill:url(#linear-gradient-38);}.cls-46{fill:url(#linear-gradient-39);}.cls-47{fill:url(#linear-gradient-40);}.cls-48{fill:url(#linear-gradient-41);}.cls-49{fill:url(#linear-gradient-42);}.cls-50{fill:url(#linear-gradient-43);}.cls-51{fill:url(#linear-gradient-44);}.cls-52{fill:url(#linear-gradient-45);}.cls-53{fill:url(#linear-gradient-46);}.cls-54{fill:url(#linear-gradient-47);}.cls-55{fill:url(#linear-gradient-48);}.cls-56{fill:url(#linear-gradient-49);}.cls-57{fill:url(#linear-gradient-50);}.cls-58{fill:url(#_32);}.cls-59{fill:url(#linear-gradient-51);}.cls-60{fill:url(#linear-gradient-52);}.cls-61{fill:url(#linear-gradient-53);}.cls-62{fill:url(#linear-gradient-54);}.cls-63{fill:url(#linear-gradient-55);}.cls-64{fill:url(#linear-gradient-56);}.cls-65{fill:url(#linear-gradient-57);}.cls-66{fill:url(#linear-gradient-58);}.cls-67{fill:url(#linear-gradient-59);}.cls-68{fill:url(#linear-gradient-60);}.cls-69{fill:url(#linear-gradient-61);}.cls-70{fill:url(#linear-gradient-62);}.cls-71{fill:url(#linear-gradient-63);}.cls-72{fill:url(#linear-gradient-64);}.cls-73{fill:url(#linear-gradient-65);}.cls-74{fill:url(#linear-gradient-66);}.cls-75{fill:url(#linear-gradient-67);}.cls-76{fill:url(#linear-gradient-68);}.cls-77{fill:url(#linear-gradient-69);}.cls-78{fill:url(#linear-gradient-70);}.cls-79{fill:url(#linear-gradient-71);}.cls-80{fill:url(#linear-gradient-72);}.cls-81{fill:url(#linear-gradient-73);}.cls-82{fill:url(#linear-gradient-74);}.cls-83{fill:url(#linear-gradient-75);}.cls-84{fill:url(#linear-gradient-76);}.cls-85{fill:url(#linear-gradient-77);}.cls-86{fill:url(#linear-gradient-78);}.cls-87{fill:url(#linear-gradient-79);}.cls-88{fill:url(#linear-gradient-80);}.cls-89{fill:url(#linear-gradient-81);}</style><linearGradient id="linear-gradient" x1="-1567.41" y1="862.26" x2="640.41" y2="862.26" gradientTransform="matrix(-1, 0, 0, 1, 774, 0)" gradientUnits="userSpaceOnUse"><stop offset="0" stop-color="#dae3fe"/><stop offset="1" stop-color="#e9effd"/></linearGradient><linearGradient id="linear-gradient-2" x1="1705.47" y1="293.61" x2="512.88" y2="1860.04" gradientUnits="userSpaceOnUse"><stop offset="0" stop-color="#09005d"/><stop offset="1" stop-color="#1a0f91"/></linearGradient><linearGradient id="linear-gradient-3" x1="1077.01" y1="899.12" x2="1406.52" y2="899.12" gradientTransform="matrix(1, 0, 0, 1, 0, 0)" xlink:href="#linear-gradient"/><linearGradient id="linear-gradient-4" x1="2212.65" y1="244.84" x2="1547.03" y2="786.52" gradientTransform="translate(-3.17 50.51) rotate(1.17)" gradientUnits="userSpaceOnUse"><stop offset="0" stop-color="#fe7062"/><stop offset="1" stop-color="#ff928e"/></linearGradient><linearGradient id="linear-gradient-5" x1="1774.18" y1="-75.23" x2="1896.18" y2="592.77" gradientUnits="userSpaceOnUse"><stop offset="0" stop-color="#ff928e"/><stop offset="1" stop-color="#feb3b1"/></linearGradient><linearGradient id="linear-gradient-6" x1="2298.06" y1="349.77" x2="1632.42" y2="891.47" xlink:href="#linear-gradient-4"/><linearGradient id="linear-gradient-7" x1="2309.42" y1="363.73" x2="1643.79" y2="905.43" xlink:href="#linear-gradient-4"/><linearGradient id="linear-gradient-8" x1="2334.91" y1="395.04" x2="1669.27" y2="936.74" xlink:href="#linear-gradient-4"/><linearGradient id="linear-gradient-9" x1="1475.72" y1="510.02" x2="2091.92" y2="510.02" gradientUnits="userSpaceOnUse"><stop offset="0" stop-color="#4042e2"/><stop offset="1" stop-color="#4f52ff"/></linearGradient><linearGradient id="linear-gradient-10" x1="1508.1" y1="518.11" x2="2064.45" y2="518.11" gradientTransform="matrix(1, 0, 0, 1, 0, 0)" xlink:href="#linear-gradient"/><linearGradient id="linear-gradient-11" x1="267.69" y1="555.36" x2="-141.48" y2="1208.72" gradientTransform="translate(42.55 77.74) rotate(-27.6)" xlink:href="#linear-gradient-9"/><linearGradient id="linear-gradient-12" x1="311.93" y1="514.4" x2="544.65" y2="514.4" gradientTransform="matrix(1, 0, 0, 1, 0, 0)" xlink:href="#linear-gradient"/><linearGradient id="linear-gradient-13" x1="319.92" y1="529.36" x2="552.64" y2="529.36" gradientTransform="matrix(1, 0, 0, 1, 0, 0)" xlink:href="#linear-gradient"/><linearGradient id="linear-gradient-14" x1="379.54" y1="691.08" x2="428.88" y2="691.08" gradientTransform="matrix(1, 0, 0, 1, 0, 0)" xlink:href="#linear-gradient"/><linearGradient id="linear-gradient-15" x1="442.6" y1="625.41" x2="605.13" y2="625.41" gradientTransform="matrix(1, 0, 0, 1, 0, 0)" xlink:href="#linear-gradient"/><linearGradient id="linear-gradient-16" x1="-449.92" y1="3651.63" x2="-623.89" y2="3948.56" gradientTransform="translate(-1032.84 -2871.2) rotate(-29.96)" xlink:href="#linear-gradient-4"/><linearGradient id="linear-gradient-17" x1="344.09" y1="623.26" x2="393.43" y2="623.26" gradientTransform="matrix(1, 0, 0, 1, 0, 0)" xlink:href="#linear-gradient"/><linearGradient id="linear-gradient-18" x1="407.15" y1="557.59" x2="569.68" y2="557.59" gradientTransform="matrix(1, 0, 0, 1, 0, 0)" xlink:href="#linear-gradient"/><linearGradient id="linear-gradient-19" x1="-446.76" y1="3575.17" x2="-620.73" y2="3872.1" gradientTransform="translate(-1032.84 -2871.2) rotate(-29.96)" xlink:href="#linear-gradient-4"/><linearGradient id="linear-gradient-20" x1="416.01" y1="754.35" x2="465.36" y2="754.35" gradientTransform="matrix(1, 0, 0, 1, 0, 0)" xlink:href="#linear-gradient"/><linearGradient id="linear-gradient-21" x1="479.07" y1="688.68" x2="641.61" y2="688.68" gradientTransform="matrix(1, 0, 0, 1, 0, 0)" xlink:href="#linear-gradient"/><linearGradient id="linear-gradient-22" x1="-418.07" y1="3670.29" x2="-592.04" y2="3967.22" gradientTransform="translate(-1032.84 -2871.2) rotate(-29.96)" xlink:href="#linear-gradient-4"/><linearGradient id="linear-gradient-23" x1="440.95" y1="816.04" x2="505.47" y2="816.04" gradientTransform="matrix(1, 0, 0, 1, 0, 0)" xlink:href="#linear-gradient"/><linearGradient id="linear-gradient-24" x1="511.34" y1="751.02" x2="673.87" y2="751.02" gradientTransform="matrix(1, 0, 0, 1, 0, 0)" xlink:href="#linear-gradient"/><linearGradient id="linear-gradient-25" x1="-394.47" y1="3740.58" x2="-623.38" y2="4059.75" gradientTransform="translate(-1032.84 -2871.2) rotate(-29.96)" xlink:href="#linear-gradient-4"/><linearGradient id="linear-gradient-26" x1="481.04" y1="881.27" x2="530.39" y2="881.27" gradientTransform="matrix(1, 0, 0, 1, 0, 0)" xlink:href="#linear-gradient"/><linearGradient id="linear-gradient-27" x1="544.1" y1="815.6" x2="706.64" y2="815.6" gradientTransform="matrix(1, 0, 0, 1, 0, 0)" xlink:href="#linear-gradient"/><linearGradient id="linear-gradient-28" x1="-361.42" y1="3703.99" x2="-535.39" y2="4000.93" gradientTransform="translate(-1032.84 -2871.2) rotate(-29.96)" xlink:href="#linear-gradient-4"/><linearGradient id="linear-gradient-29" x1="179" y1="406.38" x2="39.65" y2="589.7" gradientTransform="translate(42.55 77.74) rotate(-27.6)" xlink:href="#linear-gradient-2"/><linearGradient id="linear-gradient-30" x1="354.49" y1="431.55" x2="371.9" y2="431.55" gradientTransform="matrix(1, 0, 0, 1, 0, 0)" xlink:href="#linear-gradient"/><linearGradient id="linear-gradient-31" x1="-264.56" y1="3408.34" x2="-403.81" y2="3591.53" gradientTransform="translate(-965.03 -2773.23) rotate(-28.11)" xlink:href="#linear-gradient-2"/><linearGradient id="linear-gradient-32" x1="358.73" y1="465.91" x2="364.85" y2="465.91" gradientTransform="matrix(1, 0, 0, 1, 0, 0)" xlink:href="#linear-gradient"/><linearGradient id="linear-gradient-33" x1="334.33" y1="481.64" x2="357.28" y2="481.64" gradientTransform="matrix(1, 0, 0, 1, 0, 0)" xlink:href="#linear-gradient"/><linearGradient id="linear-gradient-34" x1="-282.1" y1="3419.55" x2="-378.25" y2="3596.1" gradientTransform="translate(-965.03 -2773.23) rotate(-28.11)" xlink:href="#linear-gradient-2"/><linearGradient id="linear-gradient-35" x1="-3171.32" y1="3100.08" x2="-3238.07" y2="3189.73" gradientTransform="matrix(0.74, -0.67, -0.67, -0.74, 5647.86, 393.19)" xlink:href="#linear-gradient-4"/><linearGradient id="linear-gradient-36" x1="1183.43" y1="4567.58" x2="1230.22" y2="5038.74" gradientTransform="matrix(-0.67, -0.74, -0.74, 0.67, 5509.37, -1990.32)" xlink:href="#linear-gradient-9"/><linearGradient id="linear-gradient-37" x1="-1644.82" y1="2540.27" x2="-1729.75" y2="2663.12" gradientTransform="matrix(0.01, -1, -1, -0.01, 3992.91, -1411.05)" xlink:href="#linear-gradient-4"/><linearGradient id="linear-gradient-38" x1="-1702.27" y1="2645.17" x2="-1648.34" y2="2645.17" gradientTransform="matrix(0.01, -1, -1, -0.01, 3992.91, -1411.05)" xlink:href="#linear-gradient-2"/><linearGradient id="linear-gradient-39" x1="-1693.45" y1="2708.83" x2="-1657.82" y2="2708.83" gradientTransform="matrix(0.01, -1, -1, -0.01, 3992.91, -1411.05)" xlink:href="#linear-gradient-2"/><linearGradient id="linear-gradient-40" x1="1354.54" y1="1176.1" x2="1027.5" y2="1132.01" xlink:href="#linear-gradient-5"/><linearGradient id="linear-gradient-41" x1="1458.99" y1="951.62" x2="1474.77" y2="1354.71" gradientTransform="matrix(1, 0, 0, 1, 0, 0)" xlink:href="#linear-gradient-4"/><linearGradient id="linear-gradient-42" x1="150.77" y1="1225.76" x2="991.15" y2="1225.76" gradientUnits="userSpaceOnUse"><stop offset="0" stop-color="#020039"/><stop offset="1" stop-color="#090056"/></linearGradient><linearGradient id="linear-gradient-43" x1="250.15" y1="989.96" x2="928.08" y2="1469.46" xlink:href="#linear-gradient-9"/><linearGradient id="linear-gradient-44" x1="1438.62" y1="1225.76" x2="2279" y2="1225.76" xlink:href="#linear-gradient-42"/><linearGradient id="linear-gradient-45" x1="1463.92" y1="1226.27" x2="2228.9" y2="1226.27" xlink:href="#linear-gradient-9"/><linearGradient id="linear-gradient-46" x1="907.33" y1="922.07" x2="766.75" y2="1065.52" gradientTransform="matrix(1, 0, 0, 1, 0, 0)" xlink:href="#linear-gradient-4"/><linearGradient id="linear-gradient-47" x1="1002.05" y1="478.5" x2="1002.05" y2="877.19" xlink:href="#linear-gradient-5"/><linearGradient id="linear-gradient-48" x1="1221.2" y1="785.17" x2="1186.3" y2="1058.93" xlink:href="#linear-gradient-5"/><linearGradient id="linear-gradient-49" x1="1227.43" y1="478.5" x2="1227.43" y2="877.19" xlink:href="#linear-gradient-5"/><linearGradient id="linear-gradient-50" x1="935.18" y1="819.49" x2="186.4" y2="1807.1" gradientTransform="matrix(1, 0, 0, 1, 0, 0)" xlink:href="#linear-gradient-4"/><linearGradient id="_32" x1="809.09" y1="788.32" x2="673.13" y2="1008.8" gradientUnits="userSpaceOnUse"><stop offset="0" stop-color="#ff928e"/><stop offset="0.53" stop-color="#fea6a3"/><stop offset="1" stop-color="#feb3b1"/></linearGradient><linearGradient id="linear-gradient-51" x1="1205.15" y1="672.73" x2="1026.93" y2="1069.59" xlink:href="#linear-gradient-5"/><linearGradient id="linear-gradient-52" x1="637.31" y1="1093.78" x2="738.17" y2="1093.78" gradientUnits="userSpaceOnUse"><stop offset="0" stop-color="#e1473d"/><stop offset="1" stop-color="#e9605a"/></linearGradient><linearGradient id="linear-gradient-53" x1="661.5" y1="982.77" x2="834.13" y2="982.77" xlink:href="#linear-gradient-52"/><linearGradient id="linear-gradient-54" x1="934.07" y1="641.9" x2="735.64" y2="855.03" xlink:href="#linear-gradient-5"/><linearGradient id="linear-gradient-55" x1="728.77" y1="654.11" x2="881.55" y2="850.82" xlink:href="#linear-gradient-42"/><linearGradient id="linear-gradient-56" x1="904.95" y1="614.79" x2="706.52" y2="827.92" xlink:href="#linear-gradient-5"/><linearGradient id="linear-gradient-57" x1="1079.53" y1="1118.05" x2="1167.72" y2="1333.01" xlink:href="#linear-gradient-5"/><linearGradient id="linear-gradient-58" x1="1584.12" y1="1095.67" x2="2182.31" y2="1414.13" gradientTransform="matrix(1, 0, 0, 1, 0, 0)" xlink:href="#linear-gradient-4"/><linearGradient id="linear-gradient-59" x1="1683.97" y1="638.35" x2="1683.97" y2="1027.85" xlink:href="#linear-gradient-5"/><linearGradient id="linear-gradient-60" x1="1709.5" y1="1267.05" x2="2141.39" y2="1267.05" gradientTransform="matrix(1, 0, 0, 1, 0, 0)" xlink:href="#linear-gradient"/><linearGradient id="linear-gradient-61" x1="1932.24" y1="1224.15" x2="2024.05" y2="1635.85" xlink:href="#linear-gradient-2"/><linearGradient id="linear-gradient-62" x1="1659.7" y1="953.69" x2="2257.89" y2="1272.15" gradientTransform="matrix(1, 0, 0, 1, 0, 0)" xlink:href="#linear-gradient-4"/><linearGradient id="linear-gradient-63" x1="1764.4" y1="1084.41" x2="1948.19" y2="1182.26" xlink:href="#linear-gradient-52"/><linearGradient id="linear-gradient-64" x1="1958.9" y1="1269.97" x2="1819.04" y2="1538.94" xlink:href="#linear-gradient-5"/><linearGradient id="linear-gradient-65" x1="1789.39" y1="770.2" x2="1600.15" y2="757.34" xlink:href="#linear-gradient-5"/><linearGradient id="linear-gradient-66" x1="1561.66" y1="751.93" x2="1765.48" y2="751.93" xlink:href="#linear-gradient-2"/><linearGradient id="linear-gradient-67" x1="3110.39" y1="3945.69" x2="3234.46" y2="3818.4" gradientTransform="matrix(-0.69, -0.73, -0.73, 0.69, 6705.75, 544.78)" xlink:href="#linear-gradient-5"/><linearGradient id="linear-gradient-68" x1="783.05" y1="1391.85" x2="788.78" y2="1674.42" xlink:href="#linear-gradient-42"/><linearGradient id="linear-gradient-69" x1="1641.45" y1="1374.42" x2="1647.19" y2="1657.02" xlink:href="#linear-gradient-42"/><linearGradient id="linear-gradient-70" x1="185.91" y1="1349.41" x2="265.56" y2="1256.95" gradientTransform="translate(1247.68 427.3) rotate(61.85)" xlink:href="#linear-gradient-52"/><linearGradient id="linear-gradient-71" x1="310.58" y1="1189.51" x2="75.02" y2="1545.36" gradientTransform="translate(124.97 -20.22) rotate(5.65)" xlink:href="#linear-gradient-4"/><linearGradient id="linear-gradient-72" x1="303.55" y1="1199.7" x2="178.12" y2="1410.28" gradientTransform="matrix(1, 0, 0, 1, 0, 0)" xlink:href="#linear-gradient-4"/><linearGradient id="linear-gradient-73" x1="294.75" y1="1348.86" x2="433.42" y2="1187.9" gradientTransform="translate(965.44 38.52) rotate(45)" xlink:href="#linear-gradient-52"/><linearGradient id="linear-gradient-74" x1="511.78" y1="1070.5" x2="101.73" y2="1689.98" gradientTransform="translate(965.44 38.52) rotate(45)" xlink:href="#linear-gradient-4"/><linearGradient id="linear-gradient-75" x1="499.55" y1="1088.25" x2="281.2" y2="1454.82" gradientTransform="matrix(1, 0, 0, 1, 0, 0)" xlink:href="#linear-gradient-4"/><linearGradient id="linear-gradient-76" x1="361.95" y1="1584.54" x2="504.64" y2="1418.91" gradientTransform="translate(1786.9 625.24) rotate(78.02)" xlink:href="#linear-gradient-52"/><linearGradient id="linear-gradient-77" x1="585.27" y1="1298.11" x2="163.33" y2="1935.55" gradientTransform="translate(1149.61 55.74) rotate(45)" xlink:href="#linear-gradient-4"/><linearGradient id="linear-gradient-78" x1="572.69" y1="1316.38" x2="348.01" y2="1693.57" gradientTransform="matrix(1, 0, 0, 1, 0, 0)" xlink:href="#linear-gradient-4"/><linearGradient id="linear-gradient-79" x1="537.34" y1="1394.46" x2="641.89" y2="1273.1" gradientTransform="matrix(0.08, 1, -1, 0.08, 1857.2, 524.05)" xlink:href="#linear-gradient-52"/><linearGradient id="linear-gradient-80" x1="409.15" y1="1305.82" x2="719.64" y2="1259.33" gradientTransform="translate(1087.11 -83.21) rotate(45)" xlink:href="#linear-gradient-4"/><linearGradient id="linear-gradient-81" x1="691.74" y1="1197.98" x2="527.12" y2="1474.34" gradientTransform="matrix(1, 0, 0, 1, 0, 0)" xlink:href="#linear-gradient-4"/></defs><title>profile</title><path class="cls-1" d="M1762.28,221.45c34.57,10.29,86.27,57,131.61,131.62,55.77,91.74,88.9,99.78,167.8,54.58s171.57-14.83,238.64,105.51S2249.91,727.07,2141,873.68s108.54,108.69,179,279.93-28.9,363.34-355.77,361.05c-327.31-2.29-822.11,2.1-822.11,2.1s-458.86,40.48-625.95-64.11,38.43-155.46-117-222.34S81.55,1158.92,149.5,986.06,313.63,849,375.7,802.77s99.39-96.39,10.65-178.65S229.67,486.43,274.53,377.44C338.9,221.08,495.1,200.9,666.71,267.18s200.74,151.14,484,102C1308.64,341.79,1467.87,133.86,1762.28,221.45Z" transform="translate(-133.59 -111.86)"/><path class="cls-2" d="M1681.08,1486.07a2.16,2.16,0,0,0,4-1.59c-7.91-34.62-25.75-146.11,56.82-199.68,96.26-62.44,262.09-89.52,160.49-466.76a21.46,21.46,0,0,0-31.88-12.73c-56.54,34.37-192.21,129.61-199.33,255.88-9,159.73,18.59,193.56,4.44,252.36C1650.54,1417.52,1669.83,1467.52,1681.08,1486.07Z" transform="translate(-133.59 -111.86)"/><path class="cls-2" d="M1637.45,1494.31a1.23,1.23,0,0,1-2.4-.49c9-62.11,34.83-258,27.47-414.45C1653.65,890.86,1620.1,808,1605.35,712s46.11-217.67,209-178.36c133,32.1,237.54,54,286.53,46.91a11.77,11.77,0,0,1,12.13,17c-28.14,56-104.57,182.37-224.84,192.43-154.84,12.95-157-29.45-189.62,11.66s-30.94,81.46-28.41,157.12C1672.6,1031.63,1682.83,1319.19,1637.45,1494.31Z" transform="translate(-133.59 -111.86)"/><path class="cls-3" d="M1656.73,896.89a306.5,306.5,0,0,1-11.43-35.16,320.34,320.34,0,0,1-7.43-36.12c-3.48-24.34-4.17-49.39.24-74a154.54,154.54,0,0,1,11-35.81,127.48,127.48,0,0,1,20.27-31.74A140.56,140.56,0,0,1,1698,659.73c5.2-3.25,10.34-6.6,15.73-9.57,5.27-3.14,10.76-5.93,16.23-8.75a275,275,0,0,1,34.12-14.18,228.21,228.21,0,0,1,36-8.61,238.08,238.08,0,0,1,36.81-2.68c12.29,0,24.5.85,36.62,2,24.24,2.35,48.17,5.74,72.21,7a313.57,313.57,0,0,0,71.88-4h0a1.93,1.93,0,0,1,.71,3.8,318.24,318.24,0,0,1-72.82,5.94c-24.41-.64-48.57-3.73-72.6-5.58s-48-2.2-71.52,1.74a220.84,220.84,0,0,0-34.52,8.7,268.2,268.2,0,0,0-32.77,14.1c-5.26,2.8-10.54,5.56-15.64,8.69-5.19,2.94-10.17,6.27-15.2,9.5a131.33,131.33,0,0,0-26.43,22.76c-15.31,17.59-24.58,39.82-28.65,62.92s-3.65,47.2-.33,70.76a340.14,340.14,0,0,0,6.88,35.11,299.52,299.52,0,0,0,10.61,34l.07.17a4.64,4.64,0,0,1-8.64,3.37Z" transform="translate(-133.59 -111.86)"/><path class="cls-2" d="M1665.81,1481.92a1.35,1.35,0,0,1-2.39-1.23c8.18-22,25.92-79.26,21.71-154.31-5.43-96.8-76.55-330.41,107.3-372.69,162-37.24,257.67-45.4,302.57-76.86a9.66,9.66,0,0,1,15.23,8.22c-2.06,57.9-17.18,210.76-118.38,248.7-125.58,47.08-247.51-4.5-287.53,40.71C1665.49,1218.34,1731,1386.45,1665.81,1481.92Z" transform="translate(-133.59 -111.86)"/><path class="cls-3" d="M1676.41,1209.69a306.8,306.8,0,0,1-.64-31.32c.29-10.4.92-20.79,2-31.17a320.67,320.67,0,0,1,12.33-61.51,248.7,248.7,0,0,1,11.33-29.6,199.29,199.29,0,0,1,15.94-27.73,158.82,158.82,0,0,1,21.27-24.32l6.25-5.21c1.06-.85,2.06-1.78,3.18-2.55l3.35-2.32c2.26-1.49,4.4-3.19,6.78-4.51l7.1-4,1.78-1,1.86-.84,3.71-1.67a72.06,72.06,0,0,1,7.51-3.12l7.7-2.63c2.56-.94,5.15-1.42,7.73-2.15a183.12,183.12,0,0,1,31.55-5c21.29-1.65,42.31,1.15,62.57,3.68,20.26,2.69,40.28,4.65,60,1.6s38.51-11,55.92-21.54h0a1.74,1.74,0,0,1,2,2.88,163.87,163.87,0,0,1-26.52,16.49,132.66,132.66,0,0,1-29.83,10.45,156.5,156.5,0,0,1-31.53,3.23c-10.53,0-20.94-.77-31.21-1.62s-20.38-1.9-30.43-2.33a223.43,223.43,0,0,0-29.87.49,169.58,169.58,0,0,0-29.11,5.18c-2.35.71-4.82,1.24-7.07,2.09l-6.87,2.39a62,62,0,0,0-6.67,2.83l-3.3,1.51-1.65.75-1.58.89-6.28,3.61c-2.11,1.17-4,2.72-6,4l-3,2.08c-1,.68-1.87,1.53-2.81,2.29l-5.56,4.67a153.19,153.19,0,0,0-19.24,21.94c-11.24,16.09-19.67,34.27-26,53.25-3,9.53-5.78,19.2-7.95,29s-3.89,19.78-5.38,29.78a413,413,0,0,0-4.11,60.46v.18a4.64,4.64,0,0,1-9.27.37Z" transform="translate(-133.59 -111.86)"/><path class="cls-2" d="M884.87,1128.2s6.1-159.91-67-203.78S605.14,851.77,603.18,622c-1.15-134.51-3.63-193.36-5.49-219a15.14,15.14,0,0,1,18.11-16c69.59,14.14,295.5,71.5,340.81,226.9C1010.32,798.15,884.87,1128.2,884.87,1128.2Z" transform="translate(-133.59 -111.86)"/><path class="cls-3" d="M668.73,451.83c5.35,4.93,10.48,9.94,15.55,15.06,2.54,2.55,5,5.16,7.48,7.78s5,5.19,7.38,7.87c4.85,5.31,9.74,10.6,14.44,16l7.12,8.12,6.94,8.26,6.89,8.31,6.71,8.46c4.49,5.62,9,11.26,13.25,17,8.76,11.43,17,23.24,25.34,35,8,12,16.16,23.86,23.62,36.2l5.71,9.17,2.86,4.59,2.72,4.67,10.85,18.71,2.69,4.7,2.54,4.77,5.09,9.55,5.08,9.55,2.54,4.78,2.39,4.85c6.26,13,12.9,25.76,18.54,39.24,1.51,3.3,2.79,6.71,4.15,10.08s2.72,6.74,4,10.14L876.31,765l1.84,5.13,1.67,5.18,3.36,10.36,3.05,10.46c2.12,7,3.7,14,5.55,21.05a605.08,605.08,0,0,1,14,85.73,661.73,661.73,0,0,1,2.31,86.66q-.9,21.66-3.14,43.22c-1.48,14.4-3.44,28.61-6.36,43a4.81,4.81,0,0,1-9.48-1.63l0-.21a633.91,633.91,0,0,0,6.09-84.7,728.69,728.69,0,0,0-4-84.89,641.46,641.46,0,0,0-14.5-83.53c-6.94-27.36-15.36-54.37-26.51-80.26-22.56-51.9-50.32-101.88-81.09-149.68l-11.85-17.76c-3.88-6-8.15-11.67-12.18-17.53s-8.23-11.62-12.46-17.35l-6.32-8.61-6.51-8.47A832.13,832.13,0,0,0,665,455.77l-.06-.08a2.72,2.72,0,0,1,3.84-3.86Z" transform="translate(-133.59 -111.86)"/><path class="cls-2" d="M906.54,1475.58c11.36,5.52-107.95-143.35-146-377.73-18-110.44-18.71-248.9-81.87-302-52.56-44.2-230.74-15.48-289-4.61a8.76,8.76,0,0,0-4,15.33c28.07,23.38,88.12,78.57,103.93,134.36,20.84,73.54,91,120.09,153.71,132.52s97.6,24.6,128.51,124.68S874.24,1459.89,906.54,1475.58Z" transform="translate(-133.59 -111.86)"/><path class="cls-3" d="M471.74,822.11A283,283,0,0,1,580.88,849a221.66,221.66,0,0,1,48,30.5,192.61,192.61,0,0,1,37.9,42.69l3.84,6.05c1.27,2,2.34,4.17,3.52,6.25s2.34,4.2,3.38,6.29l3.14,6.27q6.32,12.53,12.45,25.13,12.27,25.23,23.71,50.85c15.28,34.15,29.46,68.77,41.45,104.29a1.87,1.87,0,0,1-3.51,1.31l0,0c-7.06-17.2-14.42-34.35-22.11-51.31s-15.4-33.93-23.37-50.77-16.05-33.62-24.35-50.3q-6.14-12.56-12.49-25L669.24,945c-1-2.08-2.18-4-3.27-6s-2.12-4-3.31-6L659,927.18c-9.7-15.43-22.13-29-35.81-41.07a212.24,212.24,0,0,0-21.9-16.5l-2.86-1.91-2.93-1.8c-2-1.19-3.89-2.44-5.87-3.59-4-2.24-8-4.55-12.11-6.58a285.07,285.07,0,0,0-51.48-20.05,298.52,298.52,0,0,0-54.43-10.56h-.1a1.5,1.5,0,0,1,.2-3Z" transform="translate(-133.59 -111.86)"/><path class="cls-2" d="M850.13,1535.51c6.73,3.55-37.92-73.31-41.35-141s-18.7-183.29-77.09-252.42-122.34-75.44-202.92-12.59c-67.14,52.37-109,78.8-133.59,83.71a9.29,9.29,0,0,0-6.22,13.54c15.75,29,60.29,95.65,135.08,91,95.39-6,211-68,246.25-16.26s30.71,80.67,31.79,105.19S805.58,1512,850.13,1535.51Z" transform="translate(-133.59 -111.86)"/><path class="cls-3" d="M555.92,1212.57a187.27,187.27,0,0,1,16.58-14,216.84,216.84,0,0,1,17.87-12.39,178.38,178.38,0,0,1,39.57-18.75,125.14,125.14,0,0,1,21.71-4.92,92.61,92.61,0,0,1,22.57-.09c1.88.3,3.77.48,5.64.89s3.76.79,5.54,1.31l10.56,3.27,10.33,4,10,4.82A126,126,0,0,1,751.19,1204c9.95,11,17.7,23.66,24.07,36.76,1.61,3.27,3.24,6.54,4.53,9.94s2.81,6.71,4.07,10.11l3.52,10.29c1.25,3.41,2,7,3,10.42a375,375,0,0,1,9,42.26,1.67,1.67,0,0,1-3.27.68l0-.06c-3.43-13.86-6.7-27.74-11.37-41.15-2.12-6.78-4.79-13.33-7.27-20-1.34-3.26-2.86-6.44-4.28-9.67s-3-6.35-4.68-9.44A159.58,159.58,0,0,0,744.68,1210a122.31,122.31,0,0,0-32.77-25l-9.37-4.43-9.7-3.71-10-3c-1.65-.47-3.26-.78-4.89-1.18s-3.31-.54-5-.83a83.29,83.29,0,0,0-20.27-.06,115.2,115.2,0,0,0-20.22,4.07,195.94,195.94,0,0,0-38.63,16.32c-6.18,3.41-12.31,6.95-18.26,10.81s-11.81,7.93-17.41,12.19l0,0a1.74,1.74,0,0,1-2.26-2.63Z" transform="translate(-133.59 -111.86)"/><path class="cls-4" d="M871.38,271.4l746.23,8.22c41.25.46,73.61,36.05,73.58,80.76l-.66,1106.18c0,31-25.08,56.61-55.3,56.75l-800,3.53c-28.23.12-51.39-23.49-51.39-52.47V365.76C783.81,313.23,823,270.87,871.38,271.4Z" transform="translate(-133.59 -111.86)"/><path class="cls-5" d="M1555.39,377.45H928.13a47.62,47.62,0,0,0-47.43,47.3v912.94c0,25.62,21.13,45.49,47.43,45.49h627.26c26.31,0,47.83-19.87,47.83-45.49V424.75C1603.22,399.12,1581.7,377.45,1555.39,377.45Z" transform="translate(-133.59 -111.86)"/><path class="cls-6" d="M1203.43,1155.38V1115.2c-41.88-1.68-83.31-11.57-112.74-24.45a23.24,23.24,0,0,1-12.84-27.45l10.21-37.43a23.42,23.42,0,0,1,31.8-15.33c29.19,12.24,65.23,21.92,104.09,21.92,40.34,0,70.43-13.68,70.43-41.72,0-25.29-23.25-40.34-79.32-55.38-80-21.88-137.44-56.75-137.44-127.18,0-63.6,46.5-112.14,127.18-125.13V642.86a23.41,23.41,0,0,1,23.41-23.41h23.61a23.41,23.41,0,0,1,23.41,23.41v36.08c38.76,1.55,67,8.18,89.36,16a23.29,23.29,0,0,1,14.56,28.12l-9.39,34.61a23.35,23.35,0,0,1-30.82,15.77,243.65,243.65,0,0,0-87.64-15.91c-47.87,0-61.54,19.83-61.54,37.6,0,21.89,28.72,36.93,90.94,56.08,88.89,26.66,125.82,63.59,125.82,129.91,0,60.86-45.13,115.56-132.66,129.24v45a23.42,23.42,0,0,1-23.41,23.41h-23.61A23.42,23.42,0,0,1,1203.43,1155.38Z" transform="translate(-133.59 -111.86)"/><path class="cls-7" d="M2154,876.38l-385.72-34.23A30.43,30.43,0,0,1,1740.52,812l-1.42-260.07a30.42,30.42,0,0,1,32.54-30.52L2182.37,550a30.42,30.42,0,0,1,28.19,33L2187,848.76A30.42,30.42,0,0,1,2154,876.38Z" transform="translate(-133.59 -111.86)"/><path class="cls-8" d="M1761.71,577.11l-2.55,224.55a18.81,18.81,0,0,0,17,18.94L2146,857.34a18.82,18.82,0,0,0,20.6-17.07l21.31-240.1a18.82,18.82,0,0,0-17.72-20.46l-388.62-21.18A18.83,18.83,0,0,0,1761.71,577.11Z" transform="translate(-133.59 -111.86)"/><path class="cls-7" d="M1937.05,773.3l209.32,12.28a3.82,3.82,0,0,1,3.58,4.14l-.3,3.37a3.81,3.81,0,0,1-4.08,3.46l-209-15.64a3.82,3.82,0,0,1-3.51-4.14h0A3.82,3.82,0,0,1,1937.05,773.3Z" transform="translate(-133.59 -111.86)"/><path class="cls-7" d="M1931.48,794.27l-.13,1.43a3.83,3.83,0,0,0,3.46,4.14l208.77,18.52a3.8,3.8,0,0,0,4.13-3.46l.13-1.43a3.82,3.82,0,0,0-3.46-4.13l-208.77-18.53A3.82,3.82,0,0,0,1931.48,794.27Z" transform="translate(-133.59 -111.86)"/><path class="cls-7" d="M1993.18,818.61l0,.63a3.8,3.8,0,0,0,3.46,4.13L2142,836.28a3.81,3.81,0,0,0,4.13-3.46l.26-3a3.81,3.81,0,0,0-3.52-4.14l-145.6-10.57A3.82,3.82,0,0,0,1993.18,818.61Z" transform="translate(-133.59 -111.86)"/><path class="cls-9" d="M2121.65,783.47l-455.21-9.26a35.77,35.77,0,0,1-35-33.14l-22.5-305a35.78,35.78,0,0,1,35.73-38.41l484.08.64a35.78,35.78,0,0,1,35.73,36.5l-6.39,313.59A35.76,35.76,0,0,1,2121.65,783.47Z" transform="translate(-133.59 -111.86)"/><path class="cls-10" d="M1637.53,463.83l15,263.61a22.13,22.13,0,0,0,21.41,20.86l436.81,13.47a22.13,22.13,0,0,0,22.8-21.66l5.77-283.36a22.13,22.13,0,0,0-22.42-22.58l-457.57,6.28A22.13,22.13,0,0,0,1637.53,463.83Z" transform="translate(-133.59 -111.86)"/><path class="cls-11" d="M1858.92,679.93l246.53-2.36a4.48,4.48,0,0,1,4.52,4.57l-.08,4a4.48,4.48,0,0,1-4.51,4.39l-246.44-1.61a4.49,4.49,0,0,1-4.45-4.57h0A4.47,4.47,0,0,1,1858.92,679.93Z" transform="translate(-133.59 -111.86)"/><path class="cls-12" d="M1854.07,705l0,1.69a4.48,4.48,0,0,0,4.39,4.57l246.38,5a4.49,4.49,0,0,0,4.57-4.39l0-1.69a4.48,4.48,0,0,0-4.39-4.57l-246.37-5A4.48,4.48,0,0,0,1854.07,705Z" transform="translate(-133.59 -111.86)"/><path class="cls-13" d="M1928.4,728.58l0,.74a4.48,4.48,0,0,0,4.39,4.57l171.59,3.5a4.49,4.49,0,0,0,4.58-4.39l.07-3.49a4.48,4.48,0,0,0-4.46-4.57l-171.65-.75A4.48,4.48,0,0,0,1928.4,728.58Z" transform="translate(-133.59 -111.86)"/><path class="cls-14" d="M2052.24,723.65h-505a39.7,39.7,0,0,1-39.51-36L1475.9,350a39.68,39.68,0,0,1,38.75-43.39l536.83-10.22a39.67,39.67,0,0,1,40.44,39.67V684A39.69,39.69,0,0,1,2052.24,723.65Z" transform="translate(-133.59 -111.86)"/><path class="cls-15" d="M1508.17,380.11l22.58,292A24.54,24.54,0,0,0,1555,694.75l484.69,5.08a24.54,24.54,0,0,0,24.8-24.54V360.93a24.54,24.54,0,0,0-25.37-24.53l-507.27,17.29A24.55,24.55,0,0,0,1508.17,380.11Z" transform="translate(-133.59 -111.86)"/><path class="cls-7" d="M1766.94,377.44l273.32-8.18a5,5,0,0,1,5.12,5v4.4a5,5,0,0,1-4.9,5l-273.33,3.78a5,5,0,0,1-5-5h0A5,5,0,0,1,1766.94,377.44Z" transform="translate(-133.59 -111.86)"/><rect class="cls-7" x="1628.52" y="288.5" width="283.27" height="11.82" rx="4.97"/><path class="cls-7" d="M1695.36,651.11a2.22,2.22,0,0,1-2.23-2.22l0-6.69a2.25,2.25,0,0,1,2.23-2.24h0a2.23,2.23,0,0,1,2.23,2.23l0,6.69a2.22,2.22,0,0,1-2.22,2.23Zm-.06-22.3a2.23,2.23,0,0,1-2.23-2.22V619.9a2.23,2.23,0,0,1,2.22-2.24h0a2.24,2.24,0,0,1,2.23,2.23v6.69a2.22,2.22,0,0,1-2.22,2.23Zm0-22.3a2.22,2.22,0,0,1-2.23-2.22l0-6.69a2.24,2.24,0,0,1,2.22-2.24h0a2.23,2.23,0,0,1,2.23,2.23l0,6.69a2.23,2.23,0,0,1-2.23,2.23Zm-.06-22.3A2.22,2.22,0,0,1,1693,582l0-6.69a2.25,2.25,0,0,1,2.23-2.24h0a2.23,2.23,0,0,1,2.23,2.23l0,6.69a2.22,2.22,0,0,1-2.22,2.23Z" transform="translate(-133.59 -111.86)"/><path class="cls-7" d="M1807.36,644.76a2.23,2.23,0,0,1-2.23-2.23v-6.69a2.23,2.23,0,0,1,4.46,0v6.69A2.23,2.23,0,0,1,1807.36,644.76Zm0-22.3a2.23,2.23,0,0,1-2.23-2.23v-6.69a2.23,2.23,0,0,1,4.46,0v6.69A2.23,2.23,0,0,1,1807.36,622.46Zm0-22.3a2.23,2.23,0,0,1-2.23-2.23v-6.69a2.23,2.23,0,0,1,4.46,0v6.69A2.23,2.23,0,0,1,1807.36,600.16Zm0-22.3a2.23,2.23,0,0,1-2.23-2.23v-6.69a2.23,2.23,0,0,1,4.46,0v6.69A2.23,2.23,0,0,1,1807.36,577.86Zm0-22.3a2.23,2.23,0,0,1-2.23-2.23v-6.69a2.23,2.23,0,0,1,4.46,0v6.69A2.23,2.23,0,0,1,1807.36,555.56Z" transform="translate(-133.59 -111.86)"/><path class="cls-7" d="M1892.79,663.19a2.24,2.24,0,0,1-2.23-2.16l-.12-4a2.21,2.21,0,0,1,2.15-2.29,2.17,2.17,0,0,1,2.3,2.16l.13,4a2.23,2.23,0,0,1-2.16,2.3Zm-.61-19.6a2.23,2.23,0,0,1-2.23-2.16l-.21-6.68a2.23,2.23,0,1,1,4.46-.14l.21,6.68a2.23,2.23,0,0,1-2.16,2.3Zm-.69-22.29a2.23,2.23,0,0,1-2.23-2.16l-.21-6.68a2.23,2.23,0,1,1,4.46-.14l.21,6.68a2.23,2.23,0,0,1-2.16,2.3ZM1890.8,599a2.23,2.23,0,0,1-2.23-2.16l-.21-6.69a2.23,2.23,0,0,1,4.46-.13l.21,6.68a2.24,2.24,0,0,1-2.16,2.3Zm-.7-22.29a2.22,2.22,0,0,1-2.22-2.16l-.21-6.68a2.23,2.23,0,0,1,2.16-2.3,2.18,2.18,0,0,1,2.3,2.16l.2,6.68a2.22,2.22,0,0,1-2.15,2.3Zm-.69-22.29a2.22,2.22,0,0,1-2.22-2.16l-.21-6.68a2.23,2.23,0,0,1,2.16-2.3,2.21,2.21,0,0,1,2.3,2.16l.2,6.69a2.22,2.22,0,0,1-2.16,2.29Zm-.69-22.28a2.24,2.24,0,0,1-2.23-2.16l-.2-6.69a2.23,2.23,0,0,1,2.16-2.3,2.19,2.19,0,0,1,2.29,2.16l.21,6.69a2.22,2.22,0,0,1-2.16,2.29Z" transform="translate(-133.59 -111.86)"/><path class="cls-7" d="M1974,650.7a2.23,2.23,0,0,1-2.23-2.23v-6.69a2.23,2.23,0,0,1,4.46,0v6.69A2.23,2.23,0,0,1,1974,650.7Zm0-22.3a2.23,2.23,0,0,1-2.23-2.23v-6.69a2.23,2.23,0,0,1,4.46,0v6.69A2.23,2.23,0,0,1,1974,628.4Zm0-22.3a2.23,2.23,0,0,1-2.23-2.23v-6.69a2.23,2.23,0,0,1,4.46,0v6.69A2.23,2.23,0,0,1,1974,606.1Zm0-22.3a2.23,2.23,0,0,1-2.23-2.23v-6.69a2.23,2.23,0,1,1,4.46,0v6.69A2.23,2.23,0,0,1,1974,583.8Zm0-22.3a2.23,2.23,0,0,1-2.23-2.23v-6.69a2.23,2.23,0,0,1,4.46,0v6.69A2.23,2.23,0,0,1,1974,561.5Zm0-22.3a2.23,2.23,0,0,1-2.23-2.23v-6.69a2.23,2.23,0,0,1,4.46,0V537A2.23,2.23,0,0,1,1974,539.2Zm0-22.3a2.22,2.22,0,0,1-2.23-2.22V508a2.23,2.23,0,0,1,4.46,0v6.7A2.22,2.22,0,0,1,1974,516.9Zm0-22.3a2.22,2.22,0,0,1-2.23-2.22v-6.69a2.23,2.23,0,1,1,4.46,0v6.69A2.22,2.22,0,0,1,1974,494.6Zm0-22.29a2.23,2.23,0,0,1-2.23-2.24v-6.68a2.23,2.23,0,1,1,4.46,0v6.68A2.23,2.23,0,0,1,1974,472.31Z" transform="translate(-133.59 -111.86)"/><path class="cls-7" d="M1575.47,677a3.35,3.35,0,0,1-3.33-3.06l-22.86-270a3.35,3.35,0,1,1,6.67-.56l22.86,270a3.36,3.36,0,0,1-3.06,3.62Z" transform="translate(-133.59 -111.86)"/><polygon class="cls-7" points="1408.85 306.08 1419.19 293.82 1431.45 304.17 1430.63 294.57 1418.38 284.23 1408.03 296.49 1408.85 306.08"/><path class="cls-7" d="M2028.53,664.3h-470.4a3.35,3.35,0,1,1,0-6.69h470.4a3.35,3.35,0,0,1,0,6.69Z" transform="translate(-133.59 -111.86)"/><polygon class="cls-7" points="1881.61 560.44 1892.96 549.1 1881.61 537.76 1891.24 537.76 1902.58 549.1 1891.24 560.44 1881.61 560.44"/><path class="cls-7" d="M1595,586.73a3.34,3.34,0,0,1-.44-6.66c2.47-.33,248.76-34.06,383.59-133.47a3.34,3.34,0,1,1,4,5.38C1845.94,552.42,1598,586.37,1595.48,586.7A3.15,3.15,0,0,1,1595,586.73Z" transform="translate(-133.59 -111.86)"/><path class="cls-7" d="M1981.21,467.08h-.27a3.33,3.33,0,0,1-3.07-3.59l1-13.14-18.52-1.1a3.35,3.35,0,0,1-3.14-3.54,3.31,3.31,0,0,1,3.54-3.14l21.92,1.3a3.34,3.34,0,0,1,3.14,3.6l-1.3,16.54A3.34,3.34,0,0,1,1981.21,467.08Z" transform="translate(-133.59 -111.86)"/><path class="cls-16" d="M258.29,543.63,525.33,401A31.37,31.37,0,0,1,567,412.47L793.53,789.1A23.13,23.13,0,0,1,785,821.22L481.88,990.29a22,22,0,0,1-30.06-8.83L243.66,591.81A35.61,35.61,0,0,1,258.29,543.63Z" transform="translate(-133.59 -111.86)"/><path class="cls-17" d="M523.17,960h0l-34.48,17.86a24.1,24.1,0,0,1-32.22-10l-27.62-51.71a1,1,0,0,1,.4-1.34,1,1,0,0,1,1.34.41l27.62,51.71a22.12,22.12,0,0,0,29.57,9.18l34.48-17.85a1,1,0,0,1,1.34.42A1,1,0,0,1,523.17,960Z" transform="translate(-133.59 -111.86)"/><path class="cls-17" d="M421.61,900.48a1,1,0,0,1-1.33-.41l-4.47-8.37a1,1,0,0,1,.4-1.34h0a1,1,0,0,1,1.33.41l4.47,8.37a1,1,0,0,1-.4,1.34Z" transform="translate(-133.59 -111.86)"/><path class="cls-5" d="M257.44,540.05c39.1-14.53,172.67-66.23,272.1-129.57a9.56,9.56,0,0,1,13.33,3.1L771.29,791.42a11,11,0,0,1-3.67,15.08C725.4,832.37,551.15,938.28,483.51,965.79a8.71,8.71,0,0,1-10.95-3.93L252,554.68A10.34,10.34,0,0,1,257.44,540.05Z" transform="translate(-133.59 -111.86)"/><path class="cls-2" d="M266.73,548.05c37.64-14,166.18-63.73,261.86-124.69a9.2,9.2,0,0,1,12.83,3L761.24,790a10.59,10.59,0,0,1-3.53,14.51c-40.64,24.9-208.33,126.82-273.42,153.29A8.38,8.38,0,0,1,473.76,954L261.45,562.13A10,10,0,0,1,266.73,548.05Z" transform="translate(-133.59 -111.86)"/><path class="cls-18" d="M542.38,458.25c1.94-1,2.81-3.05,1.92-4.48s-3.21-1.76-5.16-.74L313.36,571.37c-1.95,1-1.89,2.57.13,3.44l2.25,1a9.41,9.41,0,0,0,7.2-.3Z" transform="translate(-133.59 -111.86)"/><path class="cls-19" d="M321.35,586.32c-2,1-1.89,2.58.13,3.45l2.25,1a9.41,9.41,0,0,0,7.2-.3L550.37,473.21c2-1,2.81-3,1.92-4.48s-3.21-1.76-5.16-.74Z" transform="translate(-133.59 -111.86)"/><path class="cls-17" d="M432.13,701.86l-.08,0-29.69,16.74c-4.27,2.41-9.47,1.5-12.09-2.11l-16.88-23.27a6.29,6.29,0,0,1-1.07-4.84,7.54,7.54,0,0,1,3.26-4.89h0c2.4-1.6,5.66-3.87,9.25-6.37,7.81-5.44,16.66-11.6,22.09-14.82l.12-.07a9.58,9.58,0,0,1,11.58,1.1c4.83,4.81,10.9,15.65,17.22,27.29C437.91,694.49,436.25,699.49,432.13,701.86Zm-55-16a4.83,4.83,0,0,0-2.08,3.07,3.59,3.59,0,0,0,.59,2.72l16.88,23.27c1.79,2.47,5.43,3,8.48,1.31l29.68-16.73.06,0c2.82-1.62,4-5,2.66-7.45-6.22-11.45-12.18-22.11-16.74-26.65a6.88,6.88,0,0,0-8.32-.61c-5.34,3.17-14.54,9.57-21.93,14.71-3.6,2.51-6.87,4.79-9.28,6.4Z" transform="translate(-133.59 -111.86)"/><path class="cls-20" d="M381.74,686.51c5.95-4,18.64-13.14,25-16.91a6.61,6.61,0,0,1,8,.66c3.86,3.85,8.94,13,13.56,21.55,1.39,2.55.24,5.89-2.6,7.49L402,712.67a6.29,6.29,0,0,1-8.22-1.37l-13.48-18.59A4.42,4.42,0,0,1,381.74,686.51Z" transform="translate(-133.59 -111.86)"/><path class="cls-21" d="M444.28,660.65a2.84,2.84,0,0,0-.7,4.75l6.76,6.83a5.49,5.49,0,0,0,6.28.84l146.55-84.49a3.91,3.91,0,0,0,1.39-5.42l-2.44-4a4.25,4.25,0,0,0-5.59-1.51Z" transform="translate(-133.59 -111.86)"/><path class="cls-22" d="M385.23,689.67h0a5.23,5.23,0,0,1,7.23-1.9l11.84,7.07a1.68,1.68,0,0,0,2.54-1.61l-4.1-40.47a1.86,1.86,0,0,1,3.48-1.08c5.53,9.92,13.69,30.11,7,54.82,0,0-10.6,1.63-26.4-9.66A5.5,5.5,0,0,1,385.23,689.67Z" transform="translate(-133.59 -111.86)"/><path class="cls-17" d="M396.68,634l-.08.05-29.68,16.74c-4.28,2.41-9.48,1.5-12.1-2.11l-16.88-23.27a6.29,6.29,0,0,1-1.07-4.84,7.53,7.53,0,0,1,3.27-4.89h0c2.39-1.6,5.65-3.87,9.24-6.37,7.81-5.44,16.66-11.6,22.09-14.82l.12-.07a9.58,9.58,0,0,1,11.58,1.1c4.83,4.8,10.9,15.65,17.22,27.29C402.46,626.67,400.8,631.67,396.68,634Zm-55-16a4.76,4.76,0,0,0-2.08,3.07,3.51,3.51,0,0,0,.59,2.72l16.87,23.27c1.79,2.47,5.43,3,8.48,1.31l29.68-16.73.06,0c2.82-1.62,4-5,2.66-7.46-6.22-11.45-12.18-22.1-16.74-26.64a6.88,6.88,0,0,0-8.32-.61c-5.34,3.17-14.54,9.57-21.93,14.71-3.6,2.51-6.87,4.79-9.27,6.4Z" transform="translate(-133.59 -111.86)"/><path class="cls-23" d="M346.29,618.69c6-4,18.64-13.14,25-16.91a6.61,6.61,0,0,1,8,.66c3.86,3.85,8.94,13,13.56,21.55,1.39,2.55.24,5.89-2.6,7.49l-23.72,13.37a6.3,6.3,0,0,1-8.22-1.37l-13.48-18.59A4.42,4.42,0,0,1,346.29,618.69Z" transform="translate(-133.59 -111.86)"/><path class="cls-24" d="M408.83,592.83a2.84,2.84,0,0,0-.7,4.75l6.76,6.83a5.5,5.5,0,0,0,6.29.84l146.54-84.49a3.91,3.91,0,0,0,1.39-5.42l-2.44-4a4.25,4.25,0,0,0-5.59-1.51Z" transform="translate(-133.59 -111.86)"/><path class="cls-25" d="M349.78,621.85h0a5.24,5.24,0,0,1,7.23-1.91L368.85,627a1.68,1.68,0,0,0,2.54-1.61l-4.1-40.47a1.86,1.86,0,0,1,3.48-1.08c5.53,9.92,13.7,30.11,7,54.82,0,0-10.6,1.63-26.4-9.67A5.49,5.49,0,0,1,349.78,621.85Z" transform="translate(-133.59 -111.86)"/><path class="cls-17" d="M468.6,765.13l-.08,0-29.68,16.74c-4.28,2.41-9.48,1.51-12.09-2.1l-16.88-23.27a6.33,6.33,0,0,1-1.08-4.85,7.57,7.57,0,0,1,3.27-4.88h0c2.39-1.61,5.65-3.88,9.24-6.38,7.81-5.43,16.67-11.59,22.1-14.82l.12-.07a9.6,9.6,0,0,1,11.58,1.1c4.82,4.81,10.9,15.65,17.21,27.29C474.39,757.75,472.72,762.75,468.6,765.13Zm-55-16a4.75,4.75,0,0,0-2.08,3.06,3.49,3.49,0,0,0,.59,2.72L429,778.17c1.78,2.47,5.43,3,8.48,1.32l29.68-16.74,0,0c2.83-1.63,4-5,2.66-7.46-6.22-11.45-12.18-22.11-16.73-26.65a6.94,6.94,0,0,0-8.32-.61c-5.35,3.17-14.54,9.57-21.93,14.72-3.6,2.5-6.88,4.78-9.28,6.4Z" transform="translate(-133.59 -111.86)"/><path class="cls-26" d="M418.21,749.77c6-4,18.65-13.14,25-16.9a6.58,6.58,0,0,1,8,.65c3.87,3.85,8.95,13,13.57,21.55,1.38,2.55.23,5.89-2.6,7.49l-23.72,13.37c-2.92,1.65-6.47,1.06-8.22-1.36L416.74,756A4.43,4.43,0,0,1,418.21,749.77Z" transform="translate(-133.59 -111.86)"/><path class="cls-27" d="M480.75,723.91a2.85,2.85,0,0,0-.69,4.76l6.76,6.82a5.51,5.51,0,0,0,6.28.85l146.54-84.5a3.91,3.91,0,0,0,1.4-5.42l-2.45-4a4.23,4.23,0,0,0-5.58-1.5Z" transform="translate(-133.59 -111.86)"/><path class="cls-28" d="M421.71,752.93h0a5.22,5.22,0,0,1,7.23-1.9l11.84,7.08a1.68,1.68,0,0,0,2.53-1.61L439.22,716a1.86,1.86,0,0,1,3.48-1.08c5.52,9.92,13.69,30.12,7,54.82,0,0-10.6,1.63-26.4-9.66A5.49,5.49,0,0,1,421.71,752.93Z" transform="translate(-133.59 -111.86)"/><path class="cls-29" d="M500.86,827.47l-.07,0L471.1,844.25c-4.27,2.41-9.47,1.51-12.09-2.1l-16.88-23.27a6.32,6.32,0,0,1-1.07-4.85,7.52,7.52,0,0,1,3.26-4.88h0c2.39-1.61,5.65-3.87,9.24-6.37,7.42-5.17,16.67-11.6,22.1-14.83,3.88-2.25,8.75-1.91,11.7,1,4.83,4.81,10.9,15.66,17.22,27.29C506.65,820.09,505,825.09,500.86,827.47Zm-55-16a4.76,4.76,0,0,0-2.07,3.06,3.49,3.49,0,0,0,.59,2.72l16.87,23.27c1.79,2.47,5.43,3,8.48,1.32l29.68-16.74c2.75-1.65,4.08-5,2.72-7.49C495.92,806.15,490,795.5,485.4,791c-2-2-5.57-2.24-8.32-.6-5.35,3.17-14.54,9.57-21.94,14.71-3.59,2.51-6.87,4.78-9.27,6.4Z" transform="translate(-133.59 -111.86)"/><path class="cls-30" d="M450.48,812.11c5.95-4,18.64-13.13,25-16.9a6.6,6.6,0,0,1,8,.65c3.86,3.85,8.94,13,13.56,21.56,1.39,2.55.24,5.88-2.6,7.48l-23.72,13.37a6.29,6.29,0,0,1-8.22-1.36L449,818.31A4.42,4.42,0,0,1,450.48,812.11Z" transform="translate(-133.59 -111.86)"/><path class="cls-31" d="M513,786.25a2.85,2.85,0,0,0-.7,4.76l6.76,6.82a5.49,5.49,0,0,0,6.28.85l146.55-84.5a3.91,3.91,0,0,0,1.39-5.42l-2.44-4a4.24,4.24,0,0,0-5.59-1.5Z" transform="translate(-133.59 -111.86)"/><path class="cls-32" d="M454,815.27h0a5.23,5.23,0,0,1,7.23-1.9L473,820.45a1.68,1.68,0,0,0,2.54-1.61l-4.1-40.48a1.86,1.86,0,0,1,3.48-1.08c5.53,9.92,13.69,30.12,7,54.82,0,0-10.6,1.63-26.4-9.66A5.5,5.5,0,0,1,454,815.27Z" transform="translate(-133.59 -111.86)"/><path class="cls-17" d="M533.63,892.05l-.08,0-29.68,16.74c-4.28,2.41-9.47,1.51-12.09-2.1L474.9,883.46a6.32,6.32,0,0,1-1.07-4.85,7.52,7.52,0,0,1,3.26-4.88h0c2.39-1.61,5.65-3.88,9.24-6.37,7.82-5.44,16.67-11.6,22.1-14.83,4-2.25,8.75-1.91,11.7,1,4.82,4.81,10.9,15.66,17.22,27.29C539.42,884.67,537.75,889.67,533.63,892.05Zm-55-16a4.77,4.77,0,0,0-2.08,3.06,3.57,3.57,0,0,0,.59,2.72L494,905.1c1.79,2.46,5.43,3,8.48,1.31l29.68-16.74.06,0c2.82-1.63,4-5,2.65-7.46-6.21-11.45-12.17-22.1-16.73-26.65-2-2-5.56-2.21-8.32-.6-5.34,3.17-14.54,9.57-21.93,14.71-3.6,2.51-6.88,4.78-9.28,6.4Z" transform="translate(-133.59 -111.86)"/><path class="cls-33" d="M483.25,876.69c5.95-4,18.64-13.13,25-16.9a6.58,6.58,0,0,1,8,.65c3.87,3.85,8.95,13,13.57,21.56,1.39,2.55.23,5.88-2.6,7.48l-23.72,13.37a6.28,6.28,0,0,1-8.22-1.36l-13.48-18.6A4.42,4.42,0,0,1,483.25,876.69Z" transform="translate(-133.59 -111.86)"/><path class="cls-34" d="M545.78,850.83a2.85,2.85,0,0,0-.69,4.76l6.76,6.82a5.48,5.48,0,0,0,6.28.85l146.55-84.5a3.91,3.91,0,0,0,1.39-5.42l-2.45-4a4.23,4.23,0,0,0-5.58-1.5Z" transform="translate(-133.59 -111.86)"/><path class="cls-35" d="M486.74,879.85h0A5.22,5.22,0,0,1,494,878L505.81,885a1.68,1.68,0,0,0,2.53-1.61l-4.09-40.48a1.86,1.86,0,0,1,3.48-1.08c5.52,9.92,13.69,30.12,7,54.83,0,0-10.6,1.62-26.4-9.67A5.49,5.49,0,0,1,486.74,879.85Z" transform="translate(-133.59 -111.86)"/><path class="cls-36" d="M380.17,410.67c-13.23-1.56-21.54,3.05-26.52,7.95a13.36,13.36,0,0,0-1.75,16.85l17.4,26.43L401,448.4S406.12,413.72,380.17,410.67Zm-1.34,29.54a8.57,8.57,0,1,1,3.52-11.6A8.57,8.57,0,0,1,378.83,440.21Z" transform="translate(-133.59 -111.86)"/><path class="cls-37" d="M365.92,449.55a1.72,1.72,0,0,1-1.65-.75l-2.77-4.21a1.7,1.7,0,1,1,2.84-1.87l2.77,4.21a1.69,1.69,0,0,1-.49,2.35A1.76,1.76,0,0,1,365.92,449.55Zm-5.42-8.25a1.73,1.73,0,0,1-1.66-.75l-2.11-3.2a13.61,13.61,0,0,1,1.79-17.15,26.52,26.52,0,0,1,11.2-6.59,1.72,1.72,0,0,1,2.11,1.15,1.69,1.69,0,0,1-1.15,2.11,23.17,23.17,0,0,0-9.77,5.75,10.19,10.19,0,0,0-1.33,12.86l2.1,3.2a1.69,1.69,0,0,1-.49,2.35A1.64,1.64,0,0,1,360.5,441.3Z" transform="translate(-133.59 -111.86)"/><path class="cls-38" d="M337.54,502l-7.47-14a9.67,9.67,0,0,1,4.27-13.23l98.1-48.17a9.41,9.41,0,0,1,12.16,3.52l8,13Z" transform="translate(-133.59 -111.86)"/><path class="cls-39" d="M360.18,467.89a1,1,0,0,1-.92-1.75l4.14-2.21a1,1,0,1,1,.93,1.74l-4.14,2.22Z" transform="translate(-133.59 -111.86)"/><path class="cls-40" d="M340.26,495.73a1.69,1.69,0,0,1-1.74-.88l-3-5.65a9.85,9.85,0,0,1,4.05-13.34l15.23-8.13a1.7,1.7,0,0,1,1.6,3l-15.23,8.14a6.44,6.44,0,0,0-2.65,8.72l3,5.66a1.7,1.7,0,0,1-.7,2.3A1.67,1.67,0,0,1,340.26,495.73Z" transform="translate(-133.59 -111.86)"/><path class="cls-41" d="M304.62,513l168.46-90a14.13,14.13,0,0,1,17.79,3.78l.58.74a12.12,12.12,0,0,1-3.85,18.15L314.77,538a7.89,7.89,0,0,1-10.84-3.58l-3.76-7.93A10.3,10.3,0,0,1,304.62,513Z" transform="translate(-133.59 -111.86)"/><path class="cls-7" d="M1026.64,256.39s.46-.76,1.33-2.13a1.68,1.68,0,0,1,2.31-.5,1.61,1.61,0,0,1,.69.9c.72-.19,1.53-.41,2.43-.62a1.67,1.67,0,1,1,.79,3.24c-2.53.62-4.31,1.17-5.17,1.43l-.5.15-4,1.07Zm6.06-9.12c1.6-2.25,3.28-4.54,5-6.78a1.67,1.67,0,1,1,2.65,2c-1.69,2.21-3.34,4.46-4.92,6.68a1.66,1.66,0,0,1-2.33.4,1.72,1.72,0,0,1-.34-.32A1.68,1.68,0,0,1,1032.7,247.27Zm7.65,7a1.68,1.68,0,0,1,1.41-1.9,85,85,0,0,1,8.49-.81,1.67,1.67,0,1,1,.15,3.34,78.09,78.09,0,0,0-8.15.78,1.67,1.67,0,0,1-1.55-.61A1.71,1.71,0,0,1,1040.35,254.3Zm16.67-1a1.66,1.66,0,0,1,1.8-1.53,55.47,55.47,0,0,1,8.5,1.34,1.67,1.67,0,0,1-.78,3.24,52.45,52.45,0,0,0-8-1.25,1.67,1.67,0,0,1-1.16-.62A1.65,1.65,0,0,1,1057,253.27Zm-14.09-19.37c1.8-2.19,3.64-4.34,5.48-6.4a1.66,1.66,0,1,1,2.49,2.21c-1.8,2-3.62,4.16-5.39,6.31a1.68,1.68,0,0,1-2.35.23,1.88,1.88,0,0,1-.24-.25A1.66,1.66,0,0,1,1042.93,233.9Zm30.37,22.8a1.67,1.67,0,0,1,2.21-.83,40.1,40.1,0,0,1,5.43,3c.67.44,1.33.85,2,1.25a1.67,1.67,0,0,1-1.73,2.86c-.69-.42-1.38-.86-2.09-1.32a36.73,36.73,0,0,0-5-2.75,1.52,1.52,0,0,1-.61-.47A1.66,1.66,0,0,1,1073.3,256.7Zm22.75,23.66a1.68,1.68,0,0,1,1.77-.39,12.5,12.5,0,0,1,5-.33,1.67,1.67,0,1,1-.36,3.32,7.41,7.41,0,0,0-5.38,1l-2.13-2.56Zm-8.11-15.66a1.67,1.67,0,0,1,2.17-.94,29.63,29.63,0,0,0,7.62,2,1.67,1.67,0,0,1-.4,3.32,33.56,33.56,0,0,1-8.46-2.24,1.66,1.66,0,0,1-.93-2.17Zm-33.82-43.4c2-2,4-4,6-6a1.68,1.68,0,1,1,2.32,2.42c-2,1.88-3.94,3.85-5.86,5.86a1.68,1.68,0,0,1-2.36,0,1.14,1.14,0,0,1-.15-.17A1.66,1.66,0,0,1,1054.12,221.3Zm47.78,53.09c2.24-2.32,4.16-4.36,5.71-6.06a1.67,1.67,0,0,1,2.47,2.26c-1.57,1.72-3.52,3.78-5.78,6.12a1.66,1.66,0,0,1-2.36,0l-.15-.16A1.68,1.68,0,0,1,1101.9,274.39Zm7.29,8.25a1.68,1.68,0,0,1,2-1.23c2.38.57,5,1.17,8,1.64a1.67,1.67,0,1,1-.51,3.3c-3.16-.49-5.86-1.1-8.31-1.69a1.67,1.67,0,0,1-1.24-2Zm-5-15.32a1.67,1.67,0,0,1,1.16-2.06,20.7,20.7,0,0,0,5.66-2.67c.52-.32.94-.58,1.27-.74a5,5,0,0,1,.47-.2,1.63,1.63,0,0,1,2.07,1.07,1.71,1.71,0,0,1-1.09,2.14c-.24.12-.55.32-.94.56a24.25,24.25,0,0,1-6.54,3.06,1.67,1.67,0,0,1-1.76-.57A1.93,1.93,0,0,1,1104.19,267.32Zm-37.9-57.67c1.9-1.66,3.83-3.28,5.74-4.81l.75-.59a1.67,1.67,0,0,1,2.34.27h0a1.67,1.67,0,0,1-.28,2.35l-.73.58c-1.88,1.5-3.77,3.08-5.63,4.71a1.67,1.67,0,0,1-2.36-.16l0-.05A1.67,1.67,0,0,1,1066.29,209.65Zm59.34,75.81a1.67,1.67,0,0,1,1.74-1.6,79.81,79.81,0,0,0,8.17-.07,1.67,1.67,0,1,1,.2,3.33,83.62,83.62,0,0,1-8.51.08,1.67,1.67,0,0,1-1.6-1.74Zm16.66-.63a1.67,1.67,0,0,1,1.41-1.9l1.75-.27a57.46,57.46,0,0,0,6.2-1.39,1.67,1.67,0,1,1,.92,3.21A57.06,57.06,0,0,1,1146,286l-1.8.29a1.67,1.67,0,0,1-1.55-.61A1.75,1.75,0,0,1,1142.29,284.83Zm-63.15-83.31a1.67,1.67,0,0,1,.41-2.33c2.33-1.64,4.71-3.21,7.06-4.65a1.67,1.67,0,0,1,1.75,2.85c-2.29,1.4-4.61,2.93-6.89,4.54a1.68,1.68,0,0,1-2.27-.32Zm79.28,79.16a1.67,1.67,0,0,1,.83-2.21,54.36,54.36,0,0,0,7.08-3.92,1.67,1.67,0,0,1,1.83,2.79,57,57,0,0,1-7.52,4.17,1.68,1.68,0,0,1-2-.48A1.38,1.38,0,0,1,1158.42,280.68Zm-65.16-88.07a1.68,1.68,0,0,1,.71-2.26c2.54-1.32,5.11-2.54,7.66-3.63a1.67,1.67,0,1,1,1.31,3.07c-2.46,1.05-5,2.24-7.42,3.53a1.69,1.69,0,0,1-2.08-.44A1.27,1.27,0,0,1,1093.26,192.61Zm79.5,77a59.89,59.89,0,0,0,5.68-5.8A1.67,1.67,0,0,1,1181,266a61.09,61.09,0,0,1-6,6.14,1.67,1.67,0,0,1-2.36-.14l-.06-.07A1.67,1.67,0,0,1,1172.76,269.62Zm-64.25-83.8a1.67,1.67,0,0,1,1.07-2.11c2.71-.89,5.47-1.65,8.19-2.27a1.67,1.67,0,0,1,.74,3.26c-2.62.59-5.27,1.33-7.89,2.19a1.7,1.7,0,0,1-1.83-.54A1.68,1.68,0,0,1,1108.51,185.82Zm74.76,71.47a35.3,35.3,0,0,0,3.5-6.69l.53-3.66a1.67,1.67,0,0,1,3.31.48l-.52,3.57h0c-.36,2.39-3.93,8-4,8.1a1.69,1.69,0,0,1-2.31.51,1.62,1.62,0,0,1-.41-.37A1.67,1.67,0,0,1,1183.27,257.29Zm-58.57-75.45a1.67,1.67,0,0,1,1.46-1.85,78.94,78.94,0,0,1,8.51-.56,1.67,1.67,0,0,1,0,3.34,74.84,74.84,0,0,0-8.15.54,1.69,1.69,0,0,1-1.5-.62A1.71,1.71,0,0,1,1124.7,181.84Zm16.66-.55a1.67,1.67,0,0,1,1.83-1.49,76.2,76.2,0,0,1,8.42,1.3,1.67,1.67,0,0,1-.69,3.27,77,77,0,0,0-8.06-1.25,1.63,1.63,0,0,1-1.14-.62A1.7,1.7,0,0,1,1141.36,181.29Zm47.14,57.38,1.2-8.26a1.67,1.67,0,1,1,3.31.48l-1.2,8.26a1.67,1.67,0,0,1-1.89,1.42,1.71,1.71,0,0,1-1.07-.61A1.67,1.67,0,0,1,1188.5,238.67Zm-30.76-54.3a1.67,1.67,0,0,1,2.1-1.08,84.83,84.83,0,0,1,8,3,1.67,1.67,0,1,1-1.32,3.06c-2.54-1.1-5.12-2.07-7.65-2.89a1.61,1.61,0,0,1-.8-.54A1.69,1.69,0,0,1,1157.74,184.37Zm33.16,37.77,1.2-8.27a1.67,1.67,0,0,1,3.31.48l-1.2,8.27a1.67,1.67,0,0,1-3,.8A1.65,1.65,0,0,1,1190.9,222.14Zm-17.74-31.45a1.68,1.68,0,0,1,2.27-.67c2.42,1.31,4.87,2.77,7.28,4.33a1.67,1.67,0,1,1-1.82,2.8c-2.34-1.51-4.71-2.93-7.05-4.2a1.51,1.51,0,0,1-.51-.42A1.67,1.67,0,0,1,1173.16,190.69Zm14.14,8.85a1.66,1.66,0,0,1,2.34-.33c2.14,1.61,4.3,3.35,6.43,5.16l.7.6-.16,1.12a1.67,1.67,0,0,1-3.19.42c-1.92-1.62-3.86-3.18-5.79-4.63a1.42,1.42,0,0,1-.3-.3A1.65,1.65,0,0,1,1187.3,199.54Z" transform="translate(-133.59 -111.86)"/><path class="cls-42" d="M1189.06,232.22s-17.08,32.84-42.54,22.9-48.68-26.29-60.49-21.19c0,0,45-56.7,103.48-14.76Z" transform="translate(-133.59 -111.86)"/><path class="cls-7" d="M1256.17,271.9s-4.42,36.08-15.9,40.56c-10.91,4.26-92.87-3.11-100.84-3.84a.7.7,0,0,1-.62-.7h0a9.3,9.3,0,0,1,3.92-7.47c11.72-8.34,46.93-32.92,60-36.94C1218.43,258.66,1256.17,271.9,1256.17,271.9Z" transform="translate(-133.59 -111.86)"/><path class="cls-5" d="M1168.89,306.33a.86.86,0,0,0,.6.31c.45,0,45.4,3.29,64.81,3.94a8.7,8.7,0,0,0,8.15-4.92,129.18,129.18,0,0,0,9.12-24.77.84.84,0,1,0-1.63-.39,128.38,128.38,0,0,1-9,24.44,7,7,0,0,1-6.59,4c-19.38-.65-64.3-3.9-64.75-3.94a.85.85,0,0,0-.9.78A.91.91,0,0,0,1168.89,306.33Z" transform="translate(-133.59 -111.86)"/><path class="cls-7" d="M1257.26,187.47s-3.48-36.18-14.84-40.95c-10.8-4.55-92.92.7-100.91,1.22a.68.68,0,0,0-.63.68h0a9.32,9.32,0,0,0,3.72,7.58c11.5,8.63,46.06,34.12,59,38.47C1219.19,199.73,1257.26,187.47,1257.26,187.47Z" transform="translate(-133.59 -111.86)"/><path class="cls-5" d="M1170.89,151.85a.83.83,0,0,0,.69.32c.46,0,45.45-2.12,64.83-2.27a7.06,7.06,0,0,1,6.49,4.15,127.79,127.79,0,0,1,8.36,24.66.83.83,0,1,0,1.63-.34,126.94,126.94,0,0,0-8.46-25,8.75,8.75,0,0,0-8-5.13c-19.42.15-64.44,2.25-64.89,2.27a.84.84,0,0,0-.8.87A.88.88,0,0,0,1170.89,151.85Z" transform="translate(-133.59 -111.86)"/><path class="cls-43" d="M1378.24,273a187.77,187.77,0,0,1-58,8.58c-67.23-.67-116.52-12.8-130.44-16.62a7.12,7.12,0,0,1-5-5.26,125.62,125.62,0,0,1,.31-60,10.37,10.37,0,0,1,7.66-7.56c16.32-3.88,64.5-13.77,128.82-12.75a187.68,187.68,0,0,1,57.36,9.95C1387.82,222.83,1382.37,255,1378.24,273Z" transform="translate(-133.59 -111.86)"/><path class="cls-44" d="M1378.94,189.39c36.76,12.43,60.86,32.94,68.58,40.17a3.5,3.5,0,0,1-.06,5.18c-7.89,7-32.37,26.77-69.22,38.27C1382.37,255,1387.82,222.83,1378.94,189.39Z" transform="translate(-133.59 -111.86)"/><path class="cls-2" d="M1325.78,196.8c-17.41-.23-31.73,14.74-32,33.43s13.68,34,31.09,34.24,31.72-14.74,32-33.43S1343.19,197,1325.78,196.8Z" transform="translate(-133.59 -111.86)"/><path class="cls-45" d="M1326.58,202.74c-13.87-.18-25.28,11.74-25.47,26.64s10.9,27.1,24.77,27.28,25.28-11.74,25.47-26.63S1340.46,202.92,1326.58,202.74Z" transform="translate(-133.59 -111.86)"/><path class="cls-5" d="M1330.66,248.64a.83.83,0,0,0,.89.28c8.56-2.5,14.63-10.74,14.75-20a21.71,21.71,0,0,0-1-6.86.83.83,0,0,0-1.59.5,20.2,20.2,0,0,1,.92,6.34c-.11,8.57-5.68,16.16-13.55,18.46a.84.84,0,0,0-.57,1A.76.76,0,0,0,1330.66,248.64Z" transform="translate(-133.59 -111.86)"/><path class="cls-2" d="M1262.27,207.46c-11.5-.15-21,9.74-21.12,22.09s9,22.47,20.54,22.62,21-9.74,21.12-22.08S1273.77,207.61,1262.27,207.46Z" transform="translate(-133.59 -111.86)"/><path class="cls-46" d="M1262.8,211.39c-9.16-.12-16.7,7.76-16.83,17.59s7.2,17.91,16.37,18,16.7-7.76,16.83-17.6S1272,211.5,1262.8,211.39Z" transform="translate(-133.59 -111.86)"/><path class="cls-5" d="M1265.27,241.89a.84.84,0,0,0,.89.28,14.21,14.21,0,0,0,9.95-13.51,14.69,14.69,0,0,0-.67-4.62.83.83,0,1,0-1.59.5,13.17,13.17,0,0,1,.59,4.1,12.54,12.54,0,0,1-8.75,11.93.82.82,0,0,0-.56,1A.87.87,0,0,0,1265.27,241.89Z" transform="translate(-133.59 -111.86)"/><path class="cls-7" d="M1004.18,255.13l-11,2.68a1.91,1.91,0,0,1-.91-3.71l.13,0,10.68-2.66.14,0a1.93,1.93,0,1,1,.93,3.74Z" transform="translate(-133.59 -111.86)"/><path class="cls-7" d="M982.12,259.74,970.92,261a1.87,1.87,0,1,1-.41-3.72h.11l11-1.23h.12a1.89,1.89,0,0,1,.42,3.76Z" transform="translate(-133.59 -111.86)"/><path class="cls-7" d="M959.67,261.49l-11.23-.09a1.82,1.82,0,0,1-1.82-1.84,1.84,1.84,0,0,1,1.84-1.82h.09l11,.05h.1a1.85,1.85,0,1,1,0,3.7Z" transform="translate(-133.59 -111.86)"/><path class="cls-7" d="M937.22,260.75l-11.17-1.18a1.79,1.79,0,1,1,.38-3.56h.07l11,1.12h.08a1.81,1.81,0,1,1-.36,3.6Z" transform="translate(-133.59 -111.86)"/><path class="cls-7" d="M915,257.91l-11-2.09a1.75,1.75,0,0,1,.65-3.43h.06l10.9,2h.07a1.77,1.77,0,0,1-.65,3.48Z" transform="translate(-133.59 -111.86)"/><path class="cls-7" d="M893,253.34l-10.83-2.85a1.71,1.71,0,1,1,.87-3.31l0,0L893.82,250h.06a1.73,1.73,0,0,1-.87,3.35Z" transform="translate(-133.59 -111.86)"/><path class="cls-7" d="M871.43,247.31l-10.64-3.48a1.67,1.67,0,0,1,1-3.17h0l10.56,3.41,0,0a1.69,1.69,0,0,1-1,3.21Z" transform="translate(-133.59 -111.86)"/><path class="cls-7" d="M850.25,240.06l-10.44-4a1.63,1.63,0,0,1,1.17-3h0L851.39,237l0,0a1.65,1.65,0,0,1-1.17,3.08Z" transform="translate(-133.59 -111.86)"/><path class="cls-7" d="M829.47,231.79l-10.25-4.47a1.59,1.59,0,0,1,1.26-2.91h0l10.2,4.41,0,0a1.6,1.6,0,1,1-1.27,2.94Z" transform="translate(-133.59 -111.86)"/><path class="cls-7" d="M809.06,222.64,799,217.77a1.54,1.54,0,1,1,1.34-2.78h0l10,4.81h0a1.56,1.56,0,0,1-1.35,2.82Z" transform="translate(-133.59 -111.86)"/><path class="cls-7" d="M789,212.73l-9.89-5.21a1.51,1.51,0,0,1,1.4-2.67h0l9.86,5.16h0a1.53,1.53,0,0,1-1.42,2.7Z" transform="translate(-133.59 -111.86)"/><path class="cls-7" d="M769.33,202.15l-9.72-5.52a1.46,1.46,0,1,1,1.44-2.54h0l9.71,5.46h0a1.49,1.49,0,0,1-1.46,2.59Z" transform="translate(-133.59 -111.86)"/><path class="cls-7" d="M750,191l-9.57-5.78a1.44,1.44,0,1,1,1.49-2.47h0l9.54,5.75h0A1.45,1.45,0,0,1,750,191Z" transform="translate(-133.59 -111.86)"/><path class="cls-7" d="M730.9,179.3l-9.41-6a1.43,1.43,0,1,1,1.54-2.41h0l9.39,6h0a1.44,1.44,0,1,1-1.55,2.42Z" transform="translate(-133.59 -111.86)"/><path class="cls-7" d="M712.15,167.13l-9.26-6.25a1.42,1.42,0,1,1,1.58-2.35h0l9.24,6.22h0a1.42,1.42,0,1,1-1.59,2.36Z" transform="translate(-133.59 -111.86)"/><path class="cls-7" d="M693.7,154.53l-9.11-6.46a1.41,1.41,0,0,1,1.63-2.3h0l9.09,6.43h0a1.41,1.41,0,0,1-1.63,2.31Z" transform="translate(-133.59 -111.86)"/><path class="cls-7" d="M675.44,141.83l-9.51-5.64-.08-.05a1.4,1.4,0,0,1-.49-1.91,1.38,1.38,0,0,1,1.91-.49l9.68,5.72a1.41,1.41,0,0,1-1.43,2.42h0Z" transform="translate(-133.59 -111.86)"/><path class="cls-7" d="M656.07,131.16l-10.15-4.39-.08,0a1.38,1.38,0,1,1,1.1-2.54l10.32,4.45a1.39,1.39,0,0,1-1.1,2.56h0Z" transform="translate(-133.59 -111.86)"/><path class="cls-7" d="M635.51,123,624.88,120l-.08,0a1.38,1.38,0,0,1-.94-1.71,1.37,1.37,0,0,1,1.7-.93l10.8,3.1a1.38,1.38,0,0,1-.76,2.66h0Z" transform="translate(-133.59 -111.86)"/><path class="cls-7" d="M614.08,117.57l-10.93-1.7h-.09a1.37,1.37,0,0,1,.42-2.7l11.11,1.72a1.37,1.37,0,0,1-.42,2.71h0Z" transform="translate(-133.59 -111.86)"/><path class="cls-7" d="M592.13,114.87l-11.06-.31H581a1.35,1.35,0,1,1,.07-2.7l11.23.3a1.36,1.36,0,0,1-.07,2.71h-.09Z" transform="translate(-133.59 -111.86)"/><path class="cls-7" d="M570,115l-11,1.1h-.08a1.34,1.34,0,0,1-.27-2.67l11.18-1.13a1.35,1.35,0,0,1,.27,2.69H570Z" transform="translate(-133.59 -111.86)"/><path class="cls-7" d="M548.09,117.86l-10.78,2.49-.08,0a1.33,1.33,0,0,1-.6-2.59l11-2.54a1.33,1.33,0,0,1,.6,2.6h0Z" transform="translate(-133.59 -111.86)"/><path class="cls-7" d="M526.71,123.52l-10.37,3.84-.08,0a1.32,1.32,0,1,1-.92-2.47L525.87,121a1.32,1.32,0,0,1,.92,2.48h0Z" transform="translate(-133.59 -111.86)"/><path class="cls-7" d="M506.23,131.85l-9.74,5.22-.09.05a1.31,1.31,0,1,1-1.23-2.31l9.91-5.32a1.32,1.32,0,1,1,1.24,2.32h0Z" transform="translate(-133.59 -111.86)"/><path class="cls-7" d="M487.13,143l-8.95,6.5-.06.05a1.3,1.3,0,1,1-1.53-2.1l9.08-6.61a1.3,1.3,0,1,1,1.53,2.11h0Z" transform="translate(-133.59 -111.86)"/><path class="cls-7" d="M469.64,156.52l-8.1,7.54-.05.05a1.29,1.29,0,0,1-1.82-.07,1.27,1.27,0,0,1,.06-1.81l8.21-7.65a1.29,1.29,0,0,1,1.76,1.89h0Z" transform="translate(-133.59 -111.86)"/><path class="cls-7" d="M453.88,172.06l-7.19,8.42-.05.06a1.28,1.28,0,0,1-1.94-1.66l7.28-8.54a1.28,1.28,0,0,1,1.95,1.66h0Z" transform="translate(-133.59 -111.86)"/><path class="cls-7" d="M440,189.31l-6.17,9.19,0,.06a1.26,1.26,0,1,1-2.1-1.4l6.24-9.33a1.27,1.27,0,1,1,2.11,1.41h0Z" transform="translate(-133.59 -111.86)"/><path class="cls-7" d="M428.21,208.05l-5,9.87,0,.07a1.25,1.25,0,1,1-2.24-1.13l5.07-10a1.26,1.26,0,1,1,2.24,1.14h0Z" transform="translate(-133.59 -111.86)"/><path class="cls-7" d="M418.86,228.1l-3.63,10.45,0,.08a1.24,1.24,0,1,1-2.35-.81l3.68-10.62a1.24,1.24,0,0,1,2.35.81h0Z" transform="translate(-133.59 -111.86)"/><path class="cls-7" d="M412.38,249.24l-2,10.86,0,.1a1.23,1.23,0,0,1-2.42-.44l2-11.07a1.23,1.23,0,0,1,1.43-1,1.24,1.24,0,0,1,1,1.44h0Z" transform="translate(-133.59 -111.86)"/><path class="cls-7" d="M409.32,271.09l-.06,11v.12a1.23,1.23,0,0,1-1.23,1.21,1.21,1.21,0,0,1-1.21-1.22l.06-11.26a1.21,1.21,0,0,1,1.23-1.22,1.23,1.23,0,0,1,1.22,1.23h0Z" transform="translate(-133.59 -111.86)"/><path class="cls-7" d="M410.24,293.11l2.06,10.82,0,.12a1.21,1.21,0,0,1-2.38.46l-2.12-11.07a1.21,1.21,0,1,1,2.38-.45h0Z" transform="translate(-133.59 -111.86)"/><path class="cls-7" d="M415.46,314.5l4.22,10.18.05.11a1.2,1.2,0,1,1-2.21.92l-4.33-10.41a1.2,1.2,0,0,1,2.22-.92h0Z" transform="translate(-133.59 -111.86)"/><path class="cls-7" d="M425.05,334.24a56,56,0,0,0,6.94,8.41,1.19,1.19,0,0,1-1.67,1.69,59,59,0,0,1-7.25-8.76,1.2,1.2,0,0,1,2-1.34Z" transform="translate(-133.59 -111.86)"/><path class="cls-7" d="M440.5,349.43a46.87,46.87,0,0,0,9.8,4.67,1.17,1.17,0,1,1-.75,2.22,48.86,48.86,0,0,1-10.3-4.89,1.18,1.18,0,1,1,1.25-2Z" transform="translate(-133.59 -111.86)"/><path class="cls-7" d="M460.92,356.41a52.16,52.16,0,0,0,10.89-.05,1.16,1.16,0,0,1,.25,2.31,54.1,54.1,0,0,1-11.38.07,1.17,1.17,0,0,1,.24-2.33Z" transform="translate(-133.59 -111.86)"/><path class="cls-7" d="M482.48,354.11a60.52,60.52,0,0,0,10.09-4.2,1.15,1.15,0,1,1,1.07,2,63.22,63.22,0,0,1-10.47,4.37,1.16,1.16,0,0,1-.69-2.21Z" transform="translate(-133.59 -111.86)"/><path class="cls-7" d="M501.78,344a65.68,65.68,0,0,0,8.08-7.38,1.15,1.15,0,1,1,1.68,1.56,68.75,68.75,0,0,1-8.36,7.64,1.16,1.16,0,0,1-1.61-.21,1.14,1.14,0,0,1,.21-1.61Z" transform="translate(-133.59 -111.86)"/><path class="cls-7" d="M516.63,328l2.78-4.73a53.41,53.41,0,0,0,2.53-4.87l0-.07a1.13,1.13,0,0,1,2,1,54.48,54.48,0,0,1-2.61,5l-2.86,4.89a1.14,1.14,0,0,1-1.56.4,1.13,1.13,0,0,1-.4-1.55h0Z" transform="translate(-133.59 -111.86)"/><path class="cls-7" d="M525.77,308.13a62.62,62.62,0,0,0,2.08-10.75,1.12,1.12,0,1,1,2.23.22,64.83,64.83,0,0,1-2.14,11.14,1.13,1.13,0,0,1-2.17-.61Z" transform="translate(-133.59 -111.86)"/><path class="cls-7" d="M527.92,286.46a56,56,0,0,0-2-10.73,1.12,1.12,0,0,1,.76-1.38,1.11,1.11,0,0,1,1.37.76,57.76,57.76,0,0,1,2.12,11.15,1.11,1.11,0,0,1-2.22.2Z" transform="translate(-133.59 -111.86)"/><path class="cls-7" d="M521.86,265.57a63.77,63.77,0,0,0-5.79-9.29,1.1,1.1,0,0,1,1.76-1.31,66.52,66.52,0,0,1,6,9.6,1.1,1.1,0,1,1-2,1Z" transform="translate(-133.59 -111.86)"/><path class="cls-7" d="M508.83,248a77,77,0,0,0-8.38-7.12,1.09,1.09,0,1,1,1.29-1.75,82.31,82.31,0,0,1,8.62,7.3,1.1,1.1,0,0,1-1.53,1.57Z" transform="translate(-133.59 -111.86)"/><path class="cls-7" d="M491.2,235a95.22,95.22,0,0,0-9.92-4.78,1.08,1.08,0,0,1-.59-1.4,1.09,1.09,0,0,1,1.41-.59,97.54,97.54,0,0,1,10.15,4.88A1.08,1.08,0,1,1,491.2,235Z" transform="translate(-133.59 -111.86)"/><path class="cls-7" d="M470.86,226.58c-3.53-1-7.18-1.69-10.76-2.55l-.08,0a1.1,1.1,0,0,1,.51-2.13h0c3.64.9,7.31,1.61,10.92,2.65a1.07,1.07,0,1,1-.58,2.06Z" transform="translate(-133.59 -111.86)"/><path class="cls-7" d="M449.18,222.25l-11-1.07h-.07a1.16,1.16,0,0,1,.22-2.3h0L449.47,220a1.12,1.12,0,0,1-.22,2.23Z" transform="translate(-133.59 -111.86)"/><path class="cls-7" d="M427.08,220.8l-11.08.28h-.07a1.23,1.23,0,0,1-1.25-1.19,1.22,1.22,0,0,1,1.19-1.24h0l11.21-.22a1.19,1.19,0,0,1,1.21,1.17,1.17,1.17,0,0,1-1.15,1.2Z" transform="translate(-133.59 -111.86)"/><path class="cls-7" d="M405,222l-11,1.5h-.07a1.28,1.28,0,0,1-1.43-1.1,1.26,1.26,0,0,1,1.09-1.43h0l11.12-1.45A1.25,1.25,0,0,1,405,222Z" transform="translate(-133.59 -111.86)"/><path class="cls-7" d="M383.09,225.55l-10.76,2.65-.07,0a1.34,1.34,0,0,1-.64-2.6h0L382.54,223a1.31,1.31,0,0,1,.62,2.54Z" transform="translate(-133.59 -111.86)"/><path class="cls-7" d="M361.73,231.42l-10.41,3.79-.07,0a1.4,1.4,0,1,1-1-2.63h0l10.57-3.78a1.37,1.37,0,0,1,.93,2.58Z" transform="translate(-133.59 -111.86)"/><path class="cls-7" d="M341.14,239.56l-9.9,4.93-.08,0a1.46,1.46,0,0,1-1.3-2.62h0L340,237a1.43,1.43,0,1,1,1.27,2.56Z" transform="translate(-133.59 -111.86)"/><path class="cls-7" d="M321.66,250l-9.22,6.1-.07.05a1.53,1.53,0,0,1-1.68-2.55h0l9.4-6.15a1.49,1.49,0,0,1,1.64,2.5Z" transform="translate(-133.59 -111.86)"/><path class="cls-7" d="M303.57,262.72l-8.54,7-.06.05a1.59,1.59,0,0,1-2-2.45h0l8.69-7.1a1.56,1.56,0,0,1,2,2.4Z" transform="translate(-133.59 -111.86)"/><path class="cls-7" d="M286.81,277.2,278.9,285l0,0a1.65,1.65,0,1,1-2.31-2.35h0l8.05-7.8a1.62,1.62,0,0,1,2.25,2.32Z" transform="translate(-133.59 -111.86)"/><path class="cls-7" d="M271.27,293l-7.35,8.31,0,0a1.71,1.71,0,1,1-2.56-2.26h0l7.47-8.35a1.68,1.68,0,0,1,2.5,2.23Z" transform="translate(-133.59 -111.86)"/><path class="cls-7" d="M256.83,309.86,250,318.61l0,0a1.77,1.77,0,1,1-2.79-2.17h0l6.93-8.79a1.73,1.73,0,0,1,2.73,2.14Z" transform="translate(-133.59 -111.86)"/><path class="cls-7" d="M243.43,327.55l-6.33,9.12,0,0a1.82,1.82,0,1,1-3-2.08h0l6.44-9.16a1.79,1.79,0,0,1,2.94,2.05Z" transform="translate(-133.59 -111.86)"/><path class="cls-7" d="M231,346l-5.86,9.44,0,0a1.88,1.88,0,0,1-3.2-2h0l5.95-9.48a1.85,1.85,0,0,1,3.14,2Z" transform="translate(-133.59 -111.86)"/><path class="cls-7" d="M219.54,365l-5.38,9.71,0,0a1.94,1.94,0,1,1-3.4-1.88h0l5.47-9.77a1.91,1.91,0,0,1,3.34,1.86Z" transform="translate(-133.59 -111.86)"/><path class="cls-7" d="M209,384.52l-4.88,10,0,.05a2,2,0,0,1-3.59-1.76h0l5-10a2,2,0,0,1,3.54,1.74Z" transform="translate(-133.59 -111.86)"/><path class="cls-7" d="M199.5,404.58l-4.36,10.21,0,0a2.06,2.06,0,0,1-3.79-1.62h0l4.46-10.28a2,2,0,0,1,3.72,1.6Z" transform="translate(-133.59 -111.86)"/><path class="cls-7" d="M191.05,425.11l-3.78,10.43,0,.06a2.12,2.12,0,1,1-4-1.44h0l3.88-10.53a2.09,2.09,0,0,1,3.92,1.43Z" transform="translate(-133.59 -111.86)"/><path class="cls-7" d="M183.81,446.07l-3.1,10.64,0,.07a2.17,2.17,0,1,1-4.17-1.21h0l3.2-10.77a2.14,2.14,0,0,1,4.11,1.21Z" transform="translate(-133.59 -111.86)"/><path class="cls-7" d="M178,467.44l-2.27,10.82v.08a2.23,2.23,0,0,1-4.37-.9c.75-3.68,1.57-7.34,2.36-11a2.2,2.2,0,1,1,4.3.92Z" transform="translate(-133.59 -111.86)"/><path class="cls-7" d="M173.93,489.16l-1.29,11,0,.1a2.2,2.2,0,1,1-4.38-.51l1.3-11.18a2.22,2.22,0,0,1,4.41.51h0Z" transform="translate(-133.59 -111.86)"/><path class="cls-7" d="M171.88,511.15l-.18,11v.11a2.19,2.19,0,0,1-4.37-.06l.16-11.27a2.2,2.2,0,1,1,4.39.06h0Z" transform="translate(-133.59 -111.86)"/><path class="cls-7" d="M172.1,533.22l1,11v.12a2.16,2.16,0,0,1-4.3.4l-1.06-11.22a2.17,2.17,0,1,1,4.32-.41h0Z" transform="translate(-133.59 -111.86)"/><path class="cls-7" d="M174.76,555.1,177,565.89l0,.12a2.14,2.14,0,0,1-4.19.88l-2.33-11a2.15,2.15,0,0,1,4.21-.89h0Z" transform="translate(-133.59 -111.86)"/><path class="cls-7" d="M179.89,576.53,183.37,587l0,.12a2.12,2.12,0,0,1-4,1.34l-3.58-10.69a2.13,2.13,0,1,1,4-1.35h0Z" transform="translate(-133.59 -111.86)"/><path class="cls-7" d="M187.43,597.25l4.62,10,0,.1a2.1,2.1,0,0,1-3.81,1.76l-4.73-10.22a2.11,2.11,0,0,1,3.82-1.77h0Z" transform="translate(-133.59 -111.86)"/><path class="cls-7" d="M197.2,617l5.64,9.49,0,.09a2.07,2.07,0,0,1-3.56,2.12l-5.77-9.66a2.09,2.09,0,0,1,3.58-2.14h0Z" transform="translate(-133.59 -111.86)"/><path class="cls-7" d="M208.94,635.75l6.51,8.93.06.08a2.05,2.05,0,0,1-3.32,2.42l-6.64-9.07a2.06,2.06,0,0,1,3.33-2.44h0Z" transform="translate(-133.59 -111.86)"/><path class="cls-7" d="M222.36,653.33l7.25,8.36,0,.06a2,2,0,0,1-3.06,2.66l-7.38-8.47a2,2,0,0,1,3.08-2.68h0Z" transform="translate(-133.59 -111.86)"/><path class="cls-7" d="M237.18,669.77l7.86,7.8.05,0a2,2,0,0,1-2.83,2.85l-8-7.88a2,2,0,0,1,2.84-2.88h0Z" transform="translate(-133.59 -111.86)"/><path class="cls-7" d="M253.16,685.11l8.36,7.28,0,0a2,2,0,0,1-2.61,3l-8.46-7.35a2,2,0,1,1,2.62-3h0Z" transform="translate(-133.59 -111.86)"/><path class="cls-7" d="M270.09,699.43l8.76,6.8,0,0a2,2,0,0,1-2.4,3.11l-8.86-6.85a2,2,0,1,1,2.41-3.13h0Z" transform="translate(-133.59 -111.86)"/><path class="cls-7" d="M287.8,712.81l9.1,6.36,0,0a1.94,1.94,0,0,1-2.22,3.19l-9.19-6.4a2,2,0,0,1,2.23-3.21h0Z" transform="translate(-133.59 -111.86)"/><path class="cls-7" d="M306.14,725.37l9.31,6.15a1.92,1.92,0,0,1-2.11,3.21L304,728.59a1.93,1.93,0,0,1,2.12-3.23Z" transform="translate(-133.59 -111.86)"/><path class="cls-7" d="M324.77,737.64l9.34,6.1a1.9,1.9,0,0,1-2.07,3.18l-9.36-6.09a1.91,1.91,0,0,1,2.09-3.2Z" transform="translate(-133.59 -111.86)"/><path class="cls-7" d="M343.45,749.83l9.33,6.11a1.87,1.87,0,0,1-2,3.14L341.39,753a1.88,1.88,0,1,1,2.05-3.16Z" transform="translate(-133.59 -111.86)"/><path class="cls-7" d="M362.1,762.06l9.3,6.16a1.86,1.86,0,1,1-2.06,3.09l-9.29-6.13a1.87,1.87,0,0,1,2-3.13Z" transform="translate(-133.59 -111.86)"/><path class="cls-7" d="M380.66,774.43l9.23,6.26a1.83,1.83,0,1,1-2.06,3h0l-9.22-6.24h0a1.85,1.85,0,0,1,2.07-3.06Z" transform="translate(-133.59 -111.86)"/><path class="cls-7" d="M399.08,787l9.13,6.43a1.81,1.81,0,0,1-2.09,3h0L397,790h0a1.82,1.82,0,0,1,2.09-3Z" transform="translate(-133.59 -111.86)"/><path class="cls-7" d="M417.26,800l9,6.64a1.79,1.79,0,0,1-2.13,2.87h0l-9-6.59h0a1.8,1.8,0,0,1,2.14-2.9Z" transform="translate(-133.59 -111.86)"/><path class="cls-7" d="M435.13,813.38l8.8,6.9a1.77,1.77,0,1,1-2.18,2.78l0,0L433,816.2l0,0a1.78,1.78,0,1,1,2.19-2.8Z" transform="translate(-133.59 -111.86)"/><path class="cls-7" d="M452.63,827.27l8.63,7.09a1.74,1.74,0,0,1-2.22,2.69h0l-8.61-7h0a1.76,1.76,0,0,1,2.22-2.72Z" transform="translate(-133.59 -111.86)"/><path class="cls-7" d="M469.79,841.57l8.43,7.35a1.72,1.72,0,1,1-2.26,2.59l0,0-8.4-7.29,0,0a1.73,1.73,0,0,1,2.27-2.61Z" transform="translate(-133.59 -111.86)"/><path class="cls-7" d="M486.51,856.42l8.15,7.67a1.7,1.7,0,1,1-2.34,2.47l0,0-8.1-7.61,0,0a1.71,1.71,0,1,1,2.34-2.5Z" transform="translate(-133.59 -111.86)"/><path class="cls-7" d="M502.62,872l7.75,8.07a1.68,1.68,0,0,1-2.42,2.33l0,0-7.7-8,0,0a1.69,1.69,0,0,1,2.44-2.35Z" transform="translate(-133.59 -111.86)"/><path class="cls-7" d="M517.89,888.33l7.25,8.55a1.65,1.65,0,0,1-2.52,2.14l0,0-7.2-8.45,0,0a1.66,1.66,0,1,1,2.53-2.16Z" transform="translate(-133.59 -111.86)"/><path class="cls-7" d="M532.09,905.68l6.59,9.07a1.64,1.64,0,1,1-2.64,1.93l0-.06-6.53-9,0,0a1.65,1.65,0,0,1,2.66-1.94Z" transform="translate(-133.59 -111.86)"/><path class="cls-7" d="M544.88,924.11l5.77,9.63a1.62,1.62,0,0,1-.56,2.21,1.61,1.61,0,0,1-2.21-.56l0-.06-5.7-9.49,0-.07a1.62,1.62,0,0,1,2.78-1.67Z" transform="translate(-133.59 -111.86)"/><path class="cls-7" d="M555.92,943.65l4.71,10.2a1.57,1.57,0,0,1-2.85,1.32l0-.08-4.7-10,0-.08a1.59,1.59,0,1,1,2.89-1.35Z" transform="translate(-133.59 -111.86)"/><path class="cls-7" d="M564.75,964.3,568.24,975a1.51,1.51,0,1,1-2.86.94l0-.09-3.49-10.48,0-.09a1.54,1.54,0,1,1,2.92-1Z" transform="translate(-133.59 -111.86)"/><path class="cls-7" d="M571.06,985.85l2.12,11a1.45,1.45,0,0,1-2.84.56l0-.1-2.14-10.84,0-.09a1.48,1.48,0,1,1,2.9-.57Z" transform="translate(-133.59 -111.86)"/><path class="cls-7" d="M574.59,1008l.69,11.22a1.39,1.39,0,0,1-2.77.18v-.09l-.74-11v-.1a1.42,1.42,0,0,1,2.83-.18Z" transform="translate(-133.59 -111.86)"/><path class="cls-7" d="M575.2,1030.51l-.82,11.18a1.31,1.31,0,0,1-1.41,1.22,1.32,1.32,0,0,1-1.23-1.41v-.06l.74-11v-.07a1.35,1.35,0,1,1,2.7.18Z" transform="translate(-133.59 -111.86)"/><path class="cls-7" d="M573,1052.82l-1.83,11.06a1.26,1.26,0,1,1-2.49-.41v0l1.74-11v0a1.3,1.3,0,0,1,2.56.4Z" transform="translate(-133.59 -111.86)"/><path class="cls-7" d="M568.9,1074.84l-2.85,10.85a1.19,1.19,0,0,1-1.46.86,1.21,1.21,0,0,1-.86-1.46l0-.07,2.75-10.73,0-.06a1.23,1.23,0,1,1,2.38.61Z" transform="translate(-133.59 -111.86)"/><path class="cls-7" d="M562.59,1096.37l-4.23,10.42a1.14,1.14,0,0,1-2.11-.85l0-.09,4.09-10.27,0-.09a1.15,1.15,0,0,1,1.51-.65,1.17,1.17,0,0,1,.66,1.52Z" transform="translate(-133.59 -111.86)"/><path class="cls-7" d="M553.18,1116.8a73.66,73.66,0,0,1-6.43,9.3,1.08,1.08,0,0,1-1.67-1.36,73.26,73.26,0,0,0,6.19-9.07,1.11,1.11,0,0,1,1.92,1.12Z" transform="translate(-133.59 -111.86)"/><path class="cls-7" d="M538.69,1134.11a37,37,0,0,1-9.94,5.65,1,1,0,1,1-.71-1.9,35.07,35.07,0,0,0,9.35-5.39,1,1,0,0,1,1.3,1.64Z" transform="translate(-133.59 -111.86)"/><path class="cls-47" d="M1187.4,1171s-13.9-36.61-30.15-33.26-34,15.83-34,15.83l-26.1,35.3s73.27,28.86,99,12.32c0,0,74.84,12.93,169.34-2.57-13.68-28.89-21.83-57.8-26.62-80.25C1291,1145.47,1239.46,1165.7,1187.4,1171Z" transform="translate(-133.59 -111.86)"/><path class="cls-48" d="M1583.82,905.42s-107.15,135-244.94,212.95c4.79,22.45,12.94,51.36,26.62,80.25,71.48-11.73,154.21-39.72,224.34-101.92Z" transform="translate(-133.59 -111.86)"/><path class="cls-49" d="M152.76,967.66l212.7,534.93a63.36,63.36,0,0,0,67.91,39.31l557.78-41.18L790.24,931.87a35.55,35.55,0,0,0-34-22.9c-97.79,2.26-454,11-581.39,22.39A26.39,26.39,0,0,0,152.76,967.66Z" transform="translate(-133.59 -111.86)"/><path class="cls-50" d="M414.57,1517.62,202.06,977.88a16.83,16.83,0,0,1,15.28-23L742.61,935a31.87,31.87,0,0,1,30.86,20.2L965.85,1481.3Z" transform="translate(-133.59 -111.86)"/><path class="cls-51" d="M2277,967.66l-212.7,534.93a63.36,63.36,0,0,1-67.91,39.31l-557.78-39,200.91-571a35.56,35.56,0,0,1,34-22.9c97.79,2.26,454,11,581.39,22.39A26.39,26.39,0,0,1,2277,967.66Z" transform="translate(-133.59 -111.86)"/><path class="cls-52" d="M2015.2,1517.62l212.51-539.74a16.83,16.83,0,0,0-15.28-23L1687.16,935a31.84,31.84,0,0,0-30.85,20.2L1463.92,1481.3Z" transform="translate(-133.59 -111.86)"/><path class="cls-53" d="M780.77,923.27l6.65,178.66a489.56,489.56,0,0,0,54,15.33c10.72-34.49,34.31-76.83,53.63-108.31C824.08,983.86,780.77,923.27,780.77,923.27Z" transform="translate(-133.59 -111.86)"/><path class="cls-54" d="M1135.14,920.23C1037.77,1025.35,959,1031.54,895.06,1009c-19.32,31.48-42.91,73.82-53.63,108.31,260,57.33,321.24-181.71,321.24-181.71Z" transform="translate(-133.59 -111.86)"/><path class="cls-55" d="M1154.88,909.07s11.22-12.05,32-8.26,39.24,11,52.17,0,17.48,3.76,17.48,3.76L1217.77,934Z" transform="translate(-133.59 -111.86)"/><path class="cls-56" d="M1131.72,929.65s7.68-32.13,30.84-27.72,75.74,33,89.29,27.72,30.87-17.87,39.76-13.41L1276,935.7s40.25-23.22,47.18-9l-67,37.69S1158.17,954.63,1131.72,929.65Z" transform="translate(-133.59 -111.86)"/><path class="cls-57" d="M443.71,1512.08s-33.22-474.29,209-621.78c0,0,67.71-44.7,152.08,41.87S862,1108.67,791.15,1193,648.23,1427.81,665.4,1512.08Z" transform="translate(-133.59 -111.86)"/><path class="cls-58" d="M774.74,761.11C774.67,766.77,694,881.32,694,881.32S708.5,909.83,777.61,933l59.65-122.65Z" transform="translate(-133.59 -111.86)"/><path class="cls-59" d="M743,1154.4s153,128.15,318.23,72.23a39.38,39.38,0,0,1,31,2.34l47.5,25.09a42.4,42.4,0,0,0,56.2-15.74c6.6-11,12.23-23.64,13.35-35.72L1116.38,1165l6.85-11.4s-45.38-3.84-57.26,28.68c0,0-86.43,36-232.2-124.38C833.77,1057.87,767.62,1114.12,743,1154.4Z" transform="translate(-133.59 -111.86)"/><path class="cls-60" d="M734.79,1153.84a3.34,3.34,0,0,1-1.9-.58c-64.61-43.65-95-114.12-95.31-114.83a3.39,3.39,0,0,1,6.24-2.64c.29.69,30,69.36,92.86,111.86a3.39,3.39,0,0,1-1.89,6.19Z" transform="translate(-133.59 -111.86)"/><path class="cls-61" d="M830.75,1056.46a3.38,3.38,0,0,1-2.85-1.55c-.19-.3-19.89-31-57.39-98.11-11.42-20.45-26.41-33.39-44.55-38.48-30.09-8.42-59.11,7.73-59.4,7.89a3.38,3.38,0,1,1-3.35-5.88c1.28-.73,31.67-17.7,64.51-8.54,20,5.57,36.36,19.6,48.7,41.71,37.38,66.93,57,97.44,57.17,97.75a3.37,3.37,0,0,1-1,4.67A3.33,3.33,0,0,1,830.75,1056.46Z" transform="translate(-133.59 -111.86)"/><path class="cls-62" d="M838.23,695.48s28.7,65.91,30.63,100.51,9.38,57-30.63,64-73.7-13-92-47.43c0,0-28.61-53.1-22.19-74.85S838.23,695.48,838.23,695.48Z" transform="translate(-133.59 -111.86)"/><path class="cls-63" d="M759.94,787.8l2.28-1a5.49,5.49,0,0,0,2.68-7.54c-5.64-10.9-16.64-35.88-2.43-41.71,18.31-7.51,90.83-22.3,106.48-48,15-24.73,1.72-56.66-18.31-65.74A2.76,2.76,0,0,0,847,625l-1.67,3.16a2.71,2.71,0,0,1-5-.51h0a2.71,2.71,0,0,0-4.9-.7c-4.81,7.7-17.79,20.18-52.52,26.59-49.35,9.1-82,29.08-82.8,63.18a2.71,2.71,0,0,1-4.2,2.24c-3.65-2.22-9.48-3.26-17.27,3.29-13.56,11.4-8,41,21.7,65.28a2.71,2.71,0,0,1-.12,4.36c-5.39,3.5-13.42,11.85,7.39,23,21.52,11.5,37.59,10.56,43.78,9.54a2.7,2.7,0,0,0,2.19-3.27l-6.6-30a2.71,2.71,0,0,1,2.65-3.31Z" transform="translate(-133.59 -111.86)"/><path class="cls-64" d="M761.18,794.13s-10.95-42.11-29.82-30.3,9.79,47.18,25,48.75Z" transform="translate(-133.59 -111.86)"/><path class="cls-65" d="M1092.27,1229s38.89,38,46.39,32.5c2.67-2,9.41-9.13,15.94-17.1a16.69,16.69,0,0,0,1.14-19.66l-9.17-14.15a26.51,26.51,0,0,0-39.57-5.77C1100.88,1210.11,1095.33,1217.82,1092.27,1229Z" transform="translate(-133.59 -111.86)"/><path class="cls-66" d="M1705,1505.1s-.26-170.88-99.62-347.34c-31.07-55.19-42.13-119.43-32.43-182l10.88-70.31s136.35-46.13,287.49-1.94c0,0,209.57,173,69.51,615.39Z" transform="translate(-133.59 -111.86)"/><path class="cls-67" d="M1607,815.7l35.36,84.94a16.93,16.93,0,0,0,12.78,10.17c20.39,3.49,69.69,9,102.07-12.33a8.23,8.23,0,0,0,2.2-11.57l-65.32-93.78Z" transform="translate(-133.59 -111.86)"/><path class="cls-2" d="M1694.23,1214.88a7.85,7.85,0,0,0-5,11.22l102.29,196.13a7.85,7.85,0,0,0,9.14,3.91l334.58-96.6a7.85,7.85,0,0,0,5.36-9.72L2083,1120.3a7.86,7.86,0,0,0-9.55-5.42Z" transform="translate(-133.59 -111.86)"/><path class="cls-68" d="M1715.81,1191.83a8.21,8.21,0,0,0-5.8,10.83l81.87,222.42a8.22,8.22,0,0,0,10,5.05l333.57-96.31a8.22,8.22,0,0,0,5.75-9.63L2095,1110.13a8.21,8.21,0,0,0-9.93-6.26Z" transform="translate(-133.59 -111.86)"/><path class="cls-69" d="M1744.87,1169.38a10.15,10.15,0,0,0-8.37,12.33l55.61,240.1a10.15,10.15,0,0,0,12.71,7.47l328.52-94.85a10.15,10.15,0,0,0,7-12.29l-50.52-196a10.16,10.16,0,0,0-11.37-7.51Z" transform="translate(-133.59 -111.86)"/><path class="cls-70" d="M2010.8,1260.94c25.5-192.61-122.93-340.71-122.93-340.71l-88.32,103c67,83.57,98.92,160.15,113.48,220.3C1932.34,1237.86,1978.83,1229,2010.8,1260.94Z" transform="translate(-133.59 -111.86)"/><path class="cls-71" d="M1913,1245.74a2.25,2.25,0,0,1-2.19-1.72c-18.06-74.61-56.09-148.43-113-219.42a2.26,2.26,0,0,1,3.53-2.83c57.36,71.51,95.69,145.93,113.91,221.19a2.25,2.25,0,0,1-1.67,2.72A2.33,2.33,0,0,1,1913,1245.74Z" transform="translate(-133.59 -111.86)"/><path class="cls-72" d="M1913,1243.49c13.54,55.9,12.11,97.61,10,117.53a15.49,15.49,0,0,1-14.34,13.89c-8.55.6-20.19,1.39-30.59,2-11.44.65-24.13-6.57-32.61-12.61a5.1,5.1,0,0,0-7.52,6.45c6.33,12.39,22.41,23.42,33.49,29.91a5.29,5.29,0,0,1-1.22,9.66l-47.39,13.43c77.86,73.35,129.27-8.72,129.27-8.72,34.37-53.1,52.14-105,58.63-154.08C1978.83,1229,1932.34,1237.86,1913,1243.49Z" transform="translate(-133.59 -111.86)"/><path class="cls-73" d="M1643.59,685.74c-1.48,1.4-62.66,121.55-62.66,121.55l69.34,33.47,74.91-105.26S1668.45,662.34,1643.59,685.74Z" transform="translate(-133.59 -111.86)"/><path class="cls-74" d="M1693.66,748.13l-34.58,57.66a11.06,11.06,0,0,1-1.9,2.36c-4.11,3.83-18.2,15-29.09-.2-9.28-12.93-18-24.69-27.32-29.54a11,11,0,0,0-14.92,4.91c-5.7,11.29-16.74,34.32-23.67,56.15a11,11,0,0,0,6.4,13.5c14,5.69,41.8,16,66.42,19.37a11,11,0,0,0,10.46-4.44c10.59-14.52,40.46-55.08,50.65-65.23,9.47-9.43,26.94-5.88,34.82-3.62a11.11,11.11,0,0,0,8.83-1.15c8-4.82,21.94-16.8,9.18-37.09a11.08,11.08,0,0,1,3.42-15c8.92-5.87,18.6-16.88,9.38-34.71-9.33-18.06-26-19.68-37.36-18.29a11.51,11.51,0,0,1-12.05-6.7,7.3,7.3,0,0,0-5.71-4.5,10.75,10.75,0,0,1-8.69-12.61c2-10.22.5-23.49-15.82-32.46-29.92-16.45-56.12,10.36-62.79,33s26.79,38.62,47.83,41.29c15.46,2,23.94,18.83,27.35,27.65A11.08,11.08,0,0,1,1693.66,748.13Z" transform="translate(-133.59 -111.86)"/><path class="cls-75" d="M1683.12,823.84s13.3-38.93,30.33-37.5,30.44,18.39,9.33,37.47C1696.53,847.53,1683.12,823.84,1683.12,823.84Z" transform="translate(-133.59 -111.86)"/><path class="cls-76" d="M1180.81,1524.5a18.05,18.05,0,0,1-18.06,18H429.18a27.43,27.43,0,0,1-27.44-27.44l-11.54-13.4,761.69-6.53a29.32,29.32,0,0,1,28.92,29.32Z" transform="translate(-133.59 -111.86)"/><path class="cls-77" d="M1249,1524.5a18.05,18.05,0,0,0,18.06,18H2000.6a27.43,27.43,0,0,0,27.43-27.44l11.54-13.4-761.69-6.53A29.32,29.32,0,0,0,1249,1524.5Z" transform="translate(-133.59 -111.86)"/><circle class="cls-78" cx="267.17" cy="1255.08" r="59.39" transform="translate(-1099.06 786.56) rotate(-61.85)"/><circle class="cls-79" cx="267.17" cy="1255.08" r="57.41" transform="translate(-255.96 -79.42) rotate(-5.65)"/><path class="cls-30" d="M219.83,1233.46a2.24,2.24,0,0,1-2-3.24,55,55,0,0,1,49.33-30.37,56.07,56.07,0,0,1,10,.89,2.23,2.23,0,1,1-.8,4.39,51.66,51.66,0,0,0-9.16-.82,50.57,50.57,0,0,0-45.35,27.92A2.23,2.23,0,0,1,219.83,1233.46Z" transform="translate(-133.59 -111.86)"/><circle class="cls-30" cx="268.42" cy="1256.33" r="48.59" transform="translate(-817.51 282.23) rotate(-35.78)"/><path class="cls-80" d="M263.66,1292.45v-5.28a43,43,0,0,1-14.84-3.22,3.05,3.05,0,0,1-1.69-3.61l1.34-4.93a3.09,3.09,0,0,1,4.19-2,35.79,35.79,0,0,0,13.7,2.88c5.3,0,9.26-1.8,9.26-5.49,0-3.33-3.06-5.31-10.43-7.28-10.53-2.88-18.09-7.47-18.09-16.74,0-8.37,6.12-14.76,16.74-16.46V1225a3.08,3.08,0,0,1,3.08-3.08H270a3.08,3.08,0,0,1,3.08,3.08v4.75a39.07,39.07,0,0,1,11.76,2.11,3.07,3.07,0,0,1,1.92,3.7l-1.24,4.55a3.07,3.07,0,0,1-4.05,2.08,32,32,0,0,0-11.54-2.1c-6.29,0-8.09,2.61-8.09,5,0,2.88,3.78,4.86,12,7.38,11.7,3.51,16.56,8.37,16.56,17.09,0,8-5.94,15.21-17.46,17v5.91a3.07,3.07,0,0,1-3.08,3.08h-3.1A3.07,3.07,0,0,1,263.66,1292.45Z" transform="translate(-133.59 -111.86)"/><circle class="cls-81" cx="436.22" cy="1184.65" r="103.38" transform="translate(-843.5 543.57) rotate(-45)"/><circle class="cls-82" cx="436.22" cy="1184.65" r="99.95" transform="translate(-843.5 543.58) rotate(-45)"/><path class="cls-30" d="M353.81,1145.36a2.17,2.17,0,0,1-1-.24,2.22,2.22,0,0,1-1-3,94.08,94.08,0,0,1,84.4-52,95.17,95.17,0,0,1,17,1.53,2.23,2.23,0,0,1-.8,4.39,90.85,90.85,0,0,0-16.25-1.46,89.64,89.64,0,0,0-80.42,49.52A2.22,2.22,0,0,1,353.81,1145.36Z" transform="translate(-133.59 -111.86)"/><circle class="cls-30" cx="304.81" cy="1074.97" r="84.59"/><path class="cls-83" d="M430.1,1249.72v-9.21a75,75,0,0,1-25.82-5.6,5.32,5.32,0,0,1-2.95-6.29l2.34-8.57a5.37,5.37,0,0,1,7.29-3.51,62.33,62.33,0,0,0,23.84,5c9.24,0,16.13-3.13,16.13-9.55,0-5.8-5.32-9.24-18.17-12.69-18.32-5-31.48-13-31.48-29.13,0-14.57,10.65-25.69,29.13-28.66v-9.21a5.36,5.36,0,0,1,5.37-5.36h5.4a5.36,5.36,0,0,1,5.37,5.36v8.27a68.28,68.28,0,0,1,20.46,3.67,5.33,5.33,0,0,1,3.34,6.44l-2.15,7.93a5.35,5.35,0,0,1-7.06,3.61,56,56,0,0,0-20.08-3.64c-11,0-14.09,4.54-14.09,8.61,0,5,6.58,8.46,20.83,12.85,20.36,6.1,28.82,14.56,28.82,29.75,0,13.94-10.34,26.47-30.39,29.61v10.3a5.36,5.36,0,0,1-5.36,5.36h-5.41A5.36,5.36,0,0,1,430.1,1249.72Z" transform="translate(-133.59 -111.86)"/><circle class="cls-84" cx="507.52" cy="1415.57" r="106.38" transform="translate(-1116.15 1506.32) rotate(-78.02)"/><circle class="cls-85" cx="507.52" cy="1415.57" r="102.84" transform="translate(-985.9 661.63) rotate(-45)"/><path class="cls-30" d="M422.72,1375.07a2.17,2.17,0,0,1-1-.24,2.22,2.22,0,0,1-1-3A97.3,97.3,0,0,1,525.05,1320a2.23,2.23,0,1,1-.8,4.38,94.37,94.37,0,0,0-16.73-1.5,92.33,92.33,0,0,0-82.81,51A2.22,2.22,0,0,1,422.72,1375.07Z" transform="translate(-133.59 -111.86)"/><circle class="cls-30" cx="509.77" cy="1417.81" r="87.05" transform="translate(-1120.83 1476.33) rotate(-76.72)"/><path class="cls-86" d="M501.22,1482.52v-9.47a77.5,77.5,0,0,1-26.57-5.76,5.49,5.49,0,0,1-3-6.48L474,1452a5.52,5.52,0,0,1,7.49-3.61,64.22,64.22,0,0,0,24.54,5.17c9.51,0,16.6-3.23,16.6-9.84,0-6-5.48-9.5-18.7-13-18.85-5.16-32.39-13.38-32.39-30,0-15,11-26.43,30-29.49v-9.47a5.52,5.52,0,0,1,5.51-5.52h5.57a5.52,5.52,0,0,1,5.52,5.52v8.5a70.38,70.38,0,0,1,21.06,3.79,5.49,5.49,0,0,1,3.43,6.62l-2.21,8.16a5.51,5.51,0,0,1-7.27,3.72,57.4,57.4,0,0,0-20.65-3.75c-11.29,0-14.51,4.67-14.51,8.86,0,5.16,6.77,8.7,21.44,13.22,20.95,6.28,29.65,15,29.65,30.62,0,14.34-10.64,27.24-31.27,30.46v10.6a5.52,5.52,0,0,1-5.51,5.52h-5.57A5.52,5.52,0,0,1,501.22,1482.52Z" transform="translate(-133.59 -111.86)"/><circle class="cls-87" cx="644" cy="1270.65" r="77.95" transform="translate(-809.03 1695.8) rotate(-85.27)"/><circle class="cls-88" cx="644" cy="1270.65" r="75.35" transform="translate(-843.46 715.68) rotate(-45)"/><path class="cls-30" d="M581.86,1241.58a2.11,2.11,0,0,1-1-.24,2.23,2.23,0,0,1-1-3A71.49,71.49,0,0,1,644,1198.86a72.7,72.7,0,0,1,13,1.17,2.23,2.23,0,0,1-.8,4.39,67.4,67.4,0,0,0-72.3,35.94A2.23,2.23,0,0,1,581.86,1241.58Z" transform="translate(-133.59 -111.86)"/><circle class="cls-30" cx="645.64" cy="1272.3" r="63.78" transform="translate(-518.33 173.58) rotate(-19.33)"/><path class="cls-89" d="M639.38,1319.71v-6.94a56.71,56.71,0,0,1-19.47-4.22,4,4,0,0,1-2.22-4.74l1.77-6.47a4,4,0,0,1,5.49-2.64,47,47,0,0,0,18,3.78c7,0,12.17-2.36,12.17-7.2,0-4.37-4-7-13.7-9.57-13.82-3.78-23.74-9.8-23.74-22,0-11,8-19.37,22-21.61v-6.94a4,4,0,0,1,4-4h4.08a4,4,0,0,1,4,4v6.23a51.58,51.58,0,0,1,15.43,2.77,4,4,0,0,1,2.52,4.86l-1.63,6a4,4,0,0,1-5.32,2.72,42,42,0,0,0-15.13-2.75c-8.27,0-10.63,3.43-10.63,6.5,0,3.77,5,6.37,15.7,9.68,15.36,4.6,21.73,11,21.73,22.43,0,10.51-7.79,20-22.91,22.32v7.77a4,4,0,0,1-4,4h-4.08A4,4,0,0,1,639.38,1319.71Z" transform="translate(-133.59 -111.86)"/><path class="cls-5" d="M1867.84,987.76a5.16,5.16,0,0,1,1-10c24.58-3.18,60.61-12.81,72.4-41.65,18.52-45.25-19.83-219.73,156.33-251,162.5-28.79,253,22.63,251,172.79C2346.52,1003.51,2112.61,1071.75,1867.84,987.76Z" transform="translate(-133.59 -111.86)"/><rect class="cls-2" x="1859.63" y="714.71" width="15.76" height="123.34"/><rect class="cls-2" x="1885.97" y="757.1" width="15.76" height="80.95"/><rect class="cls-2" x="1912.3" y="652.33" width="15.76" height="185.71"/><rect class="cls-2" x="1938.64" y="793.43" width="15.76" height="44.61"/><rect class="cls-2" x="1964.98" y="677.16" width="15.76" height="160.88"/><rect class="cls-2" x="1991.31" y="705.02" width="15.76" height="133.03"/><rect class="cls-2" x="2017.65" y="735.29" width="15.76" height="102.75"/><rect class="cls-2" x="2043.99" y="614.79" width="15.76" height="223.26"/><rect class="cls-2" x="2070.33" y="638.41" width="15.76" height="199.64"/><rect class="cls-2" x="2096.66" y="674.13" width="15.76" height="163.91"/><rect class="cls-2" x="2123" y="797.57" width="15.76" height="40.47"/></svg>